<svg id="_1_cyber_crime-outlined" data-name="1 cyber crime-outlined" xmlns="http://www.w3.org/2000/svg" viewBox="0 0 298.5 204.092"><defs><style>.cls-1{fill:#daeaf8}.cls-2{fill:#db2140}.cls-3{fill:#0e2044}.cls-4{fill:#fff}.cls-5,.cls-6,.cls-7,.cls-9{fill:none;stroke-miterlimit:10}.cls-5,.cls-6{stroke:#daeaf8}.cls-5,.cls-9{stroke-width:3px}.cls-6{stroke-width:6px}.cls-7{stroke:#0e2044;stroke-width:4px}.cls-7,.cls-9{stroke-linecap:round;stroke-linejoin:round}.cls-8{fill:#24539b}.cls-9{stroke:#fff}.cls-10{fill:#5793ce}</style></defs><circle id="circle" class="cls-1" cx="64.7" cy="64.7" r="64.7" transform="translate(169.1)"/><path id="Imposter_Scam" data-name="Imposter Scam" class="cls-2" d="M2.971 0v-35.877h6.55V0zm29.4-35.877h8.379V0H34.2v-24.756l-5.307 13.3h-2.03l-5.307-13.3V0h-6.22v-35.877h8.15l4.469 11.121zm22.547 0q4.7 0 7.186 2.526t2.488 7.2v4.469q0 4.672-2.488 7.2t-7.184 2.523h-1.9V0h-6.555v-35.877zm-.2 17.773a3.152 3.152 0 0 0 2.552-.927 4.682 4.682 0 0 0 .774-3.009v-3.76a4.682 4.682 0 0 0-.774-3.009 3.152 3.152 0 0 0-2.552-.927h-1.7V-18.1zm22.673-18.662a9.113 9.113 0 0 1 6.894 2.628 9.81 9.81 0 0 1 2.526 7.1v17.466a9.81 9.81 0 0 1-2.526 7.1A9.113 9.113 0 0 1 77.391.152 9.113 9.113 0 0 1 70.5-2.476a9.81 9.81 0 0 1-2.526-7.1v-17.465a9.81 9.81 0 0 1 2.526-7.1 9.113 9.113 0 0 1 6.891-2.625zm0 6.145q-2.869 0-2.869 3.631v17.367q0 3.631 2.869 3.631t2.844-3.631V-26.99q-.001-3.631-2.844-3.631zM99.15-36.41a8.693 8.693 0 0 1 6.449 2.3 8.659 8.659 0 0 1 2.285 6.386v5.053l-6.348.635V-27.6q0-2.641-2.285-2.666-2.285 0-2.285 2.666v2.539a4.508 4.508 0 0 0 1.041 2.945 7.921 7.921 0 0 0 3.377 2.158 12.438 12.438 0 0 1 4.634 2.641 7.306 7.306 0 0 1 2.031 3.4 18.293 18.293 0 0 1 .47 4.443v1.295a8.489 8.489 0 0 1-2.361 6.4A9.21 9.21 0 0 1 99.48.508a9.255 9.255 0 0 1-6.69-2.285 8.464 8.464 0 0 1-2.374-6.4v-3.936l6.348-.635v4.215a3.294 3.294 0 0 0 .622 2.209 2.484 2.484 0 0 0 1.968.711 2.551 2.551 0 0 0 1.98-.7 3.24 3.24 0 0 0 .635-2.222v-.66a4.634 4.634 0 0 0-.914-2.945 9.21 9.21 0 0 0-3.655-2.307 10.767 10.767 0 0 1-5.446-4.189 11.981 11.981 0 0 1-1.536-6.221v-2.869a8.65 8.65 0 0 1 2.285-6.4 8.721 8.721 0 0 1 6.447-2.284zm23.867 6.779V0h-6.551v-29.631h-6.932l1.041-6.246h18.307l1.041 6.246zm17.088-.1v11.324h8.049l-1.041 6.145h-7.008v6.119h9.979V0h-16.529v-35.877h16.529v6.145zm20.668 17.469V0h-6.551v-35.877h8.48q4.672 0 7.173 2.526t2.5 7.2v4.164a11.777 11.777 0 0 1-.965 4.964 7.536 7.536 0 0 1-2.844 3.288L173.672 0h-6.906L162.4-12.264zm1.727-6.145a3.129 3.129 0 0 0 2.552-.939 4.739 4.739 0 0 0 .774-3.021V-25.8a4.626 4.626 0 0 0-.787-3.009 3.158 3.158 0 0 0-2.539-.927h-1.727v11.324zm32.119-18a8.693 8.693 0 0 1 6.449 2.3 8.659 8.659 0 0 1 2.285 6.386v5.053l-6.348.635V-27.6q0-2.641-2.285-2.666-2.285 0-2.285 2.666v2.539a4.508 4.508 0 0 0 1.041 2.945 7.921 7.921 0 0 0 3.377 2.158 12.438 12.438 0 0 1 4.634 2.641 7.306 7.306 0 0 1 2.031 3.4 18.293 18.293 0 0 1 .47 4.443v1.295a8.489 8.489 0 0 1-2.361 6.4 9.21 9.21 0 0 1-6.678 2.287 9.255 9.255 0 0 1-6.69-2.285 8.464 8.464 0 0 1-2.374-6.4v-3.936l6.348-.635v4.215a3.294 3.294 0 0 0 .622 2.209 2.484 2.484 0 0 0 1.968.711 2.551 2.551 0 0 0 1.98-.7 3.24 3.24 0 0 0 .635-2.222v-.66a4.634 4.634 0 0 0-.914-2.945 9.21 9.21 0 0 0-3.656-2.311 10.767 10.767 0 0 1-5.446-4.189 11.981 11.981 0 0 1-1.536-6.221v-2.869a8.65 8.65 0 0 1 2.285-6.4 8.721 8.721 0 0 1 6.448-2.28zm21.2-.508a8.962 8.962 0 0 1 6.69 2.463 9.244 9.244 0 0 1 2.425 6.779v2.26l-6.348.3v-1.98a4.933 4.933 0 0 0-.622-2.806 2.247 2.247 0 0 0-1.964-.874q-2.59 0-2.615 3.174v18.281q0 3.174 2.615 3.174a2.247 2.247 0 0 0 1.968-.876 4.933 4.933 0 0 0 .622-2.806v-2.539l6.348.3v2.793a9.289 9.289 0 0 1-2.425 6.792A8.936 8.936 0 0 1 215.82 0a8.79 8.79 0 0 1-6.6-2.45 9.358 9.358 0 0 1-2.387-6.817v-18.409a9.284 9.284 0 0 1 2.4-6.8 8.824 8.824 0 0 1 6.587-2.442zM241.973 0l-.736-4.57h-6.271L234.279 0h-6.5l6.449-35.877h7.846L248.574 0zm-1.6-10.613l-2.234-14.447-2.361 14.447zm29.148-25.264h8.379V0h-6.55v-24.756l-5.307 13.3h-2.031l-5.307-13.3V0h-6.221v-35.877h8.15l4.466 11.121z" transform="translate(12.07 162.071)"/><path id="a_financial_loss" data-name="a financial loss" class="cls-3" d="M3.456.216A2.573 2.573 0 0 1 1.566-.5a2.525 2.525 0 0 1-.72-1.881 2.587 2.587 0 0 1 .3-1.251 2.56 2.56 0 0 1 .936-.945A6.216 6.216 0 0 1 3.7-5.238a14.813 14.813 0 0 1 2.349-.414 3.336 3.336 0 0 0-.1-.657 1.51 1.51 0 0 0-.27-.558 1.256 1.256 0 0 0-.495-.378 1.873 1.873 0 0 0-.756-.135 3.347 3.347 0 0 0-1.269.252 8.534 8.534 0 0 0-1.215.612L1.188-7.9a8.854 8.854 0 0 1 1.656-.81 5.627 5.627 0 0 1 1.98-.342 3.041 3.041 0 0 1 2.476.979 4.317 4.317 0 0 1 .819 2.835V0H6.408l-.144-.972h-.072a6.493 6.493 0 0 1-1.269.846 3.2 3.2 0 0 1-1.467.342zM4.122-1.4a1.942 1.942 0 0 0 .978-.256 5.267 5.267 0 0 0 .945-.72v-1.98a9.448 9.448 0 0 0-1.512.288 4.37 4.37 0 0 0-.99.4 1.443 1.443 0 0 0-.54.513 1.229 1.229 0 0 0-.162.612 1.01 1.01 0 0 0 .36.864 1.488 1.488 0 0 0 .921.279zM14.562 0v-7.2h-1.188v-1.548l1.188-.09v-.918a4.741 4.741 0 0 1 .162-1.269 2.6 2.6 0 0 1 .522-1.008 2.416 2.416 0 0 1 .909-.657 3.419 3.419 0 0 1 1.341-.234 4.273 4.273 0 0 1 .891.09 4.255 4.255 0 0 1 .729.216l-.4 1.548a2.376 2.376 0 0 0-.972-.216q-1.116 0-1.116 1.494v.954h1.732V-7.2h-1.728V0zm5.346 0v-8.838h2.07V0zm1.044-10.386a1.32 1.32 0 0 1-.918-.324 1.085 1.085 0 0 1-.36-.846 1.112 1.112 0 0 1 .36-.855 1.3 1.3 0 0 1 .918-.333 1.3 1.3 0 0 1 .918.333 1.112 1.112 0 0 1 .36.855 1.085 1.085 0 0 1-.36.846 1.32 1.32 0 0 1-.918.324zM24.624 0v-8.838h1.71l.144 1.188h.072a7.007 7.007 0 0 1 1.287-.99 3.081 3.081 0 0 1 1.611-.414 2.367 2.367 0 0 1 2.07.909 4.441 4.441 0 0 1 .648 2.6V0H30.1v-5.274a2.75 2.75 0 0 0-.324-1.548 1.219 1.219 0 0 0-1.062-.45 1.861 1.861 0 0 0-1.017.279 6.488 6.488 0 0 0-1 .819V0zm12.222.216a2.573 2.573 0 0 1-1.89-.716 2.525 2.525 0 0 1-.72-1.881 2.587 2.587 0 0 1 .3-1.251 2.56 2.56 0 0 1 .936-.945 6.216 6.216 0 0 1 1.62-.666 14.813 14.813 0 0 1 2.349-.414 3.336 3.336 0 0 0-.1-.657 1.51 1.51 0 0 0-.27-.558 1.256 1.256 0 0 0-.5-.378 1.873 1.873 0 0 0-.756-.135 3.347 3.347 0 0 0-1.269.252 8.534 8.534 0 0 0-1.215.612L34.578-7.9a8.854 8.854 0 0 1 1.656-.81 5.627 5.627 0 0 1 1.98-.342 3.041 3.041 0 0 1 2.475.981 4.317 4.317 0 0 1 .819 2.835V0H39.8l-.144-.972h-.072a6.493 6.493 0 0 1-1.269.846 3.2 3.2 0 0 1-1.469.342zm.666-1.62a1.942 1.942 0 0 0 .981-.252 5.267 5.267 0 0 0 .945-.72v-1.98a9.448 9.448 0 0 0-1.512.288 4.37 4.37 0 0 0-.99.4 1.443 1.443 0 0 0-.54.513 1.229 1.229 0 0 0-.162.612 1.01 1.01 0 0 0 .36.864 1.488 1.488 0 0 0 .918.279zM43.992 0v-8.838H45.7l.144 1.188h.072a7.007 7.007 0 0 1 1.287-.99 3.081 3.081 0 0 1 1.611-.414 2.367 2.367 0 0 1 2.07.909 4.441 4.441 0 0 1 .648 2.6V0h-2.07v-5.274a2.75 2.75 0 0 0-.324-1.548 1.219 1.219 0 0 0-1.062-.45 1.861 1.861 0 0 0-1.017.279 6.488 6.488 0 0 0-1 .819V0zm13.77.216a4.583 4.583 0 0 1-1.683-.306 3.793 3.793 0 0 1-1.359-.9 4.162 4.162 0 0 1-.9-1.458 5.56 5.56 0 0 1-.32-1.962 5.061 5.061 0 0 1 .36-1.962 4.314 4.314 0 0 1 .972-1.458 4.232 4.232 0 0 1 1.413-.909 4.557 4.557 0 0 1 1.683-.315 3.506 3.506 0 0 1 1.485.288 4.828 4.828 0 0 1 1.107.7l-1.008 1.35a3.428 3.428 0 0 0-.711-.477 1.723 1.723 0 0 0-.765-.171 2.161 2.161 0 0 0-1.746.8 3.259 3.259 0 0 0-.67 2.154 3.259 3.259 0 0 0 .657 2.133 2.1 2.1 0 0 0 1.7.8 2.2 2.2 0 0 0 .981-.225 4.408 4.408 0 0 0 .837-.531l.846 1.368a4.406 4.406 0 0 1-1.377.81 4.394 4.394 0 0 1-1.502.271zM62.388 0v-8.838h2.07V0zm1.044-10.386a1.32 1.32 0 0 1-.918-.324 1.085 1.085 0 0 1-.36-.846 1.112 1.112 0 0 1 .36-.855 1.3 1.3 0 0 1 .918-.333 1.3 1.3 0 0 1 .918.333 1.112 1.112 0 0 1 .36.855 1.085 1.085 0 0 1-.36.846 1.32 1.32 0 0 1-.918.324zM69.246.216a2.573 2.573 0 0 1-1.89-.716 2.525 2.525 0 0 1-.72-1.881 2.587 2.587 0 0 1 .3-1.251 2.56 2.56 0 0 1 .936-.945 6.216 6.216 0 0 1 1.62-.666 14.813 14.813 0 0 1 2.349-.414 3.336 3.336 0 0 0-.1-.657 1.51 1.51 0 0 0-.27-.558 1.256 1.256 0 0 0-.5-.378 1.873 1.873 0 0 0-.756-.135 3.347 3.347 0 0 0-1.269.252 8.534 8.534 0 0 0-1.215.612L66.978-7.9a8.854 8.854 0 0 1 1.656-.81 5.627 5.627 0 0 1 1.98-.342 3.041 3.041 0 0 1 2.475.981 4.317 4.317 0 0 1 .819 2.835V0H72.2l-.144-.972h-.072a6.493 6.493 0 0 1-1.269.846 3.2 3.2 0 0 1-1.469.342zm.666-1.62a1.942 1.942 0 0 0 .981-.252 5.267 5.267 0 0 0 .945-.72v-1.98a9.448 9.448 0 0 0-1.512.288 4.371 4.371 0 0 0-.99.4 1.443 1.443 0 0 0-.54.513 1.229 1.229 0 0 0-.162.612 1.01 1.01 0 0 0 .36.864 1.488 1.488 0 0 0 .918.279zm8.5 1.62a1.751 1.751 0 0 1-1.57-.666 3.209 3.209 0 0 1-.45-1.818v-10.44h2.07V-2.16a.771.771 0 0 0 .144.531.42.42 0 0 0 .306.153h.135a.763.763 0 0 0 .189-.036l.27 1.548a2.793 2.793 0 0 1-1.098.18zm8.478 0a1.751 1.751 0 0 1-1.57-.666 3.209 3.209 0 0 1-.45-1.818v-10.44h2.07V-2.16a.771.771 0 0 0 .144.531.42.42 0 0 0 .306.153h.135a.763.763 0 0 0 .189-.036l.27 1.548a2.793 2.793 0 0 1-1.098.18zm6.48 0a4.182 4.182 0 0 1-1.588-.306 3.941 3.941 0 0 1-1.341-.9 4.306 4.306 0 0 1-.927-1.458 5.3 5.3 0 0 1-.342-1.962 5.3 5.3 0 0 1 .342-1.962 4.306 4.306 0 0 1 .927-1.458 4.055 4.055 0 0 1 1.341-.909 4.078 4.078 0 0 1 1.584-.315 4.144 4.144 0 0 1 1.593.315 3.936 3.936 0 0 1 1.341.909 4.5 4.5 0 0 1 .927 1.458 5.176 5.176 0 0 1 .351 1.962 5.176 5.176 0 0 1-.351 1.962A4.5 4.5 0 0 1 96.3-.99a3.829 3.829 0 0 1-1.341.9 4.251 4.251 0 0 1-1.593.306zm0-1.692a1.767 1.767 0 0 0 1.53-.8 3.665 3.665 0 0 0 .558-2.133 3.7 3.7 0 0 0-.558-2.152 1.767 1.767 0 0 0-1.53-.8 1.744 1.744 0 0 0-1.521.8A3.746 3.746 0 0 0 91.3-4.41a3.71 3.71 0 0 0 .549 2.133 1.744 1.744 0 0 0 1.517.801zm8.654 1.692a4.9 4.9 0 0 1-1.809-.351 5.853 5.853 0 0 1-1.539-.873l.972-1.332a5.619 5.619 0 0 0 1.179.729 3.079 3.079 0 0 0 1.269.261 1.592 1.592 0 0 0 1.062-.3.967.967 0 0 0 .342-.765.752.752 0 0 0-.162-.477 1.556 1.556 0 0 0-.432-.369 4.153 4.153 0 0 0-.612-.3q-.342-.135-.684-.279-.432-.162-.882-.378a3.546 3.546 0 0 1-.8-.522 2.633 2.633 0 0 1-.576-.711 1.953 1.953 0 0 1-.225-.963 2.393 2.393 0 0 1 .864-1.908 3.513 3.513 0 0 1 2.358-.738 4.078 4.078 0 0 1 1.651.33 6.165 6.165 0 0 1 1.278.738l-.954 1.26a4.937 4.937 0 0 0-.945-.549 2.483 2.483 0 0 0-1-.207 1.451 1.451 0 0 0-.981.279.888.888 0 0 0-.315.693.706.706 0 0 0 .153.459 1.417 1.417 0 0 0 .4.333 4.123 4.123 0 0 0 .585.27q.333.126.693.252.45.162.9.369a3.7 3.7 0 0 1 .819.513 2.339 2.339 0 0 1 .594.747 2.292 2.292 0 0 1 .225 1.053 2.557 2.557 0 0 1-.225 1.071 2.474 2.474 0 0 1-.657.864A3.2 3.2 0 0 1 103.5 0a4.659 4.659 0 0 1-1.476.216zm7.758 0a4.9 4.9 0 0 1-1.809-.351 5.853 5.853 0 0 1-1.539-.873l.972-1.332a5.619 5.619 0 0 0 1.179.729 3.079 3.079 0 0 0 1.269.261 1.592 1.592 0 0 0 1.062-.3.967.967 0 0 0 .342-.765.752.752 0 0 0-.162-.477 1.556 1.556 0 0 0-.432-.369 4.153 4.153 0 0 0-.612-.3q-.342-.135-.684-.279-.432-.162-.882-.378a3.546 3.546 0 0 1-.8-.522 2.633 2.633 0 0 1-.576-.711 1.953 1.953 0 0 1-.225-.963 2.393 2.393 0 0 1 .864-1.908 3.513 3.513 0 0 1 2.358-.738 4.078 4.078 0 0 1 1.656.324 6.165 6.165 0 0 1 1.278.738l-.954 1.26a4.937 4.937 0 0 0-.945-.549 2.483 2.483 0 0 0-1-.207 1.451 1.451 0 0 0-.981.279.888.888 0 0 0-.315.693.706.706 0 0 0 .153.459 1.417 1.417 0 0 0 .4.333 4.123 4.123 0 0 0 .585.27q.333.126.693.252.45.162.9.369a3.7 3.7 0 0 1 .819.513 2.339 2.339 0 0 1 .594.747 2.292 2.292 0 0 1 .225 1.053 2.557 2.557 0 0 1-.225 1.071 2.474 2.474 0 0 1-.657.864 3.2 3.2 0 0 1-1.08.585 4.659 4.659 0 0 1-1.471.222zm6.462 0a1.292 1.292 0 0 1-.963-.4 1.383 1.383 0 0 1-.387-1.008 1.383 1.383 0 0 1 .387-1.008 1.292 1.292 0 0 1 .963-.4 1.263 1.263 0 0 1 .954.4 1.4 1.4 0 0 1 .378 1.008A1.4 1.4 0 0 1 117.2-.18a1.263 1.263 0 0 1-.956.396z" transform="translate(86.126 203.876)"/><path id="with_1_in_5_people_reporting" data-name="with 1 in 5 people reporting" class="cls-3" d="M2.772 0L.432-8.838H2.52l1.062 4.59q.144.63.243 1.26T4.05-1.71h.072q.126-.648.261-1.278t.3-1.26l1.152-4.59h1.89l1.17 4.59q.162.63.306 1.26t.285 1.278h.072q.126-.648.234-1.278t.234-1.26l1.062-4.59h1.944L10.782 0H8.316L7.29-4.122q-.144-.63-.27-1.251T6.75-6.7h-.072q-.126.7-.252 1.332T6.156-4.1L5.148 0zm12.006 0v-8.838h2.07V0zm1.044-10.386a1.32 1.32 0 0 1-.918-.324 1.085 1.085 0 0 1-.36-.846 1.112 1.112 0 0 1 .36-.855 1.3 1.3 0 0 1 .918-.333 1.3 1.3 0 0 1 .918.333 1.112 1.112 0 0 1 .36.855 1.085 1.085 0 0 1-.36.846 1.32 1.32 0 0 1-.918.324zM22.608.216a3.233 3.233 0 0 1-1.3-.234 2.212 2.212 0 0 1-.864-.657 2.72 2.72 0 0 1-.486-1.008 5.159 5.159 0 0 1-.153-1.3V-7.2H18.54v-1.548l1.368-.09.252-2.412h1.728v2.412h2.25V-7.2h-2.25v4.212q0 1.548 1.242 1.548a2.195 2.195 0 0 0 .477-.054 2.236 2.236 0 0 0 .441-.144l.36 1.53a6.89 6.89 0 0 1-.819.225 4.647 4.647 0 0 1-.981.099zM25.992 0v-12.708h2.07v3.276l-.072 1.71a7.283 7.283 0 0 1 1.233-.927 3.038 3.038 0 0 1 1.593-.405 2.367 2.367 0 0 1 2.07.909 4.441 4.441 0 0 1 .648 2.6V0h-2.07v-5.274a2.75 2.75 0 0 0-.324-1.548 1.219 1.219 0 0 0-1.062-.45 1.861 1.861 0 0 0-1.017.279 6.488 6.488 0 0 0-1 .819V0zm13.662 0v-1.692h2.556v-7.524H40.1v-1.3a9.6 9.6 0 0 0 1.485-.387 6.658 6.658 0 0 0 1.161-.549H44.3v9.756h2.25V0zM52.47 0v-8.838h2.07V0zm1.044-10.386a1.32 1.32 0 0 1-.918-.324 1.085 1.085 0 0 1-.36-.846 1.112 1.112 0 0 1 .36-.855 1.3 1.3 0 0 1 .918-.333 1.3 1.3 0 0 1 .918.333 1.112 1.112 0 0 1 .36.855 1.085 1.085 0 0 1-.36.846 1.32 1.32 0 0 1-.918.324zM57.186 0v-8.838H58.9l.14 1.188h.072a7.007 7.007 0 0 1 1.288-.99 3.081 3.081 0 0 1 1.611-.414 2.367 2.367 0 0 1 2.07.909 4.441 4.441 0 0 1 .648 2.6V0h-2.07v-5.274a2.75 2.75 0 0 0-.324-1.548 1.219 1.219 0 0 0-1.062-.45 1.861 1.861 0 0 0-1.017.279 6.488 6.488 0 0 0-1 .819V0zm16.7.216a5.138 5.138 0 0 1-2.331-.477 6.076 6.076 0 0 1-1.575-1.107l.958-1.332a6.24 6.24 0 0 0 1.17.855 3 3 0 0 0 1.512.369 2.25 2.25 0 0 0 1.593-.576 2.1 2.1 0 0 0 .621-1.62 2.1 2.1 0 0 0-.576-1.584 2.106 2.106 0 0 0-1.53-.558 2.5 2.5 0 0 0-.936.153 5.434 5.434 0 0 0-.9.5L70.9-5.8l.342-5.652h6.12V-9.7h-4.32l-.232 2.77a4.051 4.051 0 0 1 .711-.279 2.956 2.956 0 0 1 .8-.1 4.439 4.439 0 0 1 1.4.216 3.135 3.135 0 0 1 1.143.657 3.15 3.15 0 0 1 .774 1.116 4.039 4.039 0 0 1 .288 1.593 4.028 4.028 0 0 1-.333 1.674A3.7 3.7 0 0 1 76.7-.81a3.82 3.82 0 0 1-1.287.765 4.478 4.478 0 0 1-1.523.261zM83.7 3.492v-12.33h1.71l.144.936h.072a6.326 6.326 0 0 1 1.242-.81 3.142 3.142 0 0 1 1.422-.342 3.276 3.276 0 0 1 1.467.315 3.042 3.042 0 0 1 1.089.909 4.236 4.236 0 0 1 .684 1.422 6.814 6.814 0 0 1 .234 1.854 6.054 6.054 0 0 1-.315 2.025 4.594 4.594 0 0 1-.837 1.494 3.655 3.655 0 0 1-1.206.927 3.284 3.284 0 0 1-1.422.324 2.854 2.854 0 0 1-1.152-.252 4.408 4.408 0 0 1-1.116-.72L85.77.72v2.772zm3.852-4.986a1.8 1.8 0 0 0 1.476-.765 3.672 3.672 0 0 0 .594-2.277 3.985 3.985 0 0 0-.45-2.07 1.577 1.577 0 0 0-1.458-.738 2.871 2.871 0 0 0-1.944.99v4.122a3.093 3.093 0 0 0 .936.576 2.5 2.5 0 0 0 .846.162zm10.08 1.71a4.585 4.585 0 0 1-1.71-.316 4.061 4.061 0 0 1-1.386-.909 4.147 4.147 0 0 1-.927-1.449 5.352 5.352 0 0 1-.333-1.953 5.244 5.244 0 0 1 .342-1.944 4.459 4.459 0 0 1 .909-1.458 4.027 4.027 0 0 1 1.305-.918 3.726 3.726 0 0 1 1.512-.324 3.846 3.846 0 0 1 1.584.306 3.09 3.09 0 0 1 1.143.864 3.8 3.8 0 0 1 .693 1.332A5.825 5.825 0 0 1 101-4.86q0 .306-.027.576a3.838 3.838 0 0 1-.063.432h-5.618a2.854 2.854 0 0 0 .837 1.827 2.513 2.513 0 0 0 1.773.639 3.259 3.259 0 0 0 1.071-.171 4.76 4.76 0 0 0 .981-.477l.7 1.3a6.356 6.356 0 0 1-1.4.684 4.883 4.883 0 0 1-1.622.266zm-2.358-5.472H99.2a2.621 2.621 0 0 0-.441-1.611 1.592 1.592 0 0 0-1.359-.585 1.961 1.961 0 0 0-1.386.558 2.645 2.645 0 0 0-.74 1.638zM106.6.216a4.182 4.182 0 0 1-1.584-.306 3.941 3.941 0 0 1-1.341-.9 4.306 4.306 0 0 1-.927-1.458 5.3 5.3 0 0 1-.348-1.962 5.3 5.3 0 0 1 .342-1.962 4.306 4.306 0 0 1 .927-1.458 4.055 4.055 0 0 1 1.341-.909 4.078 4.078 0 0 1 1.584-.315 4.144 4.144 0 0 1 1.593.315 3.936 3.936 0 0 1 1.341.909 4.5 4.5 0 0 1 .927 1.458 5.176 5.176 0 0 1 .351 1.962 5.176 5.176 0 0 1-.351 1.962 4.5 4.5 0 0 1-.925 1.458 3.829 3.829 0 0 1-1.341.9 4.251 4.251 0 0 1-1.589.306zm0-1.692a1.767 1.767 0 0 0 1.53-.8 3.665 3.665 0 0 0 .558-2.133 3.7 3.7 0 0 0-.558-2.151 1.767 1.767 0 0 0-1.53-.8 1.744 1.744 0 0 0-1.521.8 3.746 3.746 0 0 0-.549 2.151 3.71 3.71 0 0 0 .549 2.133 1.744 1.744 0 0 0 1.521.8zm6.264 4.968v-12.33h1.71l.144.936h.072a6.326 6.326 0 0 1 1.242-.81 3.142 3.142 0 0 1 1.422-.342 3.276 3.276 0 0 1 1.467.315 3.042 3.042 0 0 1 1.089.909 4.236 4.236 0 0 1 .684 1.422 6.814 6.814 0 0 1 .234 1.854 6.054 6.054 0 0 1-.315 2.025 4.594 4.594 0 0 1-.837 1.494 3.655 3.655 0 0 1-1.206.927 3.284 3.284 0 0 1-1.422.324 2.854 2.854 0 0 1-1.152-.252 4.408 4.408 0 0 1-1.116-.72l.05 1.476v2.772zm3.852-4.986a1.8 1.8 0 0 0 1.476-.765 3.672 3.672 0 0 0 .594-2.277 3.985 3.985 0 0 0-.45-2.07 1.577 1.577 0 0 0-1.458-.738 2.871 2.871 0 0 0-1.944.99v4.122a3.093 3.093 0 0 0 .936.576 2.5 2.5 0 0 0 .842.162zm8.316 1.71a1.751 1.751 0 0 1-1.566-.666 3.209 3.209 0 0 1-.45-1.818v-10.44h2.07V-2.16a.771.771 0 0 0 .144.531.42.42 0 0 0 .306.153h.135a.763.763 0 0 0 .189-.036l.27 1.548a2.793 2.793 0 0 1-1.102.18zm6.642 0A4.585 4.585 0 0 1 129.96-.1a4.061 4.061 0 0 1-1.386-.909 4.147 4.147 0 0 1-.927-1.449 5.352 5.352 0 0 1-.333-1.953 5.244 5.244 0 0 1 .342-1.944 4.459 4.459 0 0 1 .909-1.458 4.027 4.027 0 0 1 1.3-.918 3.726 3.726 0 0 1 1.512-.324 3.846 3.846 0 0 1 1.584.306 3.09 3.09 0 0 1 1.143.864 3.8 3.8 0 0 1 .693 1.332 5.826 5.826 0 0 1 .234 1.692q0 .306-.027.576a3.838 3.838 0 0 1-.063.432h-5.611a2.854 2.854 0 0 0 .837 1.827 2.513 2.513 0 0 0 1.773.639 3.259 3.259 0 0 0 1.071-.171 4.759 4.759 0 0 0 .981-.477l.7 1.3a6.356 6.356 0 0 1-1.4.684 4.883 4.883 0 0 1-1.622.267zm-2.358-5.472h3.924a2.622 2.622 0 0 0-.441-1.611 1.592 1.592 0 0 0-1.359-.585 1.961 1.961 0 0 0-1.386.558 2.645 2.645 0 0 0-.742 1.638zM140.616 0v-8.838h1.71l.144 1.566h.072a3.71 3.71 0 0 1 1.134-1.328 2.384 2.384 0 0 1 1.368-.459 2.369 2.369 0 0 1 1.008.18l-.36 1.8a3.778 3.778 0 0 0-.432-.108 2.774 2.774 0 0 0-.486-.036 1.929 1.929 0 0 0-1.1.4 3.129 3.129 0 0 0-.99 1.413V0zm10.314.216a4.585 4.585 0 0 1-1.71-.316 4.06 4.06 0 0 1-1.386-.909 4.147 4.147 0 0 1-.927-1.449 5.352 5.352 0 0 1-.333-1.953 5.244 5.244 0 0 1 .342-1.944 4.459 4.459 0 0 1 .909-1.458 4.027 4.027 0 0 1 1.305-.918 3.726 3.726 0 0 1 1.512-.324 3.846 3.846 0 0 1 1.584.306 3.09 3.09 0 0 1 1.143.864 3.8 3.8 0 0 1 .693 1.332 5.825 5.825 0 0 1 .238 1.693q0 .306-.027.576a3.834 3.834 0 0 1-.063.432h-5.62a2.854 2.854 0 0 0 .837 1.827 2.513 2.513 0 0 0 1.773.639 3.259 3.259 0 0 0 1.071-.171 4.76 4.76 0 0 0 .981-.477l.7 1.3a6.356 6.356 0 0 1-1.4.684 4.883 4.883 0 0 1-1.622.266zm-2.358-5.472h3.928a2.621 2.621 0 0 0-.441-1.611 1.592 1.592 0 0 0-1.359-.585 1.961 1.961 0 0 0-1.386.558 2.646 2.646 0 0 0-.742 1.638zm7.7 8.748v-12.33h1.71l.144.936h.072a6.325 6.325 0 0 1 1.242-.81 3.142 3.142 0 0 1 1.422-.342 3.276 3.276 0 0 1 1.467.315 3.042 3.042 0 0 1 1.089.909 4.236 4.236 0 0 1 .684 1.422 6.814 6.814 0 0 1 .234 1.854 6.054 6.054 0 0 1-.315 2.025 4.594 4.594 0 0 1-.837 1.494 3.655 3.655 0 0 1-1.206.927 3.284 3.284 0 0 1-1.422.324 2.854 2.854 0 0 1-1.152-.252 4.408 4.408 0 0 1-1.116-.72l.058 1.476v2.772zm3.852-4.986a1.8 1.8 0 0 0 1.476-.765 3.672 3.672 0 0 0 .594-2.277 3.985 3.985 0 0 0-.45-2.07 1.577 1.577 0 0 0-1.458-.738 2.871 2.871 0 0 0-1.944.99v4.122a3.093 3.093 0 0 0 .936.576 2.5 2.5 0 0 0 .85.162zm9.918 1.71a4.182 4.182 0 0 1-1.584-.306 3.941 3.941 0 0 1-1.341-.9 4.306 4.306 0 0 1-.927-1.458 5.3 5.3 0 0 1-.342-1.962 5.3 5.3 0 0 1 .342-1.962 4.306 4.306 0 0 1 .927-1.458 4.055 4.055 0 0 1 1.341-.909 4.078 4.078 0 0 1 1.584-.315 4.144 4.144 0 0 1 1.593.315 3.936 3.936 0 0 1 1.341.909 4.5 4.5 0 0 1 .927 1.458 5.176 5.176 0 0 1 .351 1.962 5.176 5.176 0 0 1-.351 1.962 4.5 4.5 0 0 1-.923 1.458 3.829 3.829 0 0 1-1.341.9 4.251 4.251 0 0 1-1.593.306zm0-1.692a1.767 1.767 0 0 0 1.53-.8 3.665 3.665 0 0 0 .558-2.133 3.7 3.7 0 0 0-.558-2.151 1.767 1.767 0 0 0-1.53-.8 1.744 1.744 0 0 0-1.521.8 3.746 3.746 0 0 0-.549 2.151 3.71 3.71 0 0 0 .549 2.133 1.744 1.744 0 0 0 1.525.8zM176.31 0v-8.838h1.71l.144 1.566h.072A3.71 3.71 0 0 1 179.37-8.6a2.384 2.384 0 0 1 1.368-.459 2.369 2.369 0 0 1 1.008.18l-.36 1.8a3.778 3.778 0 0 0-.432-.108 2.774 2.774 0 0 0-.486-.036 1.929 1.929 0 0 0-1.1.4 3.129 3.129 0 0 0-.99 1.413V0zm9.828.216a3.233 3.233 0 0 1-1.3-.234 2.212 2.212 0 0 1-.864-.657 2.72 2.72 0 0 1-.486-1.008 5.159 5.159 0 0 1-.153-1.3V-7.2h-1.26v-1.548l1.368-.09.252-2.412h1.728v2.412h2.25V-7.2h-2.25v4.212q0 1.548 1.242 1.548a2.195 2.195 0 0 0 .477-.054 2.236 2.236 0 0 0 .441-.144l.36 1.53a6.89 6.89 0 0 1-.819.225 4.647 4.647 0 0 1-.986.099zM189.522 0v-8.838h2.07V0zm1.044-10.386a1.32 1.32 0 0 1-.918-.324 1.085 1.085 0 0 1-.36-.846 1.112 1.112 0 0 1 .36-.855 1.3 1.3 0 0 1 .918-.333 1.3 1.3 0 0 1 .918.333 1.112 1.112 0 0 1 .36.855 1.085 1.085 0 0 1-.36.846 1.32 1.32 0 0 1-.918.324zM194.238 0v-8.838h1.71l.144 1.188h.072a7.007 7.007 0 0 1 1.287-.99 3.081 3.081 0 0 1 1.611-.414 2.366 2.366 0 0 1 2.07.909 4.441 4.441 0 0 1 .648 2.6V0h-2.07v-5.274a2.75 2.75 0 0 0-.324-1.548 1.219 1.219 0 0 0-1.062-.45 1.861 1.861 0 0 0-1.017.279 6.488 6.488 0 0 0-1 .819V0zM207.4 3.906a7.032 7.032 0 0 1-1.467-.144 3.835 3.835 0 0 1-1.161-.432 2.266 2.266 0 0 1-.772-.72 1.817 1.817 0 0 1-.279-1.008 1.805 1.805 0 0 1 .324-1.035 3.029 3.029 0 0 1 .936-.855V-.36a1.794 1.794 0 0 1-.567-.576 1.669 1.669 0 0 1-.225-.9 1.606 1.606 0 0 1 .3-.945 2.858 2.858 0 0 1 .675-.693v-.072a3.163 3.163 0 0 1-.8-.945 2.722 2.722 0 0 1-.351-1.395 3.056 3.056 0 0 1 .288-1.35 3.02 3.02 0 0 1 .765-1 3.265 3.265 0 0 1 1.107-.612 4.24 4.24 0 0 1 1.332-.207 3.721 3.721 0 0 1 .693.063 4.642 4.642 0 0 1 .6.153h3.168v1.53h-1.62a2.1 2.1 0 0 1 .36.639 2.435 2.435 0 0 1 .144.855 3.029 3.029 0 0 1-.261 1.3 2.7 2.7 0 0 1-.711.936 3.127 3.127 0 0 1-1.062.576 4.244 4.244 0 0 1-1.314.2 3.416 3.416 0 0 1-.594-.054 2.954 2.954 0 0 1-.612-.18 1.878 1.878 0 0 0-.315.36.883.883 0 0 0-.117.486.682.682 0 0 0 .315.594 2.108 2.108 0 0 0 1.125.216h1.566a4.615 4.615 0 0 1 2.421.513 1.815 1.815 0 0 1 .819 1.665 2.407 2.407 0 0 1-.333 1.224 3.023 3.023 0 0 1-.945.99 5.052 5.052 0 0 1-1.485.657 7.281 7.281 0 0 1-1.947.238zm.1-8.006a1.459 1.459 0 0 0 1.08-.459 1.812 1.812 0 0 0 .45-1.323 1.782 1.782 0 0 0-.441-1.287 1.45 1.45 0 0 0-1.089-.459 1.494 1.494 0 0 0-1.1.45 1.754 1.754 0 0 0-.45 1.3 1.812 1.812 0 0 0 .45 1.323 1.479 1.479 0 0 0 1.1.455zm.216 6.66a3.168 3.168 0 0 0 1.737-.423 1.2 1.2 0 0 0 .657-1 .693.693 0 0 0-.4-.7 2.954 2.954 0 0 0-1.161-.18h-1.206a4.892 4.892 0 0 1-1.206-.126 1.476 1.476 0 0 0-.684 1.17 1.023 1.023 0 0 0 .6.927 3.47 3.47 0 0 0 1.667.328z" transform="translate(40.622 182.876)"/><circle id="lens" class="cls-4" cx="11.7" cy="11.7" r="11.7" transform="translate(202.7 77.9)"/><circle id="lens-2" data-name="lens" class="cls-4" cx="11.7" cy="11.7" r="11.7" transform="translate(241.9 77.9)"/><path id="glare" class="cls-5" transform="translate(211.9 85.3)" d="M12.9 0L0 15.6"/><path id="glare-2" data-name="glare" class="cls-6" transform="translate(205 79.1)" d="M14 0L0 17.2"/><path id="glare-3" data-name="glare" class="cls-5" transform="translate(250.8 84.9)" d="M12.9 0L0 15.6"/><path id="glare-4" data-name="glare" class="cls-6" transform="translate(243.9 79.1)" d="M14.1 0L0 16.8"/><circle id="glasses_frame" data-name="glasses frame" class="cls-7" cx="12.7" cy="12.7" r="12.7" transform="rotate(-45 206.928 -192.278)"/><circle id="glasses_frame-2" data-name="glasses frame" class="cls-7" cx="12.7" cy="12.7" r="12.7" transform="rotate(-23.184 320.509 -535.604)"/><path id="glasses_bridge" data-name="glasses bridge" class="cls-7" transform="translate(229.1 89.7)" d="M0 .1L9.8 0"/><path id="hat_color" data-name="hat color" class="cls-8" d="M199 70.4l69.5-.7-.1-13.8-9.1-23.5-3.5-7.7-6.4-.6-3.8 2.2-12.2 11.4-7.8-8-7.8-4.9-5.3.3-2.7 2.1-4.9 11.8-6 17.5z"/><path id="hat_band" data-name="hat band" class="cls-2" transform="translate(199.053 57.53)" d="M0 0h69.5v12.1H0z"/><path id="hat_brim" data-name="hat brim" class="cls-7" transform="translate(188.7 69.6)" d="M0 .9L90.2 0"/><path id="hat_outline" data-name="hat outline" class="cls-7" d="M233.8 37.1l-12.8-11a7.779 7.779 0 0 0-12.3 3.2l-9.8 27.2.1 13.9 69.5-.7-.1-13.9-10.2-26.7a7.774 7.774 0 0 0-12.5-2.9l-14.3 13.4"/><path id="hat_highlight" data-name="hat highlight" class="cls-9" transform="translate(203.9 61.4)" d="M0 .4L42.3 0"/><path id="Cyber_Crime" data-name="Cyber Crime" class="cls-3" d="M10.523-34.078a8.241 8.241 0 0 1 6.153 2.278 8.533 8.533 0 0 1 2.238 6.258v2.086l-5.859.281v-1.828a4.553 4.553 0 0 0-.574-2.59 2.074 2.074 0 0 0-1.816-.809q-2.391 0-2.414 2.93V-8.6q0 2.93 2.414 2.93a2.074 2.074 0 0 0 1.815-.81 4.553 4.553 0 0 0 .574-2.59v-2.344l5.859.281v2.578a8.574 8.574 0 0 1-2.238 6.27A8.217 8.217 0 0 1 10.523 0a8.153 8.153 0 0 1-6.105-2.262A8.611 8.611 0 0 1 2.2-8.555v-16.992a8.569 8.569 0 0 1 2.215-6.281 8.177 8.177 0 0 1 6.108-2.25zm23.414.961h6.281L33.07-14.109V0h-6.047v-14.156l-7.312-18.961h6.445l3.984 11.086zm14.672 14.531h1.477a3.24 3.24 0 0 0 2.578-.879 4.541 4.541 0 0 0 .75-2.941v-1.875a4.322 4.322 0 0 0-.727-2.789 2.894 2.894 0 0 0-2.344-.867h-1.734zm0 12.445h1.336a2.93 2.93 0 0 0 2.145-.621 3.539 3.539 0 0 0 .6-2.4 4.48 4.48 0 0 0-.668-2.789 2.827 2.827 0 0 0-2.309-.82h-1.1zm7.008-9.375A5.2 5.2 0 0 1 58-13.031a11.234 11.234 0 0 1 .738 4.547 7.733 7.733 0 0 1-2.25 5.859 8.811 8.811 0 0 1-6.355 2.156h-7.57v-33.14h7.969a8.907 8.907 0 0 1 6.621 2.332 9.043 9.043 0 0 1 2.309 6.645v1.172a11.875 11.875 0 0 1-.937 5.086 5.758 5.758 0 0 1-2.908 2.858zm14.2-11.93v10.453h7.43l-.961 5.672H69.82v5.648h9.211V0H63.773v-33.117h15.258v5.672zM88.9-11.32V0h-6.048v-33.117h7.828a8.907 8.907 0 0 1 6.62 2.332 9.043 9.043 0 0 1 2.309 6.645v3.84a10.871 10.871 0 0 1-.891 4.582 6.956 6.956 0 0 1-2.625 3.035L100.8 0h-6.37L90.4-11.32zm1.594-5.672a2.888 2.888 0 0 0 2.355-.867 4.374 4.374 0 0 0 .715-2.789v-3.164a4.27 4.27 0 0 0-.727-2.777 2.915 2.915 0 0 0-2.344-.855H88.9v10.453zM10.523 7.922a8.241 8.241 0 0 1 6.153 2.278 8.533 8.533 0 0 1 2.238 6.258v2.086l-5.859.281v-1.833a4.553 4.553 0 0 0-.574-2.59 2.074 2.074 0 0 0-1.816-.809q-2.391 0-2.414 2.93V33.4q0 2.93 2.414 2.93a2.074 2.074 0 0 0 1.816-.809 4.553 4.553 0 0 0 .574-2.59v-2.345l5.859.281v2.578a8.574 8.574 0 0 1-2.238 6.27A8.217 8.217 0 0 1 10.523 42a8.153 8.153 0 0 1-6.105-2.262A8.611 8.611 0 0 1 2.2 33.445V16.453a8.569 8.569 0 0 1 2.215-6.281 8.177 8.177 0 0 1 6.108-2.25zM28.688 30.68V42h-6.047V8.883h7.828a8.907 8.907 0 0 1 6.621 2.332 9.043 9.043 0 0 1 2.31 6.644V21.7a10.871 10.871 0 0 1-.891 4.582 6.956 6.956 0 0 1-2.625 3.035L40.594 42h-6.375l-4.031-11.32zm1.594-5.672a2.888 2.888 0 0 0 2.355-.867 4.374 4.374 0 0 0 .715-2.789v-3.164a4.27 4.27 0 0 0-.727-2.777 2.915 2.915 0 0 0-2.344-.855h-1.593v10.452zM44.3 42V8.883h6.047V42zM71.438 8.883h7.734V42h-6.047V19.148l-4.9 12.281h-1.873l-4.9-12.281V42h-5.741V8.883h7.523l4.125 10.266zm19.289 5.672v10.453h7.43L97.2 30.68h-6.473v5.648h9.211V42H84.68V8.883h15.258v5.672z" transform="translate(82.473 56.221)"/><path id="_1" data-name="1" class="cls-10" d="M57.8 48.8h-12v-13c4.1-.2 7.1-.7 9.1-1.6a9.018 9.018 0 0 0 4.3-3.5c.9-1.4 2.1-6.2 3.5-9.8h12.8v96.6H57.8z"/><path id="_" data-name="#" class="cls-10" d="M22.523-24.914l-.586 5.438h-3.164L18-13.875h3.164l-.516 5.438h-3.187L16.359 0h-5.273l1.1-8.437H9.258L8.156 0H2.883l1.1-8.437H.82l.516-5.437h3.187l.75-5.6H2.109l.591-5.44h3.159l1.055-8.2h5.273l-1.055 8.2h2.93l1.055-8.2h5.273l-1.055 8.2zM9.8-13.875h2.93l.75-5.6h-2.91z" transform="translate(25.473 96.555)"/><path id="is_the" data-name="is the" class="cls-3" d="M1.168 0v-7.856h1.84V0zM2.1-9.232a1.174 1.174 0 0 1-.82-.288.964.964 0 0 1-.32-.752.989.989 0 0 1 .32-.76 1.155 1.155 0 0 1 .816-.3 1.155 1.155 0 0 1 .816.3.989.989 0 0 1 .32.76.964.964 0 0 1-.32.752 1.174 1.174 0 0 1-.812.288zM7.552.192A4.354 4.354 0 0 1 5.944-.12 5.2 5.2 0 0 1 4.576-.9l.864-1.18a5 5 0 0 0 1.048.648 2.737 2.737 0 0 0 1.128.232 1.415 1.415 0 0 0 .944-.264.859.859 0 0 0 .3-.68.669.669 0 0 0-.144-.424 1.383 1.383 0 0 0-.38-.332 3.691 3.691 0 0 0-.544-.264q-.3-.12-.608-.248-.384-.14-.784-.332a3.152 3.152 0 0 1-.712-.464 2.34 2.34 0 0 1-.512-.632 1.736 1.736 0 0 1-.2-.856 2.127 2.127 0 0 1 .768-1.7 3.122 3.122 0 0 1 2.1-.656 3.625 3.625 0 0 1 1.472.288 5.48 5.48 0 0 1 1.136.656L9.6-5.984a4.388 4.388 0 0 0-.84-.488 2.207 2.207 0 0 0-.888-.184A1.29 1.29 0 0 0 7-6.408a.79.79 0 0 0-.28.616.628.628 0 0 0 .136.408 1.26 1.26 0 0 0 .36.3 3.665 3.665 0 0 0 .52.24q.3.112.616.224.4.144.8.328a3.285 3.285 0 0 1 .728.456 2.079 2.079 0 0 1 .528.664 2.037 2.037 0 0 1 .2.936 2.273 2.273 0 0 1-.2.952 2.2 2.2 0 0 1-.584.768 2.844 2.844 0 0 1-.96.52 4.141 4.141 0 0 1-1.312.188zm10.672 0a2.874 2.874 0 0 1-1.16-.208A1.967 1.967 0 0 1 16.3-.6a2.418 2.418 0 0 1-.432-.9 4.586 4.586 0 0 1-.136-1.16V-6.4h-1.12v-1.376l1.216-.08.22-2.144h1.536v2.144h2V-6.4h-2v3.744q0 1.376 1.1 1.376a1.951 1.951 0 0 0 .424-.048 1.988 1.988 0 0 0 .392-.128l.32 1.36A6.124 6.124 0 0 1 19.1.1a4.131 4.131 0 0 1-.876.092zM21.232 0v-11.3h1.84v2.912l-.064 1.52a6.474 6.474 0 0 1 1.1-.824 2.7 2.7 0 0 1 1.416-.36 2.1 2.1 0 0 1 1.84.808 3.947 3.947 0 0 1 .576 2.312V0H26.1v-4.688a2.445 2.445 0 0 0-.288-1.376 1.084 1.084 0 0 0-.944-.4 1.655 1.655 0 0 0-.9.248 5.767 5.767 0 0 0-.888.728V0zM33.52.192A4.075 4.075 0 0 1 32-.088 3.609 3.609 0 0 1 30.768-.9a3.686 3.686 0 0 1-.824-1.288 4.757 4.757 0 0 1-.3-1.736 4.662 4.662 0 0 1 .3-1.728 3.964 3.964 0 0 1 .808-1.3 3.58 3.58 0 0 1 1.16-.816 3.312 3.312 0 0 1 1.344-.288 3.419 3.419 0 0 1 1.408.272 2.747 2.747 0 0 1 1.016.768 3.378 3.378 0 0 1 .62 1.192 5.178 5.178 0 0 1 .208 1.5q0 .272-.024.512a3.41 3.41 0 0 1-.056.384H31.44a2.537 2.537 0 0 0 .744 1.628 2.234 2.234 0 0 0 1.576.568 2.9 2.9 0 0 0 .952-.152 4.231 4.231 0 0 0 .872-.424l.624 1.152a5.65 5.65 0 0 1-1.248.608 4.34 4.34 0 0 1-1.44.24zm-2.1-4.864h3.488A2.33 2.33 0 0 0 34.52-6.1a1.415 1.415 0 0 0-1.208-.52 1.743 1.743 0 0 0-1.232.5 2.352 2.352 0 0 0-.656 1.448z" transform="translate(85.982 116.629)"/><circle id="THE_circle" data-name="THE circle" class="cls-2" cx="20.4" cy="20.4" r="20.4" transform="translate(0 21.3)"/><path id="THE" class="cls-4" d="M3.87 0v-10.008H.468v-1.764H9.36v1.764h-3.4V0zm7.452 0v-11.772h2.088v4.734h4.77v-4.734h2.088V0H18.18v-5.22h-4.77V0zm11.934 0v-11.772h7.092v1.764h-5V-7h4.23v1.764h-4.23v3.474h5.184V0z" transform="translate(5.107 48.201)"/></svg>