<svg xmlns="http://www.w3.org/2000/svg" viewBox="0 0 267.4 187.402"><defs><style>.cls-1,.cls-6{fill:#0e2044}.cls-2{fill:#db2140}.cls-3{fill:#fff}.cls-4{fill:#24539b}.cls-5{fill:#daeaf8}.cls-6,.cls-8{stroke:#0e2044;stroke-linejoin:round;stroke-width:4px}.cls-6,.cls-7,.cls-8{stroke-linecap:round;stroke-miterlimit:10}.cls-7,.cls-8{fill:none}.cls-7{stroke:#fff;stroke-width:2.545px}</style></defs><g id="_65-of-americans-outlined" data-name="65-of-americans-outlined" transform="translate(0 -17.373)"><path id="at_least_one_online_scam_offer" data-name="at least one online scam offer" class="cls-1" d="M3.456.216A2.573 2.573 0 0 1 1.566-.5a2.525 2.525 0 0 1-.72-1.881 2.587 2.587 0 0 1 .3-1.251 2.56 2.56 0 0 1 .936-.945A6.216 6.216 0 0 1 3.7-5.238a14.813 14.813 0 0 1 2.349-.414 3.336 3.336 0 0 0-.1-.657 1.51 1.51 0 0 0-.27-.558 1.256 1.256 0 0 0-.495-.378 1.873 1.873 0 0 0-.756-.135 3.347 3.347 0 0 0-1.269.252 8.534 8.534 0 0 0-1.215.612L1.188-7.9a8.854 8.854 0 0 1 1.656-.81 5.627 5.627 0 0 1 1.98-.342 3.041 3.041 0 0 1 2.476.979 4.317 4.317 0 0 1 .819 2.835V0H6.408l-.144-.972h-.072a6.493 6.493 0 0 1-1.269.846 3.2 3.2 0 0 1-1.467.342zM4.122-1.4a1.942 1.942 0 0 0 .978-.256 5.267 5.267 0 0 0 .945-.72v-1.98a9.448 9.448 0 0 0-1.512.288 4.37 4.37 0 0 0-.99.4 1.443 1.443 0 0 0-.54.513 1.229 1.229 0 0 0-.162.612 1.01 1.01 0 0 0 .36.864 1.488 1.488 0 0 0 .921.279zM13.428.216a3.233 3.233 0 0 1-1.3-.234 2.212 2.212 0 0 1-.864-.657 2.72 2.72 0 0 1-.486-1.008 5.159 5.159 0 0 1-.153-1.3V-7.2H9.36v-1.548l1.368-.09.252-2.412h1.728v2.412h2.25V-7.2h-2.25v4.212q0 1.548 1.242 1.548a2.195 2.195 0 0 0 .477-.054 2.236 2.236 0 0 0 .441-.144l.36 1.53a6.89 6.89 0 0 1-.819.225 4.647 4.647 0 0 1-.981.099zm9 0a1.751 1.751 0 0 1-1.566-.666 3.209 3.209 0 0 1-.45-1.818v-10.44h2.07V-2.16a.771.771 0 0 0 .144.531.42.42 0 0 0 .306.153h.135a.763.763 0 0 0 .189-.036l.27 1.548a2.793 2.793 0 0 1-1.098.18zm6.642 0A4.585 4.585 0 0 1 27.36-.1a4.061 4.061 0 0 1-1.386-.909 4.147 4.147 0 0 1-.927-1.449 5.352 5.352 0 0 1-.333-1.953 5.244 5.244 0 0 1 .342-1.944 4.459 4.459 0 0 1 .909-1.458 4.027 4.027 0 0 1 1.305-.917 3.726 3.726 0 0 1 1.512-.324 3.846 3.846 0 0 1 1.584.306 3.09 3.09 0 0 1 1.143.864 3.8 3.8 0 0 1 .691 1.332 5.825 5.825 0 0 1 .234 1.692q0 .306-.027.576a3.838 3.838 0 0 1-.063.432H26.73a2.854 2.854 0 0 0 .837 1.827 2.513 2.513 0 0 0 1.773.639 3.259 3.259 0 0 0 1.071-.171 4.76 4.76 0 0 0 .981-.477l.7 1.3a6.356 6.356 0 0 1-1.4.684 4.883 4.883 0 0 1-1.622.266zm-2.358-5.472h3.924a2.621 2.621 0 0 0-.441-1.611 1.592 1.592 0 0 0-1.359-.585 1.961 1.961 0 0 0-1.386.558 2.645 2.645 0 0 0-.738 1.638zm9.63 5.472a2.573 2.573 0 0 1-1.89-.716 2.525 2.525 0 0 1-.72-1.881 2.587 2.587 0 0 1 .3-1.251 2.56 2.56 0 0 1 .936-.945 6.216 6.216 0 0 1 1.62-.666 14.813 14.813 0 0 1 2.349-.414 3.336 3.336 0 0 0-.1-.657 1.51 1.51 0 0 0-.27-.558 1.256 1.256 0 0 0-.5-.378 1.873 1.873 0 0 0-.756-.135 3.347 3.347 0 0 0-1.269.252 8.534 8.534 0 0 0-1.215.612L34.074-7.9a8.854 8.854 0 0 1 1.656-.81 5.627 5.627 0 0 1 1.98-.342 3.041 3.041 0 0 1 2.475.981A4.317 4.317 0 0 1 41-5.238V0h-1.71l-.14-.972h-.072a6.493 6.493 0 0 1-1.269.846 3.2 3.2 0 0 1-1.467.342zm.666-1.62a1.942 1.942 0 0 0 .981-.252 5.267 5.267 0 0 0 .945-.72v-1.98a9.448 9.448 0 0 0-1.512.288 4.37 4.37 0 0 0-.99.4 1.443 1.443 0 0 0-.54.513 1.229 1.229 0 0 0-.162.612 1.01 1.01 0 0 0 .36.864 1.488 1.488 0 0 0 .918.279zm8.946 1.62a4.9 4.9 0 0 1-1.809-.351 5.853 5.853 0 0 1-1.539-.873l.972-1.332a5.619 5.619 0 0 0 1.179.729 3.079 3.079 0 0 0 1.269.261 1.592 1.592 0 0 0 1.062-.3.967.967 0 0 0 .342-.765.752.752 0 0 0-.162-.477 1.556 1.556 0 0 0-.432-.369 4.153 4.153 0 0 0-.612-.3q-.342-.135-.684-.279-.432-.162-.882-.378a3.546 3.546 0 0 1-.8-.522 2.633 2.633 0 0 1-.576-.711 1.953 1.953 0 0 1-.225-.963 2.393 2.393 0 0 1 .864-1.908 3.513 3.513 0 0 1 2.358-.738 4.078 4.078 0 0 1 1.656.324 6.165 6.165 0 0 1 1.278.738l-.954 1.26a4.937 4.937 0 0 0-.945-.549 2.483 2.483 0 0 0-1-.207 1.451 1.451 0 0 0-.981.279.888.888 0 0 0-.315.693.706.706 0 0 0 .153.459 1.417 1.417 0 0 0 .4.333 4.123 4.123 0 0 0 .585.27q.333.126.693.252.45.162.9.369a3.7 3.7 0 0 1 .819.513 2.339 2.339 0 0 1 .594.747 2.292 2.292 0 0 1 .225 1.053 2.557 2.557 0 0 1-.225 1.071 2.474 2.474 0 0 1-.657.864A3.2 3.2 0 0 1 47.43 0a4.659 4.659 0 0 1-1.476.216zm8.046 0a3.233 3.233 0 0 1-1.305-.234 2.212 2.212 0 0 1-.864-.657 2.72 2.72 0 0 1-.486-1.008 5.159 5.159 0 0 1-.153-1.3V-7.2h-1.26v-1.548l1.368-.09.252-2.412h1.728v2.412h2.25V-7.2h-2.25v4.212q0 1.548 1.242 1.548A2.195 2.195 0 0 0 55-1.494a2.236 2.236 0 0 0 .441-.144l.36 1.53a6.89 6.89 0 0 1-.819.225A4.647 4.647 0 0 1 54 .216zm10.6 0a4.182 4.182 0 0 1-1.582-.306 3.941 3.941 0 0 1-1.341-.9 4.306 4.306 0 0 1-.927-1.458 5.3 5.3 0 0 1-.342-1.962 5.3 5.3 0 0 1 .342-1.962 4.306 4.306 0 0 1 .927-1.458 4.055 4.055 0 0 1 1.341-.909 4.078 4.078 0 0 1 1.582-.315 4.144 4.144 0 0 1 1.593.315 3.936 3.936 0 0 1 1.341.909 4.5 4.5 0 0 1 .927 1.458 5.176 5.176 0 0 1 .351 1.962 5.176 5.176 0 0 1-.351 1.962 4.5 4.5 0 0 1-.925 1.458 3.829 3.829 0 0 1-1.341.9A4.251 4.251 0 0 1 64.6.216zm0-1.692a1.767 1.767 0 0 0 1.53-.8 3.665 3.665 0 0 0 .56-2.134 3.7 3.7 0 0 0-.558-2.151 1.767 1.767 0 0 0-1.53-.8 1.744 1.744 0 0 0-1.521.8 3.746 3.746 0 0 0-.549 2.151 3.71 3.71 0 0 0 .549 2.133 1.744 1.744 0 0 0 1.519.801zM70.866 0v-8.838h1.71l.144 1.188h.072a7.007 7.007 0 0 1 1.287-.99 3.081 3.081 0 0 1 1.611-.414 2.367 2.367 0 0 1 2.07.909 4.441 4.441 0 0 1 .648 2.6V0h-2.07v-5.274a2.75 2.75 0 0 0-.324-1.548 1.219 1.219 0 0 0-1.062-.45 1.861 1.861 0 0 0-1.017.279 6.488 6.488 0 0 0-1 .819V0zm13.86.216a4.585 4.585 0 0 1-1.71-.316 4.061 4.061 0 0 1-1.386-.909 4.147 4.147 0 0 1-.93-1.448 5.352 5.352 0 0 1-.33-1.953 5.244 5.244 0 0 1 .342-1.944 4.459 4.459 0 0 1 .909-1.458 4.027 4.027 0 0 1 1.305-.918 3.726 3.726 0 0 1 1.512-.324 3.846 3.846 0 0 1 1.584.306 3.09 3.09 0 0 1 1.143.864 3.8 3.8 0 0 1 .693 1.332 5.825 5.825 0 0 1 .234 1.692q0 .306-.027.576a3.838 3.838 0 0 1-.065.432h-5.614a2.854 2.854 0 0 0 .837 1.827A2.513 2.513 0 0 0 85-1.386a3.259 3.259 0 0 0 1.071-.171 4.76 4.76 0 0 0 .981-.477l.7 1.3a6.356 6.356 0 0 1-1.4.684 4.883 4.883 0 0 1-1.626.266zm-2.358-5.472h3.924a2.621 2.621 0 0 0-.441-1.611 1.592 1.592 0 0 0-1.359-.585 1.961 1.961 0 0 0-1.386.558 2.645 2.645 0 0 0-.738 1.638zM97.29.216a4.182 4.182 0 0 1-1.584-.306 3.941 3.941 0 0 1-1.341-.9 4.306 4.306 0 0 1-.927-1.458A5.3 5.3 0 0 1 93.1-4.41a5.3 5.3 0 0 1 .342-1.962 4.306 4.306 0 0 1 .927-1.458 4.055 4.055 0 0 1 1.341-.909 4.078 4.078 0 0 1 1.584-.315 4.144 4.144 0 0 1 1.593.315 3.936 3.936 0 0 1 1.341.909 4.5 4.5 0 0 1 .927 1.458 5.176 5.176 0 0 1 .345 1.962 5.176 5.176 0 0 1-.351 1.962 4.5 4.5 0 0 1-.927 1.458 3.829 3.829 0 0 1-1.341.9 4.251 4.251 0 0 1-1.591.306zm0-1.692a1.767 1.767 0 0 0 1.53-.8 3.665 3.665 0 0 0 .558-2.133 3.7 3.7 0 0 0-.558-2.151 1.767 1.767 0 0 0-1.53-.8 1.744 1.744 0 0 0-1.521.8 3.746 3.746 0 0 0-.549 2.15 3.71 3.71 0 0 0 .549 2.133 1.744 1.744 0 0 0 1.521.801zM103.554 0v-8.838h1.71l.144 1.188h.072a7.007 7.007 0 0 1 1.287-.99 3.081 3.081 0 0 1 1.611-.414 2.367 2.367 0 0 1 2.07.909 4.441 4.441 0 0 1 .648 2.6V0h-2.07v-5.274a2.75 2.75 0 0 0-.324-1.548 1.219 1.219 0 0 0-1.062-.45 1.861 1.861 0 0 0-1.017.279 6.488 6.488 0 0 0-1 .819V0zm12.1.216a1.751 1.751 0 0 1-1.566-.666 3.209 3.209 0 0 1-.45-1.818v-10.44h2.07V-2.16a.771.771 0 0 0 .144.531.42.42 0 0 0 .306.153h.135a.763.763 0 0 0 .189-.036l.27 1.548a2.793 2.793 0 0 1-1.102.18zM118.512 0v-8.838h2.07V0zm1.044-10.386a1.32 1.32 0 0 1-.918-.324 1.085 1.085 0 0 1-.36-.846 1.112 1.112 0 0 1 .36-.855 1.3 1.3 0 0 1 .918-.333 1.3 1.3 0 0 1 .918.333 1.112 1.112 0 0 1 .36.855 1.085 1.085 0 0 1-.36.846 1.32 1.32 0 0 1-.918.324zM123.228 0v-8.838h1.71l.144 1.188h.072a7.007 7.007 0 0 1 1.287-.99 3.081 3.081 0 0 1 1.611-.414 2.367 2.367 0 0 1 2.07.909 4.441 4.441 0 0 1 .648 2.6V0h-2.07v-5.274a2.75 2.75 0 0 0-.324-1.548 1.219 1.219 0 0 0-1.062-.45 1.861 1.861 0 0 0-1.017.279 6.488 6.488 0 0 0-1 .819V0zm13.86.216a4.585 4.585 0 0 1-1.71-.315 4.06 4.06 0 0 1-1.386-.909 4.147 4.147 0 0 1-.927-1.449 5.352 5.352 0 0 1-.333-1.953 5.244 5.244 0 0 1 .342-1.944 4.459 4.459 0 0 1 .909-1.458 4.027 4.027 0 0 1 1.305-.918 3.726 3.726 0 0 1 1.512-.324 3.846 3.846 0 0 1 1.584.306 3.09 3.09 0 0 1 1.143.864 3.8 3.8 0 0 1 .693 1.332 5.825 5.825 0 0 1 .234 1.692q0 .306-.027.576a3.834 3.834 0 0 1-.063.432h-5.616a2.854 2.854 0 0 0 .837 1.827 2.513 2.513 0 0 0 1.773.639 3.259 3.259 0 0 0 1.071-.171 4.76 4.76 0 0 0 .981-.477l.7 1.3a6.356 6.356 0 0 1-1.4.684 4.883 4.883 0 0 1-1.622.266zm-2.358-5.472h3.924a2.621 2.621 0 0 0-.441-1.611 1.592 1.592 0 0 0-1.359-.585 1.961 1.961 0 0 0-1.386.558 2.646 2.646 0 0 0-.738 1.638zM148.5.216a4.9 4.9 0 0 1-1.809-.351 5.853 5.853 0 0 1-1.539-.873l.972-1.332a5.619 5.619 0 0 0 1.179.729 3.079 3.079 0 0 0 1.269.261 1.592 1.592 0 0 0 1.062-.3.967.967 0 0 0 .342-.765.752.752 0 0 0-.162-.477 1.556 1.556 0 0 0-.432-.369 4.153 4.153 0 0 0-.612-.3q-.342-.135-.684-.279-.432-.162-.882-.378a3.545 3.545 0 0 1-.8-.522 2.633 2.633 0 0 1-.576-.711 1.953 1.953 0 0 1-.225-.963 2.393 2.393 0 0 1 .864-1.908 3.513 3.513 0 0 1 2.358-.738 4.078 4.078 0 0 1 1.656.324 6.165 6.165 0 0 1 1.278.738l-.954 1.26a4.937 4.937 0 0 0-.945-.549 2.483 2.483 0 0 0-1-.207 1.451 1.451 0 0 0-.981.279.888.888 0 0 0-.315.693.706.706 0 0 0 .153.459 1.417 1.417 0 0 0 .4.333 4.124 4.124 0 0 0 .585.27q.333.126.693.252.45.162.9.369a3.7 3.7 0 0 1 .819.513 2.339 2.339 0 0 1 .594.747 2.292 2.292 0 0 1 .225 1.053 2.557 2.557 0 0 1-.225 1.071 2.474 2.474 0 0 1-.657.864 3.2 3.2 0 0 1-1.08.585 4.659 4.659 0 0 1-1.471.222zm8.982 0A4.583 4.583 0 0 1 155.8-.09a3.792 3.792 0 0 1-1.359-.9 4.162 4.162 0 0 1-.9-1.458 5.56 5.56 0 0 1-.324-1.962 5.061 5.061 0 0 1 .36-1.962 4.313 4.313 0 0 1 .972-1.458 4.232 4.232 0 0 1 1.413-.909 4.557 4.557 0 0 1 1.683-.315 3.506 3.506 0 0 1 1.485.288 4.828 4.828 0 0 1 1.107.7l-1.008 1.35a3.428 3.428 0 0 0-.711-.477 1.723 1.723 0 0 0-.765-.171 2.161 2.161 0 0 0-1.746.8 3.259 3.259 0 0 0-.666 2.151A3.259 3.259 0 0 0 156-2.277a2.1 2.1 0 0 0 1.7.8 2.2 2.2 0 0 0 .981-.225 4.408 4.408 0 0 0 .837-.531l.846 1.368a4.406 4.406 0 0 1-1.377.81 4.394 4.394 0 0 1-1.505.271zm6.588 0a2.573 2.573 0 0 1-1.89-.716 2.525 2.525 0 0 1-.72-1.881 2.587 2.587 0 0 1 .3-1.251 2.56 2.56 0 0 1 .936-.945 6.216 6.216 0 0 1 1.62-.666 14.813 14.813 0 0 1 2.349-.414 3.336 3.336 0 0 0-.1-.657 1.51 1.51 0 0 0-.27-.558 1.256 1.256 0 0 0-.495-.378 1.873 1.873 0 0 0-.756-.135 3.347 3.347 0 0 0-1.269.252 8.533 8.533 0 0 0-1.215.612L161.8-7.9a8.854 8.854 0 0 1 1.656-.81 5.627 5.627 0 0 1 1.98-.342 3.041 3.041 0 0 1 2.475.981 4.317 4.317 0 0 1 .819 2.835V0h-1.71l-.144-.972h-.072a6.493 6.493 0 0 1-1.269.846 3.2 3.2 0 0 1-1.465.342zm.666-1.62a1.942 1.942 0 0 0 .981-.252 5.267 5.267 0 0 0 .945-.72v-1.98a9.449 9.449 0 0 0-1.512.288 4.37 4.37 0 0 0-.99.4 1.443 1.443 0 0 0-.54.513 1.229 1.229 0 0 0-.162.612 1.01 1.01 0 0 0 .36.864 1.488 1.488 0 0 0 .918.279zm6.48 1.4v-8.834h1.71l.144 1.206h.072a6.2 6.2 0 0 1 1.215-1.008 2.727 2.727 0 0 1 1.485-.414 2.643 2.643 0 0 1 1.557.414 2.57 2.57 0 0 1 .891 1.17 7.11 7.11 0 0 1 1.31-1.13 2.723 2.723 0 0 1 1.53-.45 2.4 2.4 0 0 1 2.07.909 4.349 4.349 0 0 1 .666 2.6V0h-2.088v-5.274a2.69 2.69 0 0 0-.333-1.548 1.182 1.182 0 0 0-1.017-.45 2.784 2.784 0 0 0-1.854 1.1V0h-2.07v-5.274a2.69 2.69 0 0 0-.333-1.548 1.2 1.2 0 0 0-1.035-.45 2.784 2.784 0 0 0-1.854 1.1V0zm22.392.216a4.182 4.182 0 0 1-1.584-.306 3.941 3.941 0 0 1-1.341-.9 4.306 4.306 0 0 1-.927-1.458 5.3 5.3 0 0 1-.342-1.962 5.3 5.3 0 0 1 .342-1.962 4.306 4.306 0 0 1 .927-1.458 4.055 4.055 0 0 1 1.341-.909 4.078 4.078 0 0 1 1.584-.315 4.144 4.144 0 0 1 1.593.315 3.936 3.936 0 0 1 1.341.909 4.5 4.5 0 0 1 .927 1.458 5.176 5.176 0 0 1 .351 1.962 5.176 5.176 0 0 1-.351 1.962 4.5 4.5 0 0 1-.927 1.458 3.829 3.829 0 0 1-1.341.9 4.251 4.251 0 0 1-1.593.31zm0-1.692a1.767 1.767 0 0 0 1.53-.8 3.665 3.665 0 0 0 .562-2.13 3.7 3.7 0 0 0-.558-2.151 1.767 1.767 0 0 0-1.53-.8 1.744 1.744 0 0 0-1.521.8 3.746 3.746 0 0 0-.549 2.151 3.71 3.71 0 0 0 .549 2.133 1.744 1.744 0 0 0 1.517.801zM205.578 0v-7.2h-3.348V0h-2.07v-7.2h-1.188v-1.548l1.188-.09v-.774a4.206 4.206 0 0 1 .18-1.26 2.657 2.657 0 0 1 .549-.99 2.5 2.5 0 0 1 .945-.648 3.68 3.68 0 0 1 1.386-.234 4.858 4.858 0 0 1 .954.09 3.7 3.7 0 0 1 .774.234l-.4 1.548a2.119 2.119 0 0 0-.5-.18 2.969 2.969 0 0 0-.612-.054 1.114 1.114 0 0 0-.882.369 1.668 1.668 0 0 0-.324 1.125v.774h3.348v-.918a4.741 4.741 0 0 1 .162-1.269 2.673 2.673 0 0 1 .513-1.008 2.337 2.337 0 0 1 .9-.657 3.419 3.419 0 0 1 1.341-.234 4.236 4.236 0 0 1 .9.09 4.3 4.3 0 0 1 .72.216l-.4 1.548a2.255 2.255 0 0 0-.954-.216q-1.116 0-1.116 1.494v.954h1.728V-7.2h-1.728V0zm8.946.216a4.585 4.585 0 0 1-1.71-.315 4.06 4.06 0 0 1-1.386-.909 4.147 4.147 0 0 1-.927-1.449 5.352 5.352 0 0 1-.333-1.953 5.244 5.244 0 0 1 .342-1.944 4.459 4.459 0 0 1 .909-1.458 4.027 4.027 0 0 1 1.305-.918 3.726 3.726 0 0 1 1.512-.324 3.846 3.846 0 0 1 1.584.306 3.09 3.09 0 0 1 1.143.864 3.8 3.8 0 0 1 .693 1.332 5.825 5.825 0 0 1 .234 1.692q0 .306-.027.576a3.834 3.834 0 0 1-.063.432h-5.616a2.854 2.854 0 0 0 .837 1.827 2.513 2.513 0 0 0 1.773.639 3.259 3.259 0 0 0 1.071-.171 4.76 4.76 0 0 0 .981-.477l.7 1.3a6.356 6.356 0 0 1-1.4.684 4.883 4.883 0 0 1-1.622.266zm-2.358-5.472h3.924a2.621 2.621 0 0 0-.441-1.611 1.592 1.592 0 0 0-1.359-.585 1.961 1.961 0 0 0-1.386.558 2.646 2.646 0 0 0-.738 1.638zM219.87 0v-8.838h1.71l.144 1.566h.072A3.71 3.71 0 0 1 222.93-8.6a2.384 2.384 0 0 1 1.368-.459 2.369 2.369 0 0 1 1.008.18l-.36 1.8a3.778 3.778 0 0 0-.432-.108 2.774 2.774 0 0 0-.486-.036 1.929 1.929 0 0 0-1.1.4 3.129 3.129 0 0 0-.99 1.413V0zm6.57.216a1.292 1.292 0 0 1-.963-.4 1.383 1.383 0 0 1-.387-1.008 1.383 1.383 0 0 1 .387-1.008 1.292 1.292 0 0 1 .963-.4 1.263 1.263 0 0 1 .954.4 1.4 1.4 0 0 1 .378 1.008 1.4 1.4 0 0 1-.378 1.008 1.263 1.263 0 0 1-.954.4z" transform="translate(26.96 204.56)"/><path id="who_went_online_recieve" data-name="who went online recieve" class="cls-1" d="M2.772 0L.432-8.838H2.52l1.062 4.59q.144.63.243 1.26T4.05-1.71h.072q.126-.648.261-1.278t.3-1.26l1.152-4.59h1.89l1.17 4.59q.162.63.306 1.26t.285 1.278h.072q.126-.648.234-1.278t.234-1.26l1.062-4.59h1.944L10.782 0H8.316L7.29-4.122q-.144-.63-.27-1.251T6.75-6.7h-.072q-.126.7-.252 1.332T6.156-4.1L5.148 0zm12.006 0v-12.708h2.07v3.276l-.072 1.71a7.283 7.283 0 0 1 1.233-.927 3.038 3.038 0 0 1 1.591-.405 2.367 2.367 0 0 1 2.07.909 4.441 4.441 0 0 1 .648 2.6V0H20.25v-5.274a2.75 2.75 0 0 0-.324-1.548 1.219 1.219 0 0 0-1.062-.45 1.861 1.861 0 0 0-1.017.279 6.488 6.488 0 0 0-1 .819V0zM28.44.216a4.182 4.182 0 0 1-1.584-.306 3.941 3.941 0 0 1-1.341-.9 4.306 4.306 0 0 1-.927-1.458 5.3 5.3 0 0 1-.342-1.962 5.3 5.3 0 0 1 .342-1.962 4.306 4.306 0 0 1 .927-1.458 4.055 4.055 0 0 1 1.341-.909 4.078 4.078 0 0 1 1.584-.315 4.144 4.144 0 0 1 1.593.315 3.936 3.936 0 0 1 1.341.909 4.5 4.5 0 0 1 .926 1.458 5.176 5.176 0 0 1 .351 1.962 5.176 5.176 0 0 1-.351 1.962 4.5 4.5 0 0 1-.926 1.458 3.829 3.829 0 0 1-1.341.9 4.251 4.251 0 0 1-1.593.306zm0-1.692a1.767 1.767 0 0 0 1.53-.8 3.665 3.665 0 0 0 .558-2.133 3.7 3.7 0 0 0-.558-2.151 1.767 1.767 0 0 0-1.53-.8 1.744 1.744 0 0 0-1.521.8 3.746 3.746 0 0 0-.549 2.15 3.71 3.71 0 0 0 .549 2.133 1.744 1.744 0 0 0 1.521.801zM39.762 0l-2.34-8.838h2.088l1.062 4.59q.144.63.243 1.26t.225 1.278h.072q.126-.648.261-1.278t.3-1.26l1.152-4.59h1.89l1.17 4.59q.162.63.306 1.26t.288 1.278h.072q.126-.648.234-1.278t.234-1.26l1.062-4.59h1.944L47.772 0h-2.466L44.28-4.122q-.144-.63-.27-1.251T43.74-6.7h-.072q-.126.7-.252 1.332t-.27 1.26L42.138 0zM55.44.216A4.585 4.585 0 0 1 53.73-.1a4.06 4.06 0 0 1-1.386-.909 4.147 4.147 0 0 1-.927-1.449 5.352 5.352 0 0 1-.333-1.953 5.244 5.244 0 0 1 .342-1.944 4.459 4.459 0 0 1 .909-1.458 4.027 4.027 0 0 1 1.305-.917 3.726 3.726 0 0 1 1.512-.324 3.846 3.846 0 0 1 1.584.306 3.09 3.09 0 0 1 1.143.864 3.8 3.8 0 0 1 .693 1.332 5.825 5.825 0 0 1 .234 1.692q0 .306-.027.576a3.838 3.838 0 0 1-.063.432H53.1a2.854 2.854 0 0 0 .837 1.827 2.513 2.513 0 0 0 1.773.639 3.259 3.259 0 0 0 1.071-.171 4.76 4.76 0 0 0 .981-.477l.7 1.3a6.356 6.356 0 0 1-1.4.684 4.883 4.883 0 0 1-1.622.266zm-2.358-5.472h3.924a2.621 2.621 0 0 0-.441-1.611 1.592 1.592 0 0 0-1.359-.585 1.961 1.961 0 0 0-1.386.558 2.645 2.645 0 0 0-.738 1.638zM60.786 0v-8.838H62.5l.14 1.188h.072A7.007 7.007 0 0 1 64-8.64a3.081 3.081 0 0 1 1.611-.414 2.367 2.367 0 0 1 2.07.909 4.441 4.441 0 0 1 .648 2.6V0h-2.07v-5.274a2.75 2.75 0 0 0-.324-1.548 1.219 1.219 0 0 0-1.062-.45 1.861 1.861 0 0 0-1.017.279 6.488 6.488 0 0 0-1 .819V0zM73.98.216a3.233 3.233 0 0 1-1.305-.234 2.212 2.212 0 0 1-.864-.657 2.72 2.72 0 0 1-.486-1.008 5.159 5.159 0 0 1-.153-1.3V-7.2h-1.26v-1.548l1.368-.09.252-2.412h1.728v2.412h2.25V-7.2h-2.25v4.212q0 1.548 1.242 1.548a2.195 2.195 0 0 0 .477-.054 2.236 2.236 0 0 0 .441-.144l.36 1.53a6.89 6.89 0 0 1-.819.225 4.647 4.647 0 0 1-.981.099zm10.6 0A4.182 4.182 0 0 1 83-.09a3.941 3.941 0 0 1-1.341-.9 4.306 4.306 0 0 1-.927-1.458 5.3 5.3 0 0 1-.342-1.962 5.3 5.3 0 0 1 .342-1.962 4.306 4.306 0 0 1 .927-1.458A4.055 4.055 0 0 1 83-8.739a4.078 4.078 0 0 1 1.584-.315 4.144 4.144 0 0 1 1.593.315 3.936 3.936 0 0 1 1.341.909 4.5 4.5 0 0 1 .927 1.458 5.176 5.176 0 0 1 .351 1.962 5.176 5.176 0 0 1-.351 1.962 4.5 4.5 0 0 1-.929 1.458 3.829 3.829 0 0 1-1.341.9 4.251 4.251 0 0 1-1.593.306zm0-1.692a1.767 1.767 0 0 0 1.53-.8 3.665 3.665 0 0 0 .56-2.134 3.7 3.7 0 0 0-.558-2.151 1.767 1.767 0 0 0-1.53-.8 1.744 1.744 0 0 0-1.521.8 3.746 3.746 0 0 0-.549 2.151 3.71 3.71 0 0 0 .549 2.133 1.744 1.744 0 0 0 1.521.801zM90.846 0v-8.838h1.71L92.7-7.65h.072a7.007 7.007 0 0 1 1.287-.99 3.081 3.081 0 0 1 1.611-.414 2.367 2.367 0 0 1 2.07.909 4.441 4.441 0 0 1 .648 2.6V0h-2.07v-5.274a2.75 2.75 0 0 0-.324-1.548 1.219 1.219 0 0 0-1.062-.45 1.861 1.861 0 0 0-1.017.279 6.488 6.488 0 0 0-1 .819V0zm12.1.216a1.751 1.751 0 0 1-1.566-.666 3.209 3.209 0 0 1-.45-1.818v-10.44H103V-2.16a.771.771 0 0 0 .144.531.42.42 0 0 0 .306.153h.135a.763.763 0 0 0 .189-.036l.27 1.548a2.793 2.793 0 0 1-1.102.18zM105.8 0v-8.838h2.07V0zm1.044-10.386a1.32 1.32 0 0 1-.918-.324 1.085 1.085 0 0 1-.36-.846 1.112 1.112 0 0 1 .36-.855 1.3 1.3 0 0 1 .918-.333 1.3 1.3 0 0 1 .918.333 1.112 1.112 0 0 1 .36.855 1.085 1.085 0 0 1-.36.846 1.32 1.32 0 0 1-.914.324zM110.52 0v-8.838h1.71l.144 1.188h.072a7.007 7.007 0 0 1 1.287-.99 3.081 3.081 0 0 1 1.611-.414 2.367 2.367 0 0 1 2.07.909 4.441 4.441 0 0 1 .648 2.6V0h-2.07v-5.274a2.75 2.75 0 0 0-.324-1.548 1.219 1.219 0 0 0-1.062-.45 1.861 1.861 0 0 0-1.017.279 6.488 6.488 0 0 0-1 .819V0zm13.86.216a4.585 4.585 0 0 1-1.71-.316 4.061 4.061 0 0 1-1.386-.909 4.147 4.147 0 0 1-.927-1.449 5.352 5.352 0 0 1-.333-1.953 5.244 5.244 0 0 1 .342-1.944 4.459 4.459 0 0 1 .909-1.458 4.027 4.027 0 0 1 1.305-.918 3.726 3.726 0 0 1 1.512-.324 3.846 3.846 0 0 1 1.584.306 3.09 3.09 0 0 1 1.143.864 3.8 3.8 0 0 1 .693 1.332 5.825 5.825 0 0 1 .234 1.692q0 .306-.027.576a3.838 3.838 0 0 1-.063.432h-5.616a2.854 2.854 0 0 0 .837 1.827 2.513 2.513 0 0 0 1.773.639 3.259 3.259 0 0 0 1.071-.171 4.76 4.76 0 0 0 .981-.477l.7 1.3a6.356 6.356 0 0 1-1.4.684 4.883 4.883 0 0 1-1.622.267zm-2.358-5.472h3.924a2.621 2.621 0 0 0-.441-1.611 1.592 1.592 0 0 0-1.359-.585 1.961 1.961 0 0 0-1.386.558 2.645 2.645 0 0 0-.738 1.638zM133.326 0v-8.838h1.71l.144 1.566h.072a3.71 3.71 0 0 1 1.134-1.328 2.384 2.384 0 0 1 1.368-.459 2.369 2.369 0 0 1 1.008.18l-.36 1.8a3.778 3.778 0 0 0-.432-.108 2.774 2.774 0 0 0-.486-.036 1.929 1.929 0 0 0-1.1.4A3.129 3.129 0 0 0 135.4-5.4V0zm10.314.216a4.585 4.585 0 0 1-1.71-.316 4.06 4.06 0 0 1-1.386-.909 4.147 4.147 0 0 1-.927-1.449 5.352 5.352 0 0 1-.333-1.953 5.244 5.244 0 0 1 .342-1.944 4.459 4.459 0 0 1 .909-1.458 4.027 4.027 0 0 1 1.305-.918 3.726 3.726 0 0 1 1.512-.324 3.846 3.846 0 0 1 1.584.306 3.09 3.09 0 0 1 1.143.864 3.8 3.8 0 0 1 .693 1.332 5.825 5.825 0 0 1 .234 1.692q0 .306-.027.576a3.834 3.834 0 0 1-.063.432H141.3a2.854 2.854 0 0 0 .837 1.827 2.513 2.513 0 0 0 1.773.639 3.259 3.259 0 0 0 1.071-.171 4.76 4.76 0 0 0 .981-.477l.7 1.3a6.356 6.356 0 0 1-1.4.684 4.883 4.883 0 0 1-1.622.267zm-2.358-5.472h3.924a2.621 2.621 0 0 0-.441-1.611 1.592 1.592 0 0 0-1.359-.585 1.961 1.961 0 0 0-1.386.558 2.646 2.646 0 0 0-.738 1.638zM152.676.216a4.583 4.583 0 0 1-1.683-.306 3.792 3.792 0 0 1-1.359-.9 4.162 4.162 0 0 1-.9-1.458 5.56 5.56 0 0 1-.324-1.962 5.061 5.061 0 0 1 .36-1.962 4.313 4.313 0 0 1 .972-1.458 4.232 4.232 0 0 1 1.413-.909 4.557 4.557 0 0 1 1.683-.315 3.506 3.506 0 0 1 1.485.288 4.828 4.828 0 0 1 1.107.7l-1.008 1.35a3.428 3.428 0 0 0-.711-.477 1.723 1.723 0 0 0-.765-.171 2.161 2.161 0 0 0-1.746.8 3.259 3.259 0 0 0-.666 2.151 3.259 3.259 0 0 0 .657 2.133 2.1 2.1 0 0 0 1.7.8 2.2 2.2 0 0 0 .981-.225 4.408 4.408 0 0 0 .837-.531l.846 1.368a4.406 4.406 0 0 1-1.377.81 4.394 4.394 0 0 1-1.502.274zm7.974 0a4.585 4.585 0 0 1-1.71-.316 4.06 4.06 0 0 1-1.386-.909 4.147 4.147 0 0 1-.927-1.449 5.352 5.352 0 0 1-.333-1.953 5.244 5.244 0 0 1 .342-1.944 4.459 4.459 0 0 1 .909-1.458 4.027 4.027 0 0 1 1.305-.918 3.726 3.726 0 0 1 1.512-.324 3.846 3.846 0 0 1 1.584.306 3.09 3.09 0 0 1 1.143.864 3.8 3.8 0 0 1 .693 1.332 5.825 5.825 0 0 1 .234 1.692q0 .306-.027.576a3.834 3.834 0 0 1-.063.432h-5.616a2.854 2.854 0 0 0 .837 1.827 2.513 2.513 0 0 0 1.773.639 3.259 3.259 0 0 0 1.071-.171 4.76 4.76 0 0 0 .981-.477l.7 1.3a6.356 6.356 0 0 1-1.4.684 4.883 4.883 0 0 1-1.622.267zm-2.358-5.472h3.924a2.621 2.621 0 0 0-.441-1.611 1.592 1.592 0 0 0-1.359-.585 1.961 1.961 0 0 0-1.386.558 2.646 2.646 0 0 0-.738 1.638zM166 0v-8.838h2.07V0zm1.044-10.386a1.32 1.32 0 0 1-.918-.324 1.085 1.085 0 0 1-.36-.846 1.112 1.112 0 0 1 .36-.855 1.3 1.3 0 0 1 .918-.333 1.3 1.3 0 0 1 .918.333 1.112 1.112 0 0 1 .36.855 1.085 1.085 0 0 1-.36.846 1.32 1.32 0 0 1-.922.324zM172.692 0l-3.078-8.838h2.106l1.4 4.59q.18.648.369 1.314t.369 1.35h.072q.2-.684.378-1.35t.378-1.314l1.4-4.59h2l-3 8.838zm10.6.216a4.585 4.585 0 0 1-1.71-.315 4.06 4.06 0 0 1-1.386-.909 4.147 4.147 0 0 1-.927-1.449 5.352 5.352 0 0 1-.333-1.953 5.244 5.244 0 0 1 .342-1.944 4.459 4.459 0 0 1 .909-1.458 4.027 4.027 0 0 1 1.305-.918 3.726 3.726 0 0 1 1.512-.324 3.846 3.846 0 0 1 1.584.306 3.09 3.09 0 0 1 1.143.864 3.8 3.8 0 0 1 .693 1.332 5.825 5.825 0 0 1 .234 1.692q0 .306-.027.576a3.834 3.834 0 0 1-.063.432h-5.616a2.854 2.854 0 0 0 .837 1.827 2.513 2.513 0 0 0 1.773.639 3.259 3.259 0 0 0 1.071-.171 4.76 4.76 0 0 0 .981-.477l.7 1.3a6.356 6.356 0 0 1-1.4.684 4.883 4.883 0 0 1-1.62.266zm-2.358-5.472h3.924a2.621 2.621 0 0 0-.441-1.611 1.592 1.592 0 0 0-1.359-.585 1.961 1.961 0 0 0-1.386.558 2.646 2.646 0 0 0-.736 1.638zm10.8 5.472A3.233 3.233 0 0 1 189.081-1a5.3 5.3 0 0 1-.981-3.41 5.646 5.646 0 0 1 .315-1.944 4.534 4.534 0 0 1 .837-1.458 3.74 3.74 0 0 1 1.2-.918 3.188 3.188 0 0 1 1.4-.324 2.837 2.837 0 0 1 1.278.261 5.118 5.118 0 0 1 1.044.711l-.08-1.418v-3.2h2.07V0h-1.71l-.144-.954h-.072a4.679 4.679 0 0 1-1.134.828 2.89 2.89 0 0 1-1.368.342zm.5-1.71a2.469 2.469 0 0 0 1.854-.99v-4.122a2.928 2.928 0 0 0-.909-.576 2.567 2.567 0 0 0-.891-.162 1.793 1.793 0 0 0-1.458.756 3.428 3.428 0 0 0-.594 2.16 3.862 3.862 0 0 0 .513 2.187 1.69 1.69 0 0 0 1.491.747z" transform="translate(42.26 183.56)"/><path id="Americans" class="cls-2" d="M17.578 0l-.85-5.273H9.492L8.7 0H1.2l7.443-41.4H17.7L25.2 0zm-1.846-12.246l-2.578-16.67-2.724 16.67zM49.365-41.4h9.668V0h-7.558v-28.564l-6.123 15.351h-2.344l-6.123-15.351V0h-7.178v-41.4h9.4l5.156 12.832zm24.111 7.09v13.07h9.287l-1.2 7.09h-8.086v7.06H84.99V0H65.918v-41.4H84.99v7.09zm23.848 20.16V0h-7.558v-41.4h9.785q5.391 0 8.276 2.915t2.886 8.306v4.8a13.589 13.589 0 0 1-1.113 5.728 8.7 8.7 0 0 1-3.281 3.794L112.207 0h-7.969L99.2-14.15zm1.992-7.09a3.61 3.61 0 0 0 2.944-1.084 5.468 5.468 0 0 0 .894-3.486v-3.955a5.338 5.338 0 0 0-.908-3.472 3.644 3.644 0 0 0-2.93-1.069h-1.992v13.066zM116.836 0v-41.4h7.559V0zm24.111-42.6a10.3 10.3 0 0 1 7.69 2.842 10.666 10.666 0 0 1 2.8 7.822v2.607l-7.324.352v-2.283a5.692 5.692 0 0 0-.718-3.237 2.593 2.593 0 0 0-2.271-1.011q-2.988 0-3.018 3.662v21.094q0 3.662 3.018 3.662a2.593 2.593 0 0 0 2.27-1.01 5.692 5.692 0 0 0 .718-3.237v-2.93l7.324.352v3.223a10.718 10.718 0 0 1-2.8 7.837A10.271 10.271 0 0 1 140.947 0a10.192 10.192 0 0 1-7.632-2.827q-2.769-2.827-2.769-7.866v-21.24q0-5.039 2.769-7.852a10.222 10.222 0 0 1 7.632-2.815zM170.859 0l-.85-5.273h-7.236L161.982 0h-7.5l7.441-41.4h9.053l7.5 41.4zm-1.846-12.246l-2.578-16.67-2.725 16.67zM198.281-41.4h7.207V0h-7.266l-8.057-23.027V0h-7.178v-41.4h8.086l7.207 20.215zm22.061-.615q4.8 0 7.441 2.651a9.991 9.991 0 0 1 2.637 7.368v5.83l-7.324.732v-6.416q0-3.047-2.637-3.076-2.637 0-2.637 3.076v2.93a5.2 5.2 0 0 0 1.2 3.4 9.139 9.139 0 0 0 3.9 2.49 14.351 14.351 0 0 1 5.347 3.047 8.43 8.43 0 0 1 2.344 3.926 21.108 21.108 0 0 1 .542 5.127v1.494a9.8 9.8 0 0 1-2.725 7.383Q225.7.586 220.723.586T213-2.051a9.766 9.766 0 0 1-2.739-7.383v-4.541l7.324-.732v4.863a3.8 3.8 0 0 0 .718 2.549 2.866 2.866 0 0 0 2.271.82 2.944 2.944 0 0 0 2.285-.806 3.739 3.739 0 0 0 .732-2.563v-.762a5.347 5.347 0 0 0-1.055-3.4 10.627 10.627 0 0 0-4.219-2.666q-4.512-1.846-6.284-4.834a13.824 13.824 0 0 1-1.772-7.178v-3.311a9.981 9.981 0 0 1 2.637-7.383q2.639-2.634 7.444-2.634z" transform="translate(35.577 161.088)"/><circle id="of_circle" data-name="of circle" class="cls-2" cx="14.9" cy="14.9" r="14.9" transform="translate(3 124.8)"/><path id="of" class="cls-3" d="M5.088.144A4.3 4.3 0 0 0 9.492-4.2v-.024a4.264 4.264 0 0 0-4.38-4.32A4.3 4.3 0 0 0 .708-4.2v.024a4.264 4.264 0 0 0 4.38 4.32zm.024-1.368A2.868 2.868 0 0 1 2.256-4.2v-.024a2.838 2.838 0 0 1 2.832-2.964A2.878 2.878 0 0 1 7.944-4.2v.024a2.828 2.828 0 0 1-2.832 2.952zM11.28 0h1.476v-3.42h4.236v-1.344h-4.236v-2.292h4.776V-8.4H11.28z" transform="translate(8.196 144.175)"/><path id="percent" class="cls-4" d="M245.8 43.6a7.1 7.1 0 0 1 1.9 5.2v5.5a6.556 6.556 0 0 1-7 7.1 6.568 6.568 0 0 1-5.1-1.9 6.947 6.947 0 0 1-1.9-5.2v-5.5a7.185 7.185 0 0 1 1.9-5.3 6.864 6.864 0 0 1 5.1-1.9 6.623 6.623 0 0 1 5.1 2zm-8.1 41.2l20.5-44.4h5.3L243 84.8zm1.9-37.6a3.1 3.1 0 0 0-.4 1.6v5.5a2.2 2.2 0 0 0 .4 1.6 1.46 1.46 0 0 0 2.2 0 3.1 3.1 0 0 0 .4-1.6v-5.5a2.2 2.2 0 0 0-.4-1.6 1.46 1.46 0 0 0-2.2 0zm25.9 18.5a7.033 7.033 0 0 1 1.9 5.3v5.5a7.185 7.185 0 0 1-1.9 5.3 6.864 6.864 0 0 1-5.1 1.9 6.568 6.568 0 0 1-5.1-1.9 7.444 7.444 0 0 1-1.9-5.3V71a7.185 7.185 0 0 1 1.9-5.3 6.864 6.864 0 0 1 5.1-1.9 6.5 6.5 0 0 1 5.1 1.9zm-6.3 3.6a3.1 3.1 0 0 0-.4 1.6v5.5a2.2 2.2 0 0 0 .4 1.6 1.46 1.46 0 0 0 2.2 0 3.1 3.1 0 0 0 .4-1.6v-5.5a2.2 2.2 0 0 0-.4-1.6 1.46 1.46 0 0 0-2.2 0z"/><path id="_5" data-name="5" class="cls-4" d="M27.363-57.129q8.5 0 13.418 5.83T45.7-35.273v14.648q0 10.2-5.684 16t-15.762 5.8q-10.078 0-15.791-5.684T2.754-20.156v-4.453l14.648.469v2.4q0 4.57 1.553 6.68a5.738 5.738 0 0 0 4.951 2.109q6.738 0 6.68-8.555v-12.947q0-8.5-6.68-8.5a6.514 6.514 0 0 0-4.57 1.553 6.045 6.045 0 0 0-1.816 4.424l-.234 3.984-14.18-1.7 2.871-48.101H42.6l-2.4 14.414H19.336l-.762 13.535a15.285 15.285 0 0 1 8.789-2.285z" transform="translate(181.371 124.397)"/><path id="_6" data-name="6" class="cls-4" d="M25.9-39.023a5.67 5.67 0 0 0-4.775 2.168 10.117 10.117 0 0 0-1.67 6.27v9.2a10.117 10.117 0 0 0 1.67 6.27 5.67 5.67 0 0 0 4.775 2.166 5.751 5.751 0 0 0 4.8-2.168 9.988 9.988 0 0 0 1.7-6.27v-9.2a10.117 10.117 0 0 0-1.67-6.27 5.733 5.733 0 0 0-4.83-2.166zm3.633-14.121q8.262 0 13.125 5.859t4.863 15.82v10.254q0 10.313-5.83 16.348t-15.91 6.035q-9.961 0-15.7-6.035T4.336-21.211V-62.52q0-9.961 5.684-15.732t15.645-5.771q9.961 0 15.557 5.537t5.6 15.5v2.52l-14.654 1.052V-61.7q0-4.336-1.494-6.24t-4.775-1.9q-3.34 0-4.893 1.816T19.453-62.4v12.48a15.511 15.511 0 0 1 10.078-3.225z" transform="translate(132.371 101.397)"/><path id="header_bg" data-name="header bg" class="cls-4" transform="translate(2 24.5)" d="M0 0h122.9v8.6H0z"/><circle id="Ellipse_195" data-name="Ellipse 195" class="cls-1" cx="1.9" cy="1.9" r="1.9" transform="translate(109.3 30.5)"/><circle id="Ellipse_196" data-name="Ellipse 196" class="cls-1" cx="1.9" cy="1.9" r="1.9" transform="translate(103.8 30.5)"/><circle id="Ellipse_197" data-name="Ellipse 197" class="cls-1" cx="1.9" cy="1.9" r="1.9" transform="translate(114.9 30.5)"/><path id="pop_up_bg" data-name="pop up bg" class="cls-5" transform="translate(11.3 45.4)" d="M0 0h103.5v57.2H0z"/><path id="text_line" data-name="text line" class="cls-6" d="M108.1 88.2H17"/><path id="text_line-2" data-name="text line" class="cls-6" d="M108.1 78.3H17"/><path id="text_line-3" data-name="text line" class="cls-6" d="M108.1 69.9H17"/><path id="text_line-4" data-name="text line" class="cls-6" d="M108.1 61.7H17"/><circle id="close_circle" data-name="close circle" class="cls-2" cx="7.1" cy="7.1" r="7.1" transform="rotate(-9.974 240.349 -59.136)"/><path id="Xline" class="cls-7" transform="translate(19.5 44)" d="M0 0l5.2 5.1"/><path id="X_line" data-name="X line" class="cls-7" transform="translate(19.5 44)" d="M5.2 0L0 5.1"/><path id="browser_border" data-name="browser border" class="cls-8" transform="translate(2 24.5)" d="M0 0h122.6v78.1H0z"/><path id="horiz_line" data-name="horiz line" class="cls-8" transform="translate(2 33.1)" d="M0 0h96"/></g></svg>