<svg xmlns="http://www.w3.org/2000/svg" viewBox="0 0 301.632 208.923"><defs><style>.cls-1,.cls-8{fill:#fff}.cls-2{fill:#db2140}.cls-3{fill:#24539b}.cls-4{fill:#0e2044}.cls-5{fill:#ce7f2c}.cls-6{fill:#ba6728}.cls-7,.cls-8{stroke-linecap:round;stroke-linejoin:round;stroke-miterlimit:10}.cls-7{fill:none;stroke:#fff}.cls-8{stroke:#0e2044;stroke-width:4px}.cls-9{fill:#5893ce}</style></defs><g id="_47-percent-american-adults_outline" data-name="47-percent-american-adults outline" transform="translate(-.882 -24.2)"><path id="flag_bg_white" data-name="flag bg white" class="cls-1" d="M128.8 131.7l-114.9-.4.3-90.7 99 .3c8.8 0 15.9 3.8 15.9 12.6z"/><path id="red_band" data-name="red band" class="cls-2" transform="rotate(-89.897 71.87 -1.885)" d="M0 0h6v55.8H0z"/><path id="red_band-2" data-name="red band" class="cls-2" transform="rotate(-89.898 67.16 -6.533)" d="M0 0h6v56.1H0z"/><path id="red_band-3" data-name="red band" class="cls-2" transform="rotate(-89.895 62.503 -11.189)" d="M0 0h6v54.1H0z"/><path id="red_band-4" data-name="red band" class="cls-2" transform="rotate(-89.897 76.476 2.81)" d="M0 0h6v55.6H0z"/><path id="red_band-5" data-name="red band" class="cls-2" transform="rotate(-89.896 81.134 7.505)" d="M0 0h6v55.1H0z"/><path id="blue_block" data-name="blue block" class="cls-3" transform="rotate(-89.821 50.818 37.866)" d="M0 0h49.3v71H0z"/><path id="red_band-6" data-name="red band" class="cls-2" d="M127.4 98l-113.1-.4a2.946 2.946 0 0 1-3-3 2.989 2.989 0 0 1 2.9-3h.1l113.1.4a2.946 2.946 0 0 1 3 3 2.989 2.989 0 0 1-2.9 3z"/><path id="red_band-7" data-name="red band" class="cls-2" d="M127.4 107.3l-113.2-.4a2.946 2.946 0 0 1-3-3 2.989 2.989 0 0 1 2.9-3h.1l113.2.4a2.946 2.946 0 0 1 3 3 2.989 2.989 0 0 1-2.9 3z"/><path id="red_band-8" data-name="red band" class="cls-2" d="M127.4 116.6l-113.2-.4a2.946 2.946 0 0 1-3-3 2.989 2.989 0 0 1 2.9-3h.1l113.2.4a2.946 2.946 0 0 1 3 3 2.989 2.989 0 0 1-2.9 3z"/><path id="red_band-9" data-name="red band" class="cls-2" d="M127.3 125.5l-113.1-.4a2.946 2.946 0 0 1-3-3 2.989 2.989 0 0 1 2.9-3h.1l113.1.4a2.946 2.946 0 0 1 3 3 2.989 2.989 0 0 1-2.9 3z"/><path id="flag_border" data-name="flag border" class="cls-4" d="M128.4 138.6a2.92 2.92 0 0 1-.9-.2l-10.1-5-104.4-.3a2.051 2.051 0 0 1-2-2l.6-91.1a2.006 2.006 0 0 1 2-2l104.6.4A12.59 12.59 0 0 1 130.7 51l-.3 85.6a2.227 2.227 0 0 1-.9 1.7 2.016 2.016 0 0 1-1.1.3zM15 129.1l102.9.3a2.92 2.92 0 0 1 .9.2l7.6 3.8.3-82.4a8.579 8.579 0 0 0-8.5-8.6h-.1L15.6 42z"/><path id="flag_fold" data-name="flag fold" class="cls-4" d="M123.2 129.4h-16.8v14.7h17a7.037 7.037 0 0 0 5.1-2.2 7.443 7.443 0 0 0 2-5.1 7.363 7.363 0 0 0-7.3-7.4z"/><path id="pole_bg" data-name="pole bg" class="cls-5" d="M5.3 152.5l11-.4-2.4-2.2.4-112.6H8.6l-.3 112.2z"/><path id="pole_border" data-name="pole border" class="cls-4" d="M14.3 151.2a1.538 1.538 0 0 1-1.5-1.5l.4-112.3h-4l-.4 112.3a1.538 1.538 0 0 1-1.5 1.5 1.538 1.538 0 0 1-1.5-1.5l.4-113.8a1.538 1.538 0 0 1 1.5-1.5h7a2.1 2.1 0 0 1 1.1.4 1.5 1.5 0 0 1 .4 1.1l-.4 113.8a1.473 1.473 0 0 1-1.5 1.5z"/><path id="pole_top_bg" data-name="pole top bg" class="cls-5" d="M16.2 32.8a5.3 5.3 0 1 1-5.3-5.3 5.146 5.146 0 0 1 5.3 5v.3"/><path id="pole_top_shadow" data-name="pole top shadow" class="cls-6" d="M16 31.1a5.156 5.156 0 0 1-6.5 3.3h-.1A5.468 5.468 0 0 1 6 31a4.671 4.671 0 0 0-.3 1.7 5.3 5.3 0 0 0 10.6 0"/><path id="pole_highlight_top" data-name="pole highlight top" class="cls-7" d="M11.1 44.5v-2.1"/><path id="pole_highlight" data-name="pole highlight" class="cls-7" d="M10.8 124.4L11 48"/><path id="pole_top_circle" data-name="pole top circle" class="cls-4" d="M9.1 40.4a.6.6 0 0 1-.4-.1 8.081 8.081 0 0 1-3.3-13.2 8.166 8.166 0 0 1 5.5-2.4h.1a7.964 7.964 0 0 1 5.6 2.4 7.383 7.383 0 0 1 2.2 5.6 7.952 7.952 0 0 1-5.6 7.6 1.518 1.518 0 0 1-.9-2.9 4.956 4.956 0 0 0 3.4-4.7v-.1a4.823 4.823 0 0 0-4.8-4.9 4.478 4.478 0 0 0-3.4 1.5 5.025 5.025 0 0 0 1.9 8.2 1.584 1.584 0 0 1 1 1.9 1.3 1.3 0 0 1-1.3 1.1z"/><path id="pole_base" data-name="pole base" class="cls-4" d="M10.9 154.4c-9.2 0-9.2-2.2-9.2-2.9 0-1.7 1.8-2.5 6.2-2.8.8 0-.3 2.3-.6 2.7 1.2.1 5.6.1 6.9 0-.4-.3-1.3-2.7-.5-2.7h.1c3.5.2 6.4.6 6.4 2.8-.1.8-.1 2.9-9.3 2.9z"/><path id="star" class="cls-1" d="M21 45.4a1.7 1.7 0 1 0 1.6 1.8v-.1a1.6 1.6 0 0 0-1.6-1.7z"/><path id="Path_3468_1_" class="cls-1" d="M31.8 45.4a1.7 1.7 0 1 0 1.6 1.8v-.1a1.6 1.6 0 0 0-1.6-1.7z"/><path id="Path_3469_1_" class="cls-1" d="M42.5 45.4a1.7 1.7 0 1 0 1.6 1.8v-.1a1.553 1.553 0 0 0-1.3-1.7z"/><path id="Path_3470_1_" class="cls-1" d="M53.3 45.4a1.7 1.7 0 1 0 1.6 1.8v-.1a1.553 1.553 0 0 0-1.3-1.7z"/><path id="Path_3471_1_" class="cls-1" d="M64.1 45.4a1.7 1.7 0 1 0 1.6 1.8v-.1a1.5 1.5 0 0 0-1.4-1.7z"/><path id="Path_3472_1_" class="cls-1" d="M74.9 48.8a1.7 1.7 0 1 0-1.6-1.8v.1a1.661 1.661 0 0 0 1.6 1.7z"/><path id="Path_3473_1_" class="cls-1" d="M26.4 54.1a1.7 1.7 0 1 0 1.6 1.8v-.1a1.6 1.6 0 0 0-1.6-1.7z"/><path id="Path_3474_1_" class="cls-1" d="M37.2 54.1a1.7 1.7 0 1 0 1.6 1.8v-.1a1.6 1.6 0 0 0-1.6-1.7z"/><path id="Path_3475_1_" class="cls-1" d="M47.9 54.1a1.7 1.7 0 1 0 1.6 1.8v-.1a1.5 1.5 0 0 0-1.4-1.7z"/><path id="Path_3476_1_" class="cls-1" d="M58.7 54.1a1.7 1.7 0 1 0 1.6 1.8v-.1a1.5 1.5 0 0 0-1.4-1.7z"/><path id="Path_3477_1_" class="cls-1" d="M69.5 54.1a1.7 1.7 0 1 0 1.6 1.8v-.1a1.5 1.5 0 0 0-1.4-1.7z"/><path id="Path_3478_1_" class="cls-1" d="M21 62.7a1.7 1.7 0 1 0 1.6 1.8v-.1a1.6 1.6 0 0 0-1.6-1.7z"/><path id="Path_3479_1_" class="cls-1" d="M31.8 62.7a1.7 1.7 0 1 0 1.6 1.8v-.1a1.6 1.6 0 0 0-1.6-1.7z"/><path id="Path_3480_1_" class="cls-1" d="M42.5 62.7a1.7 1.7 0 1 0 1.6 1.8v-.1a1.5 1.5 0 0 0-1.4-1.7z"/><path id="Path_3481_1_" class="cls-1" d="M53.3 62.7a1.7 1.7 0 1 0 1.6 1.8v-.1a1.5 1.5 0 0 0-1.4-1.7z"/><path id="Path_3482_1_" class="cls-1" d="M64.1 62.7a1.7 1.7 0 1 0 1.6 1.8v-.1a1.5 1.5 0 0 0-1.4-1.7z"/><path id="Path_3483_1_" class="cls-1" d="M74.9 62.7a1.7 1.7 0 1 0 1.6 1.8v-.1a1.5 1.5 0 0 0-1.4-1.7z"/><path id="Path_3484_1_" class="cls-1" d="M21 80a1.7 1.7 0 1 0 1.6 1.8v-.1A1.666 1.666 0 0 0 21 80z"/><path id="Path_3485_1_" class="cls-1" d="M31.8 80a1.7 1.7 0 1 0 1.6 1.8v-.1a1.666 1.666 0 0 0-1.6-1.7z"/><path id="Path_3486_1_" class="cls-1" d="M42.5 80a1.7 1.7 0 1 0 1.6 1.8v-.1a1.556 1.556 0 0 0-1.4-1.7z"/><path id="Path_3487_1_" class="cls-1" d="M53.3 80a1.7 1.7 0 1 0 1.6 1.8v-.1a1.556 1.556 0 0 0-1.4-1.7z"/><path id="Path_3488_1_" class="cls-1" d="M64.1 80a1.7 1.7 0 1 0 1.6 1.8v-.1a1.6 1.6 0 0 0-1.6-1.7z"/><path id="Path_3489_1_" class="cls-1" d="M74.9 80a1.7 1.7 0 1 0 1.6 1.8v-.1a1.6 1.6 0 0 0-1.6-1.7z"/><path id="Path_3490_1_" class="cls-1" d="M26.4 71.4a1.7 1.7 0 1 0 1.6 1.8v-.1a1.6 1.6 0 0 0-1.6-1.7z"/><path id="Path_3491_1_" class="cls-1" d="M37.2 71.4a1.7 1.7 0 1 0 1.6 1.8v-.1a1.6 1.6 0 0 0-1.6-1.7z"/><path id="Path_3492_1_" class="cls-1" d="M47.9 71.4a1.7 1.7 0 1 0 1.6 1.8v-.1a1.5 1.5 0 0 0-1.4-1.7z"/><path id="Path_3493_1_" class="cls-1" d="M58.7 71.4a1.7 1.7 0 1 0 1.6 1.8v-.1a1.5 1.5 0 0 0-1.4-1.7z"/><path id="star-2" data-name="star" class="cls-1" d="M69.5 71.4a1.7 1.7 0 1 0 1.6 1.8v-.1a1.5 1.5 0 0 0-1.4-1.7z"/><path id="pole_top_hilight" data-name="pole top hilight" class="cls-7" d="M10.9 29.4a3.329 3.329 0 0 1 3.3 3.3"/><path id="exposed_by_cyber_criminals." data-name="exposed by cyber criminals." class="cls-4" d="M5.094.216A4.585 4.585 0 0 1 3.384-.1 4.06 4.06 0 0 1 2-1.008a4.147 4.147 0 0 1-.927-1.449A5.352 5.352 0 0 1 .738-4.41a5.244 5.244 0 0 1 .342-1.944 4.459 4.459 0 0 1 .909-1.458 4.027 4.027 0 0 1 1.3-.918 3.726 3.726 0 0 1 1.512-.324 3.846 3.846 0 0 1 1.584.306 3.09 3.09 0 0 1 1.143.864 3.8 3.8 0 0 1 .693 1.332A5.825 5.825 0 0 1 8.46-4.86q0 .306-.027.576a3.837 3.837 0 0 1-.063.432H2.754a2.854 2.854 0 0 0 .837 1.827 2.513 2.513 0 0 0 1.773.639 3.259 3.259 0 0 0 1.071-.171 4.76 4.76 0 0 0 .981-.477l.7 1.3a6.356 6.356 0 0 1-1.4.684 4.883 4.883 0 0 1-1.622.266zM2.736-5.256H6.66a2.621 2.621 0 0 0-.441-1.611 1.592 1.592 0 0 0-1.359-.585 1.961 1.961 0 0 0-1.386.558 2.645 2.645 0 0 0-.738 1.638zM9.162 0l2.808-4.608-2.628-4.23h2.232l.99 1.674q.2.36.405.747t.4.747h.072q.162-.36.342-.747t.342-.747l.846-1.674h2.142l-2.61 4.464L17.316 0h-2.232L14-1.746q-.216-.4-.441-.792t-.459-.774h-.072q-.2.378-.387.765t-.387.8L11.322 0zm9.72 3.492v-12.33h1.71l.144.936h.072a6.326 6.326 0 0 1 1.242-.81 3.142 3.142 0 0 1 1.422-.342 3.276 3.276 0 0 1 1.467.315 3.042 3.042 0 0 1 1.089.909 4.236 4.236 0 0 1 .684 1.422 6.814 6.814 0 0 1 .234 1.854 6.054 6.054 0 0 1-.315 2.025 4.594 4.594 0 0 1-.837 1.494 3.655 3.655 0 0 1-1.206.927 3.284 3.284 0 0 1-1.422.324 2.854 2.854 0 0 1-1.152-.252 4.408 4.408 0 0 1-1.114-.72L20.952.72v2.772zm3.852-4.986a1.8 1.8 0 0 0 1.476-.765 3.672 3.672 0 0 0 .59-2.277 3.985 3.985 0 0 0-.45-2.07 1.577 1.577 0 0 0-1.45-.738 2.871 2.871 0 0 0-1.944.99v4.122a3.093 3.093 0 0 0 .936.576 2.5 2.5 0 0 0 .842.162zm9.918 1.71a4.182 4.182 0 0 1-1.584-.306 3.941 3.941 0 0 1-1.341-.9 4.306 4.306 0 0 1-.927-1.458 5.3 5.3 0 0 1-.342-1.962 5.3 5.3 0 0 1 .342-1.962 4.306 4.306 0 0 1 .927-1.458 4.055 4.055 0 0 1 1.341-.909 4.078 4.078 0 0 1 1.584-.315 4.144 4.144 0 0 1 1.593.315 3.936 3.936 0 0 1 1.341.909 4.5 4.5 0 0 1 .927 1.458 5.176 5.176 0 0 1 .351 1.962 5.176 5.176 0 0 1-.351 1.962 4.5 4.5 0 0 1-.927 1.458 3.829 3.829 0 0 1-1.341.9 4.251 4.251 0 0 1-1.593.306zm0-1.692a1.767 1.767 0 0 0 1.53-.8 3.665 3.665 0 0 0 .558-2.134 3.7 3.7 0 0 0-.558-2.151 1.767 1.767 0 0 0-1.53-.8 1.744 1.744 0 0 0-1.521.8 3.746 3.746 0 0 0-.549 2.151 3.71 3.71 0 0 0 .549 2.133 1.744 1.744 0 0 0 1.521.801zM41.31.216a4.9 4.9 0 0 1-1.81-.351 5.853 5.853 0 0 1-1.539-.873l.972-1.332a5.619 5.619 0 0 0 1.179.729 3.079 3.079 0 0 0 1.269.261 1.592 1.592 0 0 0 1.062-.3.967.967 0 0 0 .342-.765.752.752 0 0 0-.162-.477 1.556 1.556 0 0 0-.432-.369 4.153 4.153 0 0 0-.612-.3q-.342-.135-.684-.279-.432-.162-.882-.378a3.546 3.546 0 0 1-.8-.522 2.633 2.633 0 0 1-.576-.711 1.953 1.953 0 0 1-.225-.963 2.393 2.393 0 0 1 .864-1.908 3.513 3.513 0 0 1 2.358-.738 4.078 4.078 0 0 1 1.656.324 6.165 6.165 0 0 1 1.278.738l-.954 1.26a4.937 4.937 0 0 0-.945-.549 2.483 2.483 0 0 0-1-.207 1.451 1.451 0 0 0-.981.279.888.888 0 0 0-.315.693.706.706 0 0 0 .153.459 1.417 1.417 0 0 0 .4.333 4.123 4.123 0 0 0 .585.27q.333.126.693.252.45.162.9.369a3.7 3.7 0 0 1 .819.513 2.339 2.339 0 0 1 .594.747 2.292 2.292 0 0 1 .225 1.053 2.557 2.557 0 0 1-.225 1.071 2.474 2.474 0 0 1-.657.864A3.2 3.2 0 0 1 42.786 0a4.659 4.659 0 0 1-1.476.216zm9.072 0a4.585 4.585 0 0 1-1.71-.316 4.06 4.06 0 0 1-1.386-.909 4.147 4.147 0 0 1-.927-1.449 5.352 5.352 0 0 1-.333-1.953 5.244 5.244 0 0 1 .342-1.944 4.459 4.459 0 0 1 .909-1.458 4.027 4.027 0 0 1 1.305-.918 3.726 3.726 0 0 1 1.512-.324 3.846 3.846 0 0 1 1.584.306 3.09 3.09 0 0 1 1.143.864 3.8 3.8 0 0 1 .693 1.332 5.825 5.825 0 0 1 .234 1.692q0 .306-.027.576a3.836 3.836 0 0 1-.063.432h-5.616a2.854 2.854 0 0 0 .837 1.827 2.513 2.513 0 0 0 1.773.639 3.259 3.259 0 0 0 1.071-.171 4.76 4.76 0 0 0 .981-.477l.7 1.3A6.356 6.356 0 0 1 52-.054a4.883 4.883 0 0 1-1.618.27zm-2.358-5.472h3.924a2.621 2.621 0 0 0-.441-1.611 1.592 1.592 0 0 0-1.359-.585 1.961 1.961 0 0 0-1.386.558 2.645 2.645 0 0 0-.738 1.638zm10.8 5.472A3.233 3.233 0 0 1 56.169-1a5.3 5.3 0 0 1-.981-3.411 5.646 5.646 0 0 1 .312-1.943 4.534 4.534 0 0 1 .837-1.458 3.74 3.74 0 0 1 1.2-.918 3.188 3.188 0 0 1 1.395-.324 2.837 2.837 0 0 1 1.278.261 5.117 5.117 0 0 1 1.044.711L61.182-9.5v-3.2h2.07V0h-1.71L61.4-.954h-.072a4.679 4.679 0 0 1-1.134.828 2.89 2.89 0 0 1-1.37.342zm.5-1.71a2.469 2.469 0 0 0 1.854-.99v-4.122a2.928 2.928 0 0 0-.909-.576 2.567 2.567 0 0 0-.891-.162 1.793 1.793 0 0 0-1.458.756 3.428 3.428 0 0 0-.594 2.16 3.862 3.862 0 0 0 .513 2.187 1.69 1.69 0 0 0 1.489.747zm14.44 1.71a2.839 2.839 0 0 1-1.233-.3 4.3 4.3 0 0 1-1.179-.855H71.3L71.118 0H69.48v-12.708h2.07v3.276l-.05 1.476a5.16 5.16 0 0 1 1.215-.792 3.146 3.146 0 0 1 1.341-.306 3.334 3.334 0 0 1 1.476.315 3.056 3.056 0 0 1 1.1.9 4.134 4.134 0 0 1 .684 1.413 6.814 6.814 0 0 1 .234 1.854 6.054 6.054 0 0 1-.315 2.025 4.706 4.706 0 0 1-.837 1.5 3.605 3.605 0 0 1-1.206.936 3.284 3.284 0 0 1-1.428.327zm-.432-1.71a1.8 1.8 0 0 0 1.476-.765 3.672 3.672 0 0 0 .592-2.277 3.985 3.985 0 0 0-.45-2.07 1.577 1.577 0 0 0-1.458-.738 2.871 2.871 0 0 0-1.944.99v4.122a2.86 2.86 0 0 0 .927.576 2.579 2.579 0 0 0 .857.162zm6.768 5.13a3.876 3.876 0 0 1-.63-.045 3.03 3.03 0 0 1-.522-.135l.378-1.62q.126.036.3.081a1.306 1.306 0 0 0 .333.045 1.521 1.521 0 0 0 1.125-.423A2.677 2.677 0 0 0 81.72.45l.162-.558-3.474-8.73h2.106l1.53 4.338q.2.576.387 1.215t.387 1.269h.072l.333-1.251q.171-.639.333-1.233l1.332-4.338h2L83.682.4a9.483 9.483 0 0 1-.594 1.35 4.417 4.417 0 0 1-.747 1.017 2.937 2.937 0 0 1-.972.648 3.327 3.327 0 0 1-1.269.221zM95.706.216a4.583 4.583 0 0 1-1.683-.306 3.793 3.793 0 0 1-1.359-.9 4.162 4.162 0 0 1-.9-1.458 5.56 5.56 0 0 1-.324-1.962 5.061 5.061 0 0 1 .36-1.962 4.314 4.314 0 0 1 .972-1.458 4.232 4.232 0 0 1 1.413-.909 4.557 4.557 0 0 1 1.683-.315 3.506 3.506 0 0 1 1.485.288 4.828 4.828 0 0 1 1.107.7l-1.008 1.35a3.428 3.428 0 0 0-.711-.477 1.723 1.723 0 0 0-.765-.171 2.161 2.161 0 0 0-1.746.8 3.259 3.259 0 0 0-.666 2.151 3.259 3.259 0 0 0 .657 2.133 2.1 2.1 0 0 0 1.7.8 2.2 2.2 0 0 0 .979-.22 4.408 4.408 0 0 0 .837-.531l.846 1.368a4.406 4.406 0 0 1-1.377.81 4.394 4.394 0 0 1-1.5.269zM101 3.636a3.876 3.876 0 0 1-.63-.045 3.03 3.03 0 0 1-.522-.135l.378-1.62q.126.036.3.081a1.306 1.306 0 0 0 .333.045 1.521 1.521 0 0 0 1.125-.423 2.677 2.677 0 0 0 .634-1.089l.162-.558-3.474-8.73h2.106l1.53 4.338q.2.576.387 1.215t.387 1.269h.072l.333-1.251q.171-.639.333-1.233l1.332-4.338h2L104.58.4a9.483 9.483 0 0 1-.594 1.35 4.417 4.417 0 0 1-.747 1.017 2.937 2.937 0 0 1-.972.648 3.327 3.327 0 0 1-1.267.221zm12.6-3.42a2.839 2.839 0 0 1-1.233-.3 4.3 4.3 0 0 1-1.179-.855h-.054l-.18.936h-1.638v-12.705h2.07v3.276l-.054 1.476a5.16 5.16 0 0 1 1.215-.792 3.146 3.146 0 0 1 1.341-.306 3.334 3.334 0 0 1 1.476.315 3.056 3.056 0 0 1 1.1.9 4.134 4.134 0 0 1 .684 1.413 6.814 6.814 0 0 1 .234 1.854 6.054 6.054 0 0 1-.315 2.025 4.706 4.706 0 0 1-.837 1.5 3.605 3.605 0 0 1-1.206.936 3.284 3.284 0 0 1-1.424.327zm-.432-1.71a1.8 1.8 0 0 0 1.476-.765 3.672 3.672 0 0 0 .594-2.277 3.985 3.985 0 0 0-.45-2.07 1.577 1.577 0 0 0-1.458-.738 2.871 2.871 0 0 0-1.944.99v4.122a2.86 2.86 0 0 0 .927.576 2.579 2.579 0 0 0 .853.162zm10.06 1.71a4.585 4.585 0 0 1-1.71-.315 4.061 4.061 0 0 1-1.386-.909 4.147 4.147 0 0 1-.927-1.449 5.352 5.352 0 0 1-.333-1.953 5.244 5.244 0 0 1 .342-1.944 4.459 4.459 0 0 1 .909-1.458 4.027 4.027 0 0 1 1.305-.918 3.726 3.726 0 0 1 1.512-.324 3.846 3.846 0 0 1 1.584.306 3.09 3.09 0 0 1 1.143.864 3.8 3.8 0 0 1 .693 1.332 5.825 5.825 0 0 1 .234 1.692q0 .306-.027.576a3.838 3.838 0 0 1-.063.432h-5.616a2.854 2.854 0 0 0 .837 1.827 2.513 2.513 0 0 0 1.773.639 3.259 3.259 0 0 0 1.071-.171 4.76 4.76 0 0 0 .981-.477l.7 1.3a6.356 6.356 0 0 1-1.4.684 4.883 4.883 0 0 1-1.622.266zm-2.358-5.472h3.924a2.621 2.621 0 0 0-.441-1.611 1.592 1.592 0 0 0-1.359-.585 1.961 1.961 0 0 0-1.386.558 2.645 2.645 0 0 0-.738 1.638zM128.574 0v-8.838h1.71l.144 1.566h.072a3.71 3.71 0 0 1 1.134-1.328A2.383 2.383 0 0 1 133-9.054a2.369 2.369 0 0 1 1.008.18l-.36 1.8a3.779 3.779 0 0 0-.432-.108 2.774 2.774 0 0 0-.486-.036 1.929 1.929 0 0 0-1.1.4 3.129 3.129 0 0 0-.99 1.413V0zm14 .216A4.583 4.583 0 0 1 140.9-.09a3.792 3.792 0 0 1-1.359-.9 4.162 4.162 0 0 1-.9-1.458 5.56 5.56 0 0 1-.324-1.962 5.061 5.061 0 0 1 .36-1.962 4.313 4.313 0 0 1 .972-1.458 4.232 4.232 0 0 1 1.413-.909 4.557 4.557 0 0 1 1.683-.315 3.506 3.506 0 0 1 1.485.288 4.828 4.828 0 0 1 1.107.7l-1.008 1.35a3.428 3.428 0 0 0-.711-.477 1.723 1.723 0 0 0-.765-.171 2.161 2.161 0 0 0-1.746.8 3.259 3.259 0 0 0-.666 2.151 3.259 3.259 0 0 0 .657 2.133 2.1 2.1 0 0 0 1.7.8 2.2 2.2 0 0 0 .981-.225 4.408 4.408 0 0 0 .837-.531l.846 1.368a4.406 4.406 0 0 1-1.377.81 4.394 4.394 0 0 1-1.507.274zM147.2 0v-8.838h1.71l.144 1.566h.072a3.71 3.71 0 0 1 1.138-1.328 2.384 2.384 0 0 1 1.368-.459 2.369 2.369 0 0 1 1.008.18l-.36 1.8a3.779 3.779 0 0 0-.432-.108 2.774 2.774 0 0 0-.486-.036 1.929 1.929 0 0 0-1.1.4 3.129 3.129 0 0 0-.99 1.413V0zm6.714 0v-8.838h2.07V0zm1.044-10.386a1.32 1.32 0 0 1-.918-.324 1.085 1.085 0 0 1-.36-.846 1.112 1.112 0 0 1 .36-.855 1.3 1.3 0 0 1 .918-.333 1.3 1.3 0 0 1 .918.333 1.112 1.112 0 0 1 .36.855 1.085 1.085 0 0 1-.36.846 1.32 1.32 0 0 1-.914.324zM158.634 0v-8.838h1.71l.144 1.206h.072a6.2 6.2 0 0 1 1.215-1.008 2.727 2.727 0 0 1 1.485-.414 2.643 2.643 0 0 1 1.557.414 2.57 2.57 0 0 1 .891 1.17 7.11 7.11 0 0 1 1.314-1.13 2.723 2.723 0 0 1 1.53-.45 2.4 2.4 0 0 1 2.07.909 4.349 4.349 0 0 1 .666 2.6V0H169.2v-5.274a2.69 2.69 0 0 0-.333-1.548 1.182 1.182 0 0 0-1.017-.45A2.784 2.784 0 0 0 166-6.174V0h-2.07v-5.274a2.69 2.69 0 0 0-.333-1.548 1.2 1.2 0 0 0-1.035-.45 2.784 2.784 0 0 0-1.854 1.1V0zm15.174 0v-8.838h2.07V0zm1.044-10.386a1.32 1.32 0 0 1-.918-.324 1.085 1.085 0 0 1-.36-.846 1.112 1.112 0 0 1 .36-.855 1.3 1.3 0 0 1 .918-.333 1.3 1.3 0 0 1 .918.333 1.112 1.112 0 0 1 .36.855 1.085 1.085 0 0 1-.36.846 1.32 1.32 0 0 1-.918.324zM178.524 0v-8.838h1.71l.144 1.188h.072a7.007 7.007 0 0 1 1.287-.99 3.081 3.081 0 0 1 1.611-.414 2.366 2.366 0 0 1 2.07.909 4.441 4.441 0 0 1 .648 2.6V0H184v-5.274a2.75 2.75 0 0 0-.324-1.548 1.219 1.219 0 0 0-1.062-.45 1.861 1.861 0 0 0-1.017.279 6.488 6.488 0 0 0-1 .819V0zm12.222.216a2.573 2.573 0 0 1-1.89-.711 2.525 2.525 0 0 1-.72-1.881 2.587 2.587 0 0 1 .3-1.251 2.56 2.56 0 0 1 .936-.945 6.216 6.216 0 0 1 1.62-.666 14.813 14.813 0 0 1 2.349-.414 3.336 3.336 0 0 0-.1-.657 1.51 1.51 0 0 0-.27-.558 1.256 1.256 0 0 0-.495-.378 1.873 1.873 0 0 0-.756-.135 3.347 3.347 0 0 0-1.269.252 8.533 8.533 0 0 0-1.215.612l-.758-1.384a8.854 8.854 0 0 1 1.656-.81 5.627 5.627 0 0 1 1.98-.342 3.041 3.041 0 0 1 2.475.981 4.317 4.317 0 0 1 .819 2.835V0H193.7l-.144-.972h-.072a6.493 6.493 0 0 1-1.269.846 3.2 3.2 0 0 1-1.469.342zm.666-1.62a1.942 1.942 0 0 0 .981-.252 5.267 5.267 0 0 0 .945-.72v-1.98a9.449 9.449 0 0 0-1.512.288 4.37 4.37 0 0 0-.99.4 1.443 1.443 0 0 0-.54.513 1.229 1.229 0 0 0-.162.612 1.01 1.01 0 0 0 .36.864 1.488 1.488 0 0 0 .918.279zm8.5 1.62a1.751 1.751 0 0 1-1.566-.666 3.209 3.209 0 0 1-.45-1.818v-10.44h2.07V-2.16a.771.771 0 0 0 .144.531.42.42 0 0 0 .306.153h.135a.763.763 0 0 0 .189-.036l.27 1.548a2.793 2.793 0 0 1-1.102.18zm5.328 0a4.9 4.9 0 0 1-1.809-.351 5.853 5.853 0 0 1-1.539-.873l.972-1.332a5.619 5.619 0 0 0 1.179.729 3.079 3.079 0 0 0 1.269.261 1.592 1.592 0 0 0 1.062-.3.967.967 0 0 0 .342-.765.752.752 0 0 0-.162-.477 1.556 1.556 0 0 0-.432-.369 4.153 4.153 0 0 0-.612-.3q-.342-.135-.684-.279-.432-.162-.882-.378a3.545 3.545 0 0 1-.8-.522 2.633 2.633 0 0 1-.576-.711 1.953 1.953 0 0 1-.225-.963 2.393 2.393 0 0 1 .864-1.908 3.513 3.513 0 0 1 2.358-.738 4.078 4.078 0 0 1 1.656.324 6.165 6.165 0 0 1 1.278.738l-.954 1.26a4.937 4.937 0 0 0-.945-.549 2.483 2.483 0 0 0-1-.207 1.451 1.451 0 0 0-.981.279.888.888 0 0 0-.315.693.706.706 0 0 0 .153.459 1.417 1.417 0 0 0 .4.333 4.124 4.124 0 0 0 .585.27q.333.126.693.252.45.162.9.369a3.7 3.7 0 0 1 .819.513 2.339 2.339 0 0 1 .594.747 2.292 2.292 0 0 1 .225 1.053 2.557 2.557 0 0 1-.225 1.071 2.474 2.474 0 0 1-.657.864 3.2 3.2 0 0 1-1.08.585 4.659 4.659 0 0 1-1.475.222zm6.462 0a1.292 1.292 0 0 1-.963-.4 1.383 1.383 0 0 1-.387-1.008 1.383 1.383 0 0 1 .387-1.008 1.292 1.292 0 0 1 .963-.4 1.263 1.263 0 0 1 .954.4 1.4 1.4 0 0 1 .378 1.008 1.4 1.4 0 0 1-.378 1.008 1.263 1.263 0 0 1-.956.4z" transform="translate(53.319 229.487)"/><path id="have_had_their_personal_information" data-name="have had their personal information" class="cls-4" d="M1.314 0v-12.708h2.07v3.276l-.072 1.71a7.283 7.283 0 0 1 1.233-.927 3.038 3.038 0 0 1 1.593-.405 2.367 2.367 0 0 1 2.07.909 4.441 4.441 0 0 1 .648 2.6V0h-2.07v-5.274a2.75 2.75 0 0 0-.324-1.548 1.219 1.219 0 0 0-1.062-.45 1.861 1.861 0 0 0-1.017.279 6.488 6.488 0 0 0-1 .819V0zM13.5.216A2.573 2.573 0 0 1 11.61-.5a2.525 2.525 0 0 1-.72-1.881 2.587 2.587 0 0 1 .3-1.251 2.56 2.56 0 0 1 .936-.945 6.216 6.216 0 0 1 1.62-.666 14.813 14.813 0 0 1 2.349-.414 3.336 3.336 0 0 0-.1-.657 1.51 1.51 0 0 0-.27-.558 1.256 1.256 0 0 0-.495-.378 1.873 1.873 0 0 0-.756-.135 3.347 3.347 0 0 0-1.269.252 8.534 8.534 0 0 0-1.215.612L11.232-7.9a8.854 8.854 0 0 1 1.656-.81 5.627 5.627 0 0 1 1.98-.342 3.041 3.041 0 0 1 2.475.981 4.317 4.317 0 0 1 .819 2.835V0h-1.71l-.144-.972h-.072a6.493 6.493 0 0 1-1.269.846A3.2 3.2 0 0 1 13.5.216zm.666-1.62a1.942 1.942 0 0 0 .981-.252 5.267 5.267 0 0 0 .945-.72v-1.98a9.448 9.448 0 0 0-1.512.288 4.37 4.37 0 0 0-.99.4 1.443 1.443 0 0 0-.54.513 1.229 1.229 0 0 0-.162.612 1.01 1.01 0 0 0 .36.864 1.488 1.488 0 0 0 .918.279zM22.626 0l-3.078-8.838h2.106l1.4 4.59q.18.648.369 1.314t.369 1.35h.072q.2-.684.378-1.35t.378-1.314l1.4-4.59h2L25.02 0zm10.6.216A4.585 4.585 0 0 1 31.518-.1a4.061 4.061 0 0 1-1.386-.909 4.147 4.147 0 0 1-.932-1.448 5.352 5.352 0 0 1-.333-1.953 5.244 5.244 0 0 1 .342-1.944 4.459 4.459 0 0 1 .909-1.458 4.027 4.027 0 0 1 1.305-.918 3.726 3.726 0 0 1 1.512-.324 3.846 3.846 0 0 1 1.584.306 3.09 3.09 0 0 1 1.143.864 3.8 3.8 0 0 1 .693 1.332 5.825 5.825 0 0 1 .234 1.692q0 .306-.027.576a3.838 3.838 0 0 1-.063.432h-5.611a2.854 2.854 0 0 0 .837 1.827 2.513 2.513 0 0 0 1.773.639 3.259 3.259 0 0 0 1.071-.171 4.76 4.76 0 0 0 .981-.477l.7 1.3a6.356 6.356 0 0 1-1.4.684 4.883 4.883 0 0 1-1.622.266zM30.87-5.256h3.924a2.621 2.621 0 0 0-.441-1.611 1.592 1.592 0 0 0-1.359-.585 1.961 1.961 0 0 0-1.386.558 2.645 2.645 0 0 0-.738 1.638zM42.174 0v-12.708h2.07v3.276l-.072 1.71a7.282 7.282 0 0 1 1.228-.927 3.038 3.038 0 0 1 1.6-.405 2.367 2.367 0 0 1 2.07.909 4.441 4.441 0 0 1 .648 2.6V0h-2.07v-5.274a2.75 2.75 0 0 0-.324-1.548 1.219 1.219 0 0 0-1.062-.45 1.861 1.861 0 0 0-1.017.279 6.488 6.488 0 0 0-1 .819V0zM54.36.216A2.573 2.573 0 0 1 52.47-.5a2.525 2.525 0 0 1-.72-1.881 2.587 2.587 0 0 1 .3-1.251 2.56 2.56 0 0 1 .936-.945 6.216 6.216 0 0 1 1.62-.666 14.813 14.813 0 0 1 2.349-.414 3.336 3.336 0 0 0-.1-.657 1.51 1.51 0 0 0-.27-.558 1.256 1.256 0 0 0-.5-.378 1.873 1.873 0 0 0-.756-.135 3.347 3.347 0 0 0-1.269.252 8.534 8.534 0 0 0-1.215.612L52.092-7.9a8.854 8.854 0 0 1 1.656-.81 5.627 5.627 0 0 1 1.98-.342 3.041 3.041 0 0 1 2.475.981 4.317 4.317 0 0 1 .819 2.835V0h-1.71l-.144-.972H57.1a6.493 6.493 0 0 1-1.269.846 3.2 3.2 0 0 1-1.471.342zm.666-1.62a1.942 1.942 0 0 0 .981-.252 5.267 5.267 0 0 0 .945-.72v-1.98a9.448 9.448 0 0 0-1.512.288 4.37 4.37 0 0 0-.99.4 1.443 1.443 0 0 0-.54.513 1.229 1.229 0 0 0-.162.612 1.01 1.01 0 0 0 .36.864 1.488 1.488 0 0 0 .918.279zM64.6.216A3.233 3.233 0 0 1 61.947-1a5.3 5.3 0 0 1-.981-3.411 5.646 5.646 0 0 1 .315-1.944 4.534 4.534 0 0 1 .837-1.458 3.74 3.74 0 0 1 1.2-.918 3.188 3.188 0 0 1 1.395-.324 2.837 2.837 0 0 1 1.278.261 5.117 5.117 0 0 1 1.044.711L66.96-9.5v-3.2h2.07V0h-1.71l-.144-.954H67.1a4.679 4.679 0 0 1-1.134.828A2.89 2.89 0 0 1 64.6.216zm.5-1.71a2.469 2.469 0 0 0 1.854-.99v-4.122a2.928 2.928 0 0 0-.909-.576 2.567 2.567 0 0 0-.891-.162 1.793 1.793 0 0 0-1.458.756 3.428 3.428 0 0 0-.594 2.16 3.862 3.862 0 0 0 .513 2.187 1.69 1.69 0 0 0 1.491.747zM78.372.216a3.233 3.233 0 0 1-1.305-.234 2.212 2.212 0 0 1-.867-.657 2.72 2.72 0 0 1-.486-1.008 5.159 5.159 0 0 1-.153-1.3V-7.2H74.3v-1.548l1.368-.09.252-2.412h1.728v2.412H79.9V-7.2h-2.25v4.212q0 1.548 1.242 1.548a2.195 2.195 0 0 0 .477-.054 2.236 2.236 0 0 0 .441-.144l.36 1.53a6.89 6.89 0 0 1-.819.225 4.647 4.647 0 0 1-.979.099zM81.756 0v-12.708h2.07v3.276l-.072 1.71a7.283 7.283 0 0 1 1.233-.927 3.038 3.038 0 0 1 1.593-.405 2.367 2.367 0 0 1 2.07.909 4.441 4.441 0 0 1 .648 2.6V0h-2.07v-5.274a2.75 2.75 0 0 0-.328-1.548 1.219 1.219 0 0 0-1.062-.45 1.861 1.861 0 0 0-1.017.279 6.488 6.488 0 0 0-1 .819V0zM95.58.216A4.585 4.585 0 0 1 93.87-.1a4.061 4.061 0 0 1-1.386-.909 4.147 4.147 0 0 1-.927-1.449 5.352 5.352 0 0 1-.333-1.953 5.244 5.244 0 0 1 .342-1.944 4.459 4.459 0 0 1 .909-1.458 4.027 4.027 0 0 1 1.305-.917 3.726 3.726 0 0 1 1.512-.324 3.846 3.846 0 0 1 1.584.306 3.09 3.09 0 0 1 1.143.864 3.8 3.8 0 0 1 .693 1.332 5.825 5.825 0 0 1 .234 1.692q0 .306-.027.576a3.838 3.838 0 0 1-.063.432H93.24a2.854 2.854 0 0 0 .837 1.827 2.513 2.513 0 0 0 1.773.639 3.259 3.259 0 0 0 1.071-.171 4.76 4.76 0 0 0 .981-.477l.7 1.3a6.356 6.356 0 0 1-1.4.684 4.883 4.883 0 0 1-1.622.266zm-2.358-5.472h3.924a2.621 2.621 0 0 0-.441-1.611 1.592 1.592 0 0 0-1.359-.585 1.961 1.961 0 0 0-1.386.558 2.645 2.645 0 0 0-.738 1.638zM100.926 0v-8.838H103V0zm1.044-10.386a1.32 1.32 0 0 1-.918-.324 1.085 1.085 0 0 1-.36-.846 1.112 1.112 0 0 1 .36-.855 1.3 1.3 0 0 1 .918-.333 1.3 1.3 0 0 1 .918.333 1.112 1.112 0 0 1 .36.855 1.085 1.085 0 0 1-.36.846 1.32 1.32 0 0 1-.918.324zM105.642 0v-8.838h1.71l.144 1.566h.072A3.71 3.71 0 0 1 108.7-8.6a2.383 2.383 0 0 1 1.368-.459 2.369 2.369 0 0 1 1.008.18l-.36 1.8a3.779 3.779 0 0 0-.432-.108 2.774 2.774 0 0 0-.486-.036 1.929 1.929 0 0 0-1.1.4 3.129 3.129 0 0 0-.99 1.413V0zm10.314 3.492v-12.33h1.71l.144.936h.072a6.326 6.326 0 0 1 1.242-.81 3.142 3.142 0 0 1 1.422-.342 3.276 3.276 0 0 1 1.467.315 3.042 3.042 0 0 1 1.089.909 4.236 4.236 0 0 1 .684 1.422 6.814 6.814 0 0 1 .234 1.854 6.054 6.054 0 0 1-.315 2.025 4.594 4.594 0 0 1-.837 1.494 3.655 3.655 0 0 1-1.206.927 3.284 3.284 0 0 1-1.422.324 2.854 2.854 0 0 1-1.152-.252 4.408 4.408 0 0 1-1.116-.72l.054 1.476v2.772zm3.852-4.986a1.8 1.8 0 0 0 1.476-.765 3.672 3.672 0 0 0 .594-2.277 3.985 3.985 0 0 0-.45-2.07 1.577 1.577 0 0 0-1.458-.738 2.871 2.871 0 0 0-1.944.99v4.122a3.093 3.093 0 0 0 .936.576 2.5 2.5 0 0 0 .846.162zm10.08 1.71a4.585 4.585 0 0 1-1.71-.315 4.061 4.061 0 0 1-1.386-.909 4.147 4.147 0 0 1-.927-1.449 5.352 5.352 0 0 1-.333-1.953 5.244 5.244 0 0 1 .342-1.944 4.459 4.459 0 0 1 .909-1.458 4.027 4.027 0 0 1 1.305-.918 3.726 3.726 0 0 1 1.512-.324 3.846 3.846 0 0 1 1.584.306 3.09 3.09 0 0 1 1.143.864 3.8 3.8 0 0 1 .693 1.332 5.826 5.826 0 0 1 .234 1.692q0 .306-.027.576a3.838 3.838 0 0 1-.063.432h-5.616a2.854 2.854 0 0 0 .837 1.827 2.513 2.513 0 0 0 1.773.639 3.259 3.259 0 0 0 1.071-.171 4.759 4.759 0 0 0 .981-.477l.7 1.3a6.356 6.356 0 0 1-1.4.684 4.883 4.883 0 0 1-1.622.266zm-2.358-5.472h3.924a2.622 2.622 0 0 0-.441-1.611 1.592 1.592 0 0 0-1.359-.585 1.961 1.961 0 0 0-1.386.558 2.645 2.645 0 0 0-.738 1.638zM135.234 0v-8.838h1.71l.144 1.566h.072a3.71 3.71 0 0 1 1.134-1.328 2.384 2.384 0 0 1 1.368-.459 2.369 2.369 0 0 1 1.008.18l-.36 1.8a3.779 3.779 0 0 0-.432-.108 2.774 2.774 0 0 0-.486-.036 1.929 1.929 0 0 0-1.1.4A3.129 3.129 0 0 0 137.3-5.4V0zm9.072.216a4.9 4.9 0 0 1-1.806-.351 5.853 5.853 0 0 1-1.539-.873l.972-1.332a5.619 5.619 0 0 0 1.179.729 3.079 3.079 0 0 0 1.269.261 1.592 1.592 0 0 0 1.062-.3.967.967 0 0 0 .342-.765.752.752 0 0 0-.162-.477 1.556 1.556 0 0 0-.432-.369 4.153 4.153 0 0 0-.612-.3q-.342-.135-.684-.279-.432-.162-.882-.378a3.545 3.545 0 0 1-.8-.522 2.633 2.633 0 0 1-.576-.711 1.953 1.953 0 0 1-.225-.963 2.393 2.393 0 0 1 .864-1.908 3.513 3.513 0 0 1 2.358-.738 4.078 4.078 0 0 1 1.656.324 6.165 6.165 0 0 1 1.278.738l-.954 1.26a4.937 4.937 0 0 0-.945-.549 2.483 2.483 0 0 0-1-.207 1.451 1.451 0 0 0-.981.279.888.888 0 0 0-.315.693.706.706 0 0 0 .153.459 1.417 1.417 0 0 0 .4.333 4.124 4.124 0 0 0 .585.27q.333.126.693.252.45.162.9.369a3.7 3.7 0 0 1 .819.513 2.339 2.339 0 0 1 .594.747 2.292 2.292 0 0 1 .225 1.053 2.557 2.557 0 0 1-.225 1.071 2.474 2.474 0 0 1-.657.864 3.2 3.2 0 0 1-1.08.585 4.659 4.659 0 0 1-1.474.222zm8.91 0a4.182 4.182 0 0 1-1.584-.306 3.941 3.941 0 0 1-1.341-.9 4.306 4.306 0 0 1-.927-1.458 5.3 5.3 0 0 1-.342-1.962 5.3 5.3 0 0 1 .342-1.962 4.306 4.306 0 0 1 .927-1.458 4.055 4.055 0 0 1 1.341-.909 4.078 4.078 0 0 1 1.584-.315 4.144 4.144 0 0 1 1.593.315 3.936 3.936 0 0 1 1.341.909 4.5 4.5 0 0 1 .927 1.458 5.176 5.176 0 0 1 .351 1.962 5.176 5.176 0 0 1-.351 1.962 4.5 4.5 0 0 1-.927 1.458 3.829 3.829 0 0 1-1.341.9 4.251 4.251 0 0 1-1.593.306zm0-1.692a1.767 1.767 0 0 0 1.53-.8 3.665 3.665 0 0 0 .554-2.134 3.7 3.7 0 0 0-.558-2.151 1.767 1.767 0 0 0-1.53-.8 1.744 1.744 0 0 0-1.521.8 3.746 3.746 0 0 0-.549 2.151 3.71 3.71 0 0 0 .549 2.133 1.744 1.744 0 0 0 1.525.801zM159.48 0v-8.838h1.71l.144 1.188h.072a7.007 7.007 0 0 1 1.287-.99 3.081 3.081 0 0 1 1.611-.414 2.366 2.366 0 0 1 2.07.909 4.441 4.441 0 0 1 .648 2.6V0h-2.07v-5.274a2.75 2.75 0 0 0-.324-1.548 1.219 1.219 0 0 0-1.062-.45 1.861 1.861 0 0 0-1.017.279 6.488 6.488 0 0 0-1 .819V0zm12.22.216a2.573 2.573 0 0 1-1.89-.711 2.525 2.525 0 0 1-.72-1.881 2.587 2.587 0 0 1 .3-1.251 2.56 2.56 0 0 1 .936-.945 6.216 6.216 0 0 1 1.62-.666 14.813 14.813 0 0 1 2.349-.414 3.336 3.336 0 0 0-.1-.657 1.51 1.51 0 0 0-.27-.558 1.256 1.256 0 0 0-.495-.378 1.873 1.873 0 0 0-.756-.135 3.347 3.347 0 0 0-1.269.252 8.533 8.533 0 0 0-1.215.612l-.756-1.384a8.854 8.854 0 0 1 1.656-.81 5.627 5.627 0 0 1 1.98-.342 3.041 3.041 0 0 1 2.475.981 4.317 4.317 0 0 1 .819 2.835V0h-1.71l-.144-.972h-.072a6.494 6.494 0 0 1-1.269.846 3.2 3.2 0 0 1-1.469.342zm.666-1.62a1.942 1.942 0 0 0 .981-.252 5.267 5.267 0 0 0 .945-.72v-1.98a9.449 9.449 0 0 0-1.512.288 4.37 4.37 0 0 0-.99.4 1.443 1.443 0 0 0-.54.513 1.229 1.229 0 0 0-.162.612 1.01 1.01 0 0 0 .36.864 1.488 1.488 0 0 0 .92.279zm8.5 1.62A1.751 1.751 0 0 1 179.3-.45a3.209 3.209 0 0 1-.45-1.818v-10.44h2.07V-2.16a.771.771 0 0 0 .144.531.42.42 0 0 0 .306.153h.135a.763.763 0 0 0 .189-.036l.27 1.548a2.793 2.793 0 0 1-1.1.18zm6.46-.216v-8.838h2.07V0zm1.044-10.386a1.32 1.32 0 0 1-.918-.324 1.085 1.085 0 0 1-.36-.846 1.112 1.112 0 0 1 .36-.855 1.3 1.3 0 0 1 .918-.333 1.3 1.3 0 0 1 .918.333 1.112 1.112 0 0 1 .36.855 1.085 1.085 0 0 1-.36.846 1.32 1.32 0 0 1-.918.324zM192.042 0v-8.838h1.71l.148 1.188h.072a7.006 7.006 0 0 1 1.287-.99 3.081 3.081 0 0 1 1.611-.414 2.367 2.367 0 0 1 2.07.909 4.441 4.441 0 0 1 .648 2.6V0h-2.07v-5.274a2.75 2.75 0 0 0-.324-1.548 1.219 1.219 0 0 0-1.062-.45 1.861 1.861 0 0 0-1.017.279 6.488 6.488 0 0 0-1 .819V0zm10.44 0v-7.2h-1.188v-1.548l1.188-.09v-.918a4.741 4.741 0 0 1 .162-1.269 2.6 2.6 0 0 1 .522-1.008 2.416 2.416 0 0 1 .909-.657 3.419 3.419 0 0 1 1.341-.234 4.273 4.273 0 0 1 .891.09 4.255 4.255 0 0 1 .729.216l-.4 1.548a2.376 2.376 0 0 0-.972-.216q-1.116 0-1.116 1.494v.954h1.728V-7.2h-1.728V0zm8.784.216a4.182 4.182 0 0 1-1.584-.306 3.941 3.941 0 0 1-1.341-.9 4.306 4.306 0 0 1-.927-1.458 5.3 5.3 0 0 1-.342-1.962 5.3 5.3 0 0 1 .342-1.962 4.306 4.306 0 0 1 .927-1.458 4.055 4.055 0 0 1 1.341-.909 4.078 4.078 0 0 1 1.584-.315 4.144 4.144 0 0 1 1.593.315 3.936 3.936 0 0 1 1.341.909 4.5 4.5 0 0 1 .927 1.458 5.176 5.176 0 0 1 .351 1.962 5.176 5.176 0 0 1-.351 1.962A4.5 4.5 0 0 1 214.2-.99a3.829 3.829 0 0 1-1.341.9 4.251 4.251 0 0 1-1.593.306zm0-1.692a1.767 1.767 0 0 0 1.53-.8 3.665 3.665 0 0 0 .558-2.133 3.7 3.7 0 0 0-.558-2.151 1.767 1.767 0 0 0-1.53-.8 1.744 1.744 0 0 0-1.521.8 3.746 3.746 0 0 0-.545 2.15 3.71 3.71 0 0 0 .549 2.133 1.744 1.744 0 0 0 1.517.801zM217.53 0v-8.838h1.71l.144 1.566h.072A3.71 3.71 0 0 1 220.59-8.6a2.384 2.384 0 0 1 1.368-.459 2.369 2.369 0 0 1 1.008.18l-.36 1.8a3.778 3.778 0 0 0-.432-.108 2.774 2.774 0 0 0-.486-.036 1.929 1.929 0 0 0-1.1.4A3.129 3.129 0 0 0 219.6-5.4V0zm6.714 0v-8.838h1.71l.144 1.206h.072a6.2 6.2 0 0 1 1.215-1.008 2.727 2.727 0 0 1 1.485-.414 2.643 2.643 0 0 1 1.557.414 2.57 2.57 0 0 1 .891 1.17 7.11 7.11 0 0 1 1.314-1.13 2.723 2.723 0 0 1 1.53-.45 2.4 2.4 0 0 1 2.07.909 4.349 4.349 0 0 1 .666 2.6V0h-2.088v-5.274a2.69 2.69 0 0 0-.333-1.548 1.182 1.182 0 0 0-1.017-.45 2.784 2.784 0 0 0-1.854 1.1V0h-2.07v-5.274a2.69 2.69 0 0 0-.333-1.548 1.2 1.2 0 0 0-1.035-.45 2.784 2.784 0 0 0-1.854 1.1V0zm17.316.216a2.573 2.573 0 0 1-1.89-.716 2.525 2.525 0 0 1-.72-1.881 2.587 2.587 0 0 1 .3-1.251 2.56 2.56 0 0 1 .936-.945 6.216 6.216 0 0 1 1.62-.666 14.813 14.813 0 0 1 2.349-.414 3.336 3.336 0 0 0-.1-.657 1.51 1.51 0 0 0-.27-.558 1.256 1.256 0 0 0-.495-.378 1.873 1.873 0 0 0-.756-.135 3.347 3.347 0 0 0-1.269.252 8.533 8.533 0 0 0-1.215.612l-.758-1.379a8.854 8.854 0 0 1 1.656-.81 5.627 5.627 0 0 1 1.98-.342 3.041 3.041 0 0 1 2.475.981 4.317 4.317 0 0 1 .819 2.835V0h-1.71l-.144-.972h-.068a6.494 6.494 0 0 1-1.269.846 3.2 3.2 0 0 1-1.471.342zm.666-1.62a1.942 1.942 0 0 0 .981-.252 5.267 5.267 0 0 0 .945-.72v-1.98a9.449 9.449 0 0 0-1.512.288 4.37 4.37 0 0 0-.99.4 1.443 1.443 0 0 0-.54.513 1.229 1.229 0 0 0-.162.612 1.01 1.01 0 0 0 .36.864 1.488 1.488 0 0 0 .918.279zm9.306 1.62a3.233 3.233 0 0 1-1.3-.234 2.212 2.212 0 0 1-.864-.657 2.72 2.72 0 0 1-.486-1.008 5.159 5.159 0 0 1-.153-1.3V-7.2h-1.26v-1.548l1.368-.09.252-2.412h1.728v2.412h2.25V-7.2h-2.25v4.212q0 1.548 1.242 1.548a2.195 2.195 0 0 0 .477-.054 2.236 2.236 0 0 0 .441-.144l.36 1.53a6.89 6.89 0 0 1-.819.225 4.647 4.647 0 0 1-.986.099zM254.916 0v-8.838h2.07V0zm1.044-10.386a1.32 1.32 0 0 1-.918-.324 1.085 1.085 0 0 1-.36-.846 1.112 1.112 0 0 1 .36-.855 1.3 1.3 0 0 1 .918-.333 1.3 1.3 0 0 1 .918.333 1.112 1.112 0 0 1 .36.855 1.085 1.085 0 0 1-.36.846 1.32 1.32 0 0 1-.918.324zm7.29 10.6a4.182 4.182 0 0 1-1.584-.306 3.941 3.941 0 0 1-1.341-.9 4.306 4.306 0 0 1-.927-1.458 5.3 5.3 0 0 1-.342-1.962 5.3 5.3 0 0 1 .342-1.962 4.306 4.306 0 0 1 .927-1.458 4.055 4.055 0 0 1 1.341-.909 4.078 4.078 0 0 1 1.584-.315 4.144 4.144 0 0 1 1.593.315 3.936 3.936 0 0 1 1.341.909 4.5 4.5 0 0 1 .927 1.458 5.175 5.175 0 0 1 .351 1.962 5.175 5.175 0 0 1-.351 1.962 4.5 4.5 0 0 1-.927 1.458 3.829 3.829 0 0 1-1.341.9 4.25 4.25 0 0 1-1.593.308zm0-1.692a1.767 1.767 0 0 0 1.53-.8 3.665 3.665 0 0 0 .558-2.133 3.7 3.7 0 0 0-.558-2.151 1.767 1.767 0 0 0-1.53-.8 1.744 1.744 0 0 0-1.521.8 3.746 3.746 0 0 0-.549 2.151 3.71 3.71 0 0 0 .549 2.133 1.744 1.744 0 0 0 1.521.802zM269.514 0v-8.838h1.71l.144 1.188h.072a7.008 7.008 0 0 1 1.287-.99 3.081 3.081 0 0 1 1.611-.414 2.367 2.367 0 0 1 2.07.909 4.441 4.441 0 0 1 .648 2.6V0h-2.07v-5.274a2.75 2.75 0 0 0-.324-1.548 1.219 1.219 0 0 0-1.062-.45 1.861 1.861 0 0 0-1.017.279 6.487 6.487 0 0 0-1 .819V0z" transform="translate(23.419 209.487)"/><path id="AMERICAN_ADULTS" data-name="AMERICAN ADULTS" class="cls-3" d="M14.063 0l-.68-4.219H7.594L6.961 0h-6l5.953-33.117h7.242l6 33.117zm-1.477-9.8l-2.063-13.333L8.344-9.8zm25.906-23.32h7.734V0H40.18v-22.852l-4.9 12.281h-1.874l-4.9-12.281V0h-5.74v-33.117h7.523l4.125 10.266zm18.289 5.672v10.453h7.43l-.961 5.675h-6.469v5.648h9.211V0H50.734v-33.117h15.258v5.672zM74.859-11.32V0h-6.046v-33.117h7.828a8.907 8.907 0 0 1 6.621 2.332 9.043 9.043 0 0 1 2.309 6.645v3.84a10.871 10.871 0 0 1-.891 4.582 6.956 6.956 0 0 1-2.625 3.035L86.766 0h-6.375l-4.032-11.32zm1.594-5.672a2.888 2.888 0 0 0 2.355-.867 4.374 4.374 0 0 0 .715-2.789v-3.164a4.27 4.27 0 0 0-.723-2.778 2.915 2.915 0 0 0-2.344-.855h-1.597v10.453zM89.469 0v-33.117h6.047V0zm18.289-34.078a8.241 8.241 0 0 1 6.152 2.278 8.533 8.533 0 0 1 2.238 6.258v2.086l-5.859.281v-1.828a4.553 4.553 0 0 0-.574-2.59 2.074 2.074 0 0 0-1.816-.809q-2.391 0-2.414 2.93V-8.6q0 2.93 2.414 2.93a2.074 2.074 0 0 0 1.816-.809 4.553 4.553 0 0 0 .574-2.59v-2.344l5.859.281v2.578a8.574 8.574 0 0 1-2.238 6.27A8.217 8.217 0 0 1 107.758 0a8.153 8.153 0 0 1-6.105-2.262 8.611 8.611 0 0 1-2.215-6.293v-16.992a8.569 8.569 0 0 1 2.215-6.281 8.177 8.177 0 0 1 6.105-2.25zM130.688 0l-.68-4.219h-5.789L123.586 0h-6l5.953-33.117h7.242l6 33.117zm-1.477-9.8l-2.062-13.336-2.18 13.336zm22.414-23.32h5.766V0h-5.812l-6.445-18.422V0h-5.742v-33.117h6.469l5.766 16.172zM181.2 0l-.68-4.219h-5.789L174.094 0h-6l5.953-33.117h7.242l6 33.117zm-1.477-9.8l-2.062-13.336L175.477-9.8zm18.2-23.32q4.641 0 7.02 2.3t2.379 6.68v15.163q0 4.359-2.379 6.668T197.914 0h-7.781v-33.117zM197.7-5.672q3.563 0 3.563-3.633v-14.507q0-3.656-3.562-3.633h-1.521v21.773zm29.87-2.344a8.514 8.514 0 0 1-2.2 6.258 8.314 8.314 0 0 1-6.19 2.227 8.21 8.21 0 0 1-6.129-2.227 8.541 8.541 0 0 1-2.191-6.258v-25.1h5.859v24.96a3.184 3.184 0 0 0 .727 2.227 2.222 2.222 0 0 0 1.688.8 2.187 2.187 0 0 0 1.676-.8 3.218 3.218 0 0 0 .715-2.227v-24.961h6.047zm18.57 2.25L245.18 0h-13.57v-33.117h6.047v27.351zm9.781-21.586V0h-6.047v-27.352h-6.4l.961-5.766h16.9l.961 5.766zm15.055-6.258a8.024 8.024 0 0 1 5.953 2.121 7.993 7.993 0 0 1 2.109 5.895v4.664l-5.859.586v-5.133q0-2.437-2.109-2.461-2.109 0-2.109 2.461v2.344a4.161 4.161 0 0 0 .961 2.719 7.312 7.312 0 0 0 3.117 1.992 11.481 11.481 0 0 1 4.277 2.438 6.744 6.744 0 0 1 1.875 3.141 16.886 16.886 0 0 1 .434 4.1v1.2a7.836 7.836 0 0 1-2.18 5.906 8.5 8.5 0 0 1-6.164 2.106 8.543 8.543 0 0 1-6.176-2.109 7.813 7.813 0 0 1-2.191-5.906v-3.634l5.859-.586v3.891a3.04 3.04 0 0 0 .574 2.039 2.293 2.293 0 0 0 1.816.656 2.355 2.355 0 0 0 1.828-.645 2.991 2.991 0 0 0 .586-2.051v-.609a4.278 4.278 0 0 0-.844-2.719 8.5 8.5 0 0 0-3.375-2.133 9.939 9.939 0 0 1-5.027-3.867 11.059 11.059 0 0 1-1.418-5.742v-2.648a7.985 7.985 0 0 1 2.109-5.906 8.05 8.05 0 0 1 5.955-2.109z" transform="translate(22.889 187.642)"/><path id="Path_3940" data-name="Path 3940" class="cls-4" d="M6.066.216A5.138 5.138 0 0 1 3.96-.207a4.56 4.56 0 0 1-1.638-1.224A5.733 5.733 0 0 1 1.26-3.366 8.122 8.122 0 0 1 .882-5.94a7.976 7.976 0 0 1 .378-2.547 5.447 5.447 0 0 1 1.062-1.9 4.606 4.606 0 0 1 1.638-1.187 5.235 5.235 0 0 1 2.106-.414 5.235 5.235 0 0 1 2.106.414 4.693 4.693 0 0 1 1.647 1.188 5.369 5.369 0 0 1 1.071 1.9 7.976 7.976 0 0 1 .378 2.547 8.122 8.122 0 0 1-.378 2.574 5.647 5.647 0 0 1-1.071 1.934A4.643 4.643 0 0 1 8.172-.207a5.138 5.138 0 0 1-2.106.423zm0-1.818a2.577 2.577 0 0 0 1.26-.306 2.806 2.806 0 0 0 .954-.873 4.345 4.345 0 0 0 .612-1.368 6.879 6.879 0 0 0 .216-1.791 5.186 5.186 0 0 0-.819-3.105 2.606 2.606 0 0 0-2.223-1.125 2.606 2.606 0 0 0-2.223 1.125 5.186 5.186 0 0 0-.819 3.105 6.879 6.879 0 0 0 .216 1.791 4.345 4.345 0 0 0 .612 1.368 2.806 2.806 0 0 0 .954.873 2.577 2.577 0 0 0 1.26.308zM13.626 0v-11.772h7.11v1.764h-5.022v3.33H20v1.764h-4.286V0z" transform="translate(0 176.482)"/><path id="percent" class="cls-9" d="M268.9 87.7c1.8 1.8 2.6 4.3 2.6 7.4v7.8a10.159 10.159 0 0 1-2.7 7.4 10.8 10.8 0 0 1-14.4-.1 10.266 10.266 0 0 1-2.6-7.3v-7.8a10.159 10.159 0 0 1 2.7-7.4 9.556 9.556 0 0 1 7.2-2.7 9.063 9.063 0 0 1 7.2 2.7zm-11.7 57.8l29-62.2h7.4l-29 62.2zm2.8-52.8a4.558 4.558 0 0 0-.5 2.3v7.8a4.558 4.558 0 0 0 .5 2.3 2.2 2.2 0 0 0 3.1.1l.1-.1a4.193 4.193 0 0 0 .5-2.2v-7.8a4.558 4.558 0 0 0-.5-2.3 1.731 1.731 0 0 0-1.6-.7 2.026 2.026 0 0 0-1.6.6zm36.3 26c1.8 1.8 2.6 4.3 2.6 7.4v7.7a10.159 10.159 0 0 1-2.7 7.4 10.8 10.8 0 0 1-14.4-.1 10.075 10.075 0 0 1-2.6-7.4V126a10.159 10.159 0 0 1 2.7-7.4 9.556 9.556 0 0 1 7.2-2.7c3.1.1 5.5 1 7.2 2.8zm-8.8 5.1a4.558 4.558 0 0 0-.5 2.3v7.7a4.558 4.558 0 0 0 .5 2.3 2.2 2.2 0 0 0 3.1.1l.1-.1a4.558 4.558 0 0 0 .5-2.3v-7.7a4.558 4.558 0 0 0-.5-2.3 1.731 1.731 0 0 0-1.6-.7 2.575 2.575 0 0 0-1.6.7z"/><path id="_7" data-name="7" class="cls-9" d="M231.8 63.6L203 145.4l16.8.1 28.8-83.6.1-14.2-48.5-.2-2.7 16z"/><path id="_4" data-name="4" class="cls-9" d="M190 24.3l-16-.1-32.6 63.1v13.3l32.1.1-.1 21.4 16.3.1.1-21.4h4.3l2.7-15.1h-6.9zm-16.5 61.2h-14.4l14.5-31.4z"/></g></svg>