<svg xmlns="http://www.w3.org/2000/svg" viewBox="0 0 319.495 213.584"><defs><style>.cls-1{fill:#daeaf8}.cls-2{fill:#24539b}.cls-3{fill:#119e49}.cls-4{fill:#fff}.cls-5{fill:#0e2044}.cls-6{fill:#db2140}.cls-7{fill:#5893ce}</style></defs><g id="_1-in-3-homes_outlined" data-name="1-in-3-homes outlined" transform="translate(.002 .001)"><path id="sky" class="cls-1" d="M179.8 89.7a85.865 85.865 0 0 0-1.3-15.2h-22.7c-3.7 0-6.5-2-6.5-4.4s2.4-4.4 5.6-4.3c3 0 5.6-2 5.6-4.3 0-2.4 2.8-4.4 6.6-4.3h7.1a95 95 0 0 0-15.4-26 2.04 2.04 0 0 0-1.4 2 5.384 5.384 0 0 1-5.1 5.4h-1.6c-3.4 0-5.9 2.1-5.9 4.6 0 2.6-2.8 5.4-5.9 5.4l-16-.1c-3 0-6.4-2.3-6.4-5.1v-2.6c0-5.1 4.9-5.1 7.8-5.1h2.6c3 0 5.1-.2 5.1-2.6 0-2.3-3-2.6-6.1-2.6l-16.5-.1c-3.4 0-5.9-2.3-5.9-5.1a5.451 5.451 0 0 1 5.7-5.1h5.9c3.4 0 6.5-2.6 6.5-5.1a5.121 5.121 0 0 1 5.1-5.1h5.4A97.725 97.725 0 0 0 90.3 0 89.859 89.859 0 0 0 0 89.3a88.868 88.868 0 0 0 11.9 45l155.2 1.5a88.333 88.333 0 0 0 12.7-45.6v-.5z"/><g id="roof_blue" data-name="roof blue"><g id="Group_675" data-name="Group 675"><g id="Group_523_1_"><path id="Path_3527_1_" class="cls-2" d="M35.8 41.6l45.6-.5-47 46.7z"/></g></g></g><g id="roof_blue-2" data-name="roof blue"><g id="Group_676" data-name="Group 676"><g id="Group_524_1_"><path id="Path_3528_1_" class="cls-2" d="M143.5 42.2l-45.6-.8 46.5 47.1z"/></g></g></g><path id="ground" class="cls-3" d="M-3593.8-869.9l.1-.1-131.1-.5h-.1a84.551 84.551 0 0 1-10.8-14.4 2.182 2.182 0 0 1-.5-.8 4.606 4.606 0 0 1-.319-.5 8.409 8.409 0 0 1-.481-.8l155.2 1.4-.061.1h.161a94.05 94.05 0 0 1-11.8 15.6zm.156-.16a78.794 78.794 0 0 0 10.929-14.065 95.131 95.131 0 0 1-10.931 14.065z" transform="translate(3749.002 1020.901)"/><path id="cloud_outside_bg" data-name="cloud outside bg" class="cls-1" d="M158.5 31a14.861 14.861 0 0 1 5.1-.6h12.6c3 0 4.2-2.3 4.2-5.1s-.9-5.1-4.1-5.1h-4.9c-3 0-6.4-2.6-6.4-5.1a5.121 5.121 0 0 0-5.1-5.1l-28-.3A92.927 92.927 0 0 1 158.5 31z"/><path id="house_walls_white" data-name="house walls white" class="cls-4" d="M-823.4-1497.8l-48.1 47.7v5.9c.2 0 .3-.1.5-.1a2.165 2.165 0 0 1 2.1 2v.1l-.1 31.2a2.118 2.118 0 0 1 0 1.9l-.2.5a2.241 2.241 0 0 1-1.9 1.2.6.6 0 0 1-.4-.1v8.7l28.9.1v-7.5a2.035 2.035 0 0 1 .6-1.5 1.717 1.717 0 0 1 1.5-.6h5.2l.1-35.7a2.135 2.135 0 0 1 2.1-2.2l19 .1a2.135 2.135 0 0 1 2.2 2.1l-.1 35.7h5.2a2.165 2.165 0 0 1 2.1 2v.1a2.165 2.165 0 0 1-2 2.1h-.1l-31.8-.1v5.4h1c.3-.2.8.5 1.3.5l8.2-.8 49.4-1.7.4-6.6a2.131 2.131 0 0 1-1.5-2l.1-32.6a2.165 2.165 0 0 1 2-2.1h.1a2.389 2.389 0 0 1 1.4.5l.4-6.1-40.9-41.4zm-17.3 78.6l-22.7-.1a2.165 2.165 0 0 1-2.1-2v-.1a2.165 2.165 0 0 1 2-2.1h1.7v-9.4c0-.2-.1-.3-.1-.5a.9.9 0 0 1 .1-.5l.1-10.2a2.271 2.271 0 0 1 .6-1.6 2.928 2.928 0 0 1 1.6-.7l15.1.1a2.135 2.135 0 0 1 2.2 2.1l-.1 20.7h1.6a2.165 2.165 0 0 1 2.1 2v.1a2.1 2.1 0 0 1-1.9 2.2zm17.2-45.2a7.9 7.9 0 0 1-7.9-7.8v-.1a7.982 7.982 0 0 1 7.9-7.9 7.982 7.982 0 0 1 7.9 7.9 8.119 8.119 0 0 1-7.9 7.9z" transform="translate(912.662 1534.19)"/><path id="background" class="cls-5" d="M-784.1-1423.2h-1.6l.1-20.7a2.36 2.36 0 0 0-.7-1.6 2.035 2.035 0 0 0-1.5-.6l-15.1-.1a2.36 2.36 0 0 0-1.6.7 2.035 2.035 0 0 0-.6 1.5l-.1 20.6h-1.6a2.165 2.165 0 0 0-2.1 2v.1a2.165 2.165 0 0 0 2 2.1h.1l22.7.1a2.165 2.165 0 0 0 2.1-2v-.1a2.165 2.165 0 0 0-2.1-2zm-16.8-18.7l11.1.1v6.6h-11.1zm-.1 11h11.1v7.8l-11.1-.1z" transform="translate(912.662 1534.19)"/><path id="roof_border" data-name="roof border" class="cls-5" d="M-767-1494.2a2.035 2.035 0 0 0-1.5-.6l-46.3-.2-7-7a2.035 2.035 0 0 0-1.5-.6h-.2a2.035 2.035 0 0 0-1.5.6l-6.8 6.8-46.5-.1a2.035 2.035 0 0 0-1.5.6 1.716 1.716 0 0 0-.6 1.5l-.1 47.1a2.188 2.188 0 0 0 1.3 2 2.362 2.362 0 0 0 2.3-.4l5.5-5.4v-.1l48.1-47.6 47.8 48.2 4.7 4.7a2.191 2.191 0 0 0 1.9 1.4 2.165 2.165 0 0 0 2.1-2v-.1l.4-47.2a2.271 2.271 0 0 0-.6-1.6zm-109.3 42.9l.1-39.7 40 .1zm105.3.4l-39.6-39.9 39.8.2z" transform="translate(912.662 1534.19)"/><path id="wall_border_left" data-name="wall border left" class="cls-5" d="M-3735.1-850.1c-.1 0-.2-.1-.4-.1v-.036a2.239 2.239 0 0 1-1.5-2.064l.1-32.6a2.141 2.141 0 0 1 1.5-1.975v-.026a.905.905 0 0 1 .5-.1h.1a2.164 2.164 0 0 1 2 2.1l-.1 31.2a2.116 2.116 0 0 1 0 1.9l-.2.5a1.869 1.869 0 0 1-1.771 1.212 2.052 2.052 0 0 1-.229-.011z" transform="translate(3776.464 976.791)"/><path id="window_border_left" data-name="window border left" class="cls-5" d="M-840.7-1423.4h-1.6l.1-20.7a2.005 2.005 0 0 0-1.9-2.1h-.3l-15.1-.1a2.36 2.36 0 0 0-1.6.7 2.271 2.271 0 0 0-.6 1.6l-.1 20.6h-1.6a2.165 2.165 0 0 0-2.1 2v.1a2.165 2.165 0 0 0 2 2.1h.1l22.7.1a2.165 2.165 0 0 0 2.1-2v-.1a2.135 2.135 0 0 0-2.1-2.2zm-5.8 0l-11.1-.1v-7.9l11.1.1zm.1-12l-11.1-.1v-6.6l11.1.1z" transform="translate(912.662 1534.19)"/><path id="attic_window" data-name="attic window" class="cls-5" d="M-823.5-1480.2a7.982 7.982 0 0 0-7.9 7.9 7.982 7.982 0 0 0 7.9 7.9 8.119 8.119 0 0 0 7.9-7.9 7.982 7.982 0 0 0-7.9-7.9zm0 11.6a3.757 3.757 0 0 1-3.7-3.7 3.757 3.757 0 0 1 3.7-3.7 3.757 3.757 0 0 1 3.7 3.7 3.9 3.9 0 0 1-3.7 3.7z" transform="translate(912.662 1534.19)"/><path id="attic_window_inside" data-name="attic window inside" class="cls-4" d="M-823.5-1476a3.757 3.757 0 0 0-3.7 3.7 3.757 3.757 0 0 0 3.7 3.7 3.757 3.757 0 0 0 3.7-3.7 3.757 3.757 0 0 0-3.7-3.7z" transform="translate(912.662 1534.19)"/><path id="door_and_step" data-name="door and step" class="cls-5" d="M-806.7-1408.2h-5.3l.1-35.7a2.005 2.005 0 0 0-1.9-2.1h-.3l-19-.1a2.005 2.005 0 0 0-2.1 1.9v.3l-.1 35.7h-5.2a2.035 2.035 0 0 0-1.5.6 2.035 2.035 0 0 0-.6 1.5v7.4a2.165 2.165 0 0 0 2 2.1h.1a2.165 2.165 0 0 0 2.1-2v-5.4h31.6a2.165 2.165 0 0 0 2.1-2v-.1a2.165 2.165 0 0 0-2-2.1zm-9.6 0l-14.9-.1.1-33.7 14.9.1z" transform="translate(912.662 1534.19)"/><path id="wall_border_right" data-name="wall border right" class="cls-5" d="M-3735.6-850.3v-.035a2.123 2.123 0 0 1-1.4-1.964l.1-32.6v-.1a2.165 2.165 0 0 1 2.1-2 3.943 3.943 0 0 1 1.5.6l-.006.1a2.34 2.34 0 0 1 .605 1.5l-.1 32.6v.1a2.166 2.166 0 0 1-2.1 2 1.848 1.848 0 0 1-.699-.201z" transform="translate(3870.063 977.191)"/><path id="foundation_borrder" data-name="foundation borrder" class="cls-5" d="M-3734.9-882.8h-.1a2.165 2.165 0 0 1-2-2.1 2.235 2.235 0 0 1 1-1.8 1.686 1.686 0 0 1 1-.3l57.9.2h3.9a2.164 2.164 0 0 1 2 2.1v.1a2.164 2.164 0 0 1-2.1 2z" transform="translate(3811.264 1020.291)"/><path id="bush_bg_left" data-name="bush bg left" class="cls-3" d="M-872.8-1410.1a5.743 5.743 0 0 0-5.7 5.6 5.591 5.591 0 0 0 5.5 5.7h.1l20.8.1a3.757 3.757 0 0 0 3.7-3.7 3.757 3.757 0 0 0-3.7-3.7c-.1 0-.1 0-.1-.1a7.537 7.537 0 0 0-7.3-7.6 7.536 7.536 0 0 0-7.6 7.3v.2c0 .1 0 .1-.1.1h-.1a5.835 5.835 0 0 0-5.5-3.9z" transform="translate(912.662 1534.19)"/><path id="bush_bg_right" data-name="bush bg right" class="cls-3" d="M-787.9-1413.5a7.449 7.449 0 0 0-7.5 7.3v.1c0 .1 0 .1-.1.1a3.757 3.757 0 0 0-3.7 3.7 3.757 3.757 0 0 0 3.7 3.7l20.8.1a5.743 5.743 0 0 0 5.7-5.6 5.743 5.743 0 0 0-5.6-5.7 6.282 6.282 0 0 0-5.7 3.7h-.1c-.1 0-.1 0-.1-.1a7.344 7.344 0 0 0-7.1-7.5c-.2.2-.3.2-.3.2z" transform="translate(912.662 1534.19)"/><path id="bush_border_left" data-name="bush border left" class="cls-5" d="M-852.2-1396.7l-20.8-.1a7.472 7.472 0 0 1-5.5-2.3 7.543 7.543 0 0 1-2.2-5.5 7.683 7.683 0 0 1 7.7-7.6 6.711 6.711 0 0 1 4.5 1.4 10.767 10.767 0 0 1 1.8-2.4 9.368 9.368 0 0 1 6.7-2.7h.1a9.622 9.622 0 0 1 9.3 8 5.58 5.58 0 0 1 3.9 5.5 5.371 5.371 0 0 1-5 5.7h-.5zm-20.7-11.3a3.543 3.543 0 0 0-3.5 3.5 3.84 3.84 0 0 0 .9 2.5 3.492 3.492 0 0 0 2.4 1l20.7.1a1.579 1.579 0 0 0 1.6-1.6 1.579 1.579 0 0 0-1.6-1.6 2.22 2.22 0 0 1-2.2-2.2v-.1a5.529 5.529 0 0 0-5.4-5.5 5.377 5.377 0 0 0-5.5 5.3v.2a2.271 2.271 0 0 1-.6 1.6 2.36 2.36 0 0 1-1.6.7h-.2a2.043 2.043 0 0 1-2-1.6 3.009 3.009 0 0 0-3-2.3z" transform="translate(912.662 1534.19)"/><path id="bush_border_right" data-name="bush border right" class="cls-5" d="M-774.8-1396.4l-20.8-.1a5.8 5.8 0 0 1-5.8-5.8 5.794 5.794 0 0 1 4-5.5 9.542 9.542 0 0 1 9.4-7.9h.3a9.164 9.164 0 0 1 6.6 2.9 8.067 8.067 0 0 1 1.7 2.4 8.731 8.731 0 0 1 4.7-1.5 7.683 7.683 0 0 1 7.6 7.7v.1a7.472 7.472 0 0 1-2.3 5.5 6.955 6.955 0 0 1-5.4 2.2zm-13.2-15a5.378 5.378 0 0 0-5.4 5.4 2.271 2.271 0 0 1-.6 1.6 2.928 2.928 0 0 1-1.6.7 1.666 1.666 0 0 0-1.7 1.6 1.579 1.579 0 0 0 1.6 1.6l20.8.1a3.841 3.841 0 0 0 2.5-.9 3.492 3.492 0 0 0 1-2.4 3.7 3.7 0 0 0-3.5-3.6 3.935 3.935 0 0 0-3.7 2.4 2.051 2.051 0 0 1-1.9 1.3h-.1a2.1 2.1 0 0 1-2.2-1.9v-.3a5.367 5.367 0 0 0-1.5-3.8 5.233 5.233 0 0 0-3.7-1.6v-.2z" transform="translate(912.662 1534.19)"/><path id="Path_3580_1_" class="cls-6" d="M81.6 92.2l14.9.1-.1 33.7-14.9-.1z"/><path id="Path_3581_1_" class="cls-1" d="M111.7 92.3l11.2.2-.1 6.6h-11.1z"/><path id="Path_3582_1_" class="cls-1" d="M111.7 103.3h11.1v7.7l-11.2-.1z"/><path id="MALICIOUS_SOFTWARE" data-name="MALICIOUS SOFTWARE" class="cls-2" d="M16.461-29.667h6.929V0h-5.417v-20.471l-4.388 11H11.9l-4.388-11V0H2.373v-29.667h6.74l3.7 9.2zM38.339 0l-.609-3.779h-5.186L31.977 0H26.6l5.333-29.667h6.488L43.8 0zm-1.323-8.776l-1.848-11.947-1.952 11.947zm23.033 3.611L59.188 0H47.031v-29.667h5.417v24.5zM62.925 0v-29.667h5.417V0zm17.28-30.528a7.382 7.382 0 0 1 5.511 2.037 7.644 7.644 0 0 1 2.005 5.606v1.869l-5.249.252V-22.4a4.079 4.079 0 0 0-.514-2.32 1.858 1.858 0 0 0-1.627-.724q-2.142 0-2.163 2.625v15.113q0 2.625 2.163 2.625a1.858 1.858 0 0 0 1.627-.724 4.079 4.079 0 0 0 .514-2.32v-2.1l5.249.252v2.31a7.681 7.681 0 0 1-2.005 5.616A7.361 7.361 0 0 1 80.205 0a7.3 7.3 0 0 1-5.469-2.026 7.714 7.714 0 0 1-1.984-5.637v-15.223a7.677 7.677 0 0 1 1.984-5.627 7.325 7.325 0 0 1 5.469-2.015zM91.585 0v-29.667H97V0zm17.574-30.4a7.536 7.536 0 0 1 5.7 2.173 8.112 8.112 0 0 1 2.089 5.868v14.443a8.112 8.112 0 0 1-2.089 5.868 7.536 7.536 0 0 1-5.7 2.173 7.536 7.536 0 0 1-5.7-2.173 8.112 8.112 0 0 1-2.089-5.868v-14.445a8.112 8.112 0 0 1 2.089-5.868 7.536 7.536 0 0 1 5.7-2.171zm0 5.081q-2.373 0-2.373 3v14.361q0 3 2.373 3t2.352-3v-14.361q-.001-3.002-2.352-3.002zm26.812 18.138A7.627 7.627 0 0 1 134-1.575 7.448 7.448 0 0 1 128.454.42a7.354 7.354 0 0 1-5.49-1.995A7.651 7.651 0 0 1 121-7.181v-22.486h5.249v22.36a2.853 2.853 0 0 0 .651 1.995 1.991 1.991 0 0 0 1.512.714 1.959 1.959 0 0 0 1.5-.714 2.883 2.883 0 0 0 .64-1.995v-22.36h5.417zm10.435-22.928a7.188 7.188 0 0 1 5.333 1.9 7.16 7.16 0 0 1 1.89 5.281v4.178l-5.249.525v-4.6q0-2.184-1.89-2.2-1.89 0-1.89 2.2v2.1a3.728 3.728 0 0 0 .861 2.436 6.55 6.55 0 0 0 2.792 1.785 10.285 10.285 0 0 1 3.832 2.184 6.041 6.041 0 0 1 1.68 2.813 15.127 15.127 0 0 1 .388 3.674v1.071A7.02 7.02 0 0 1 152.2-1.47a7.616 7.616 0 0 1-5.521 1.89 7.653 7.653 0 0 1-5.532-1.89 7 7 0 0 1-1.963-5.291v-3.254l5.249-.525v3.485a2.724 2.724 0 0 0 .514 1.827 2.054 2.054 0 0 0 1.627.588 2.11 2.11 0 0 0 1.638-.577 2.679 2.679 0 0 0 .525-1.837V-7.6a3.832 3.832 0 0 0-.756-2.436 7.616 7.616 0 0 0-3.023-1.911 8.9 8.9 0 0 1-4.5-3.464 9.907 9.907 0 0 1-1.27-5.144v-2.373a7.153 7.153 0 0 1 1.89-5.291 7.212 7.212 0 0 1 5.328-1.889zm24.628 0a7.188 7.188 0 0 1 5.333 1.9 7.16 7.16 0 0 1 1.89 5.281v4.178l-5.249.525v-4.6q0-2.184-1.89-2.2-1.89 0-1.89 2.2v2.1a3.728 3.728 0 0 0 .861 2.436 6.55 6.55 0 0 0 2.792 1.785 10.285 10.285 0 0 1 3.832 2.184 6.041 6.041 0 0 1 1.68 2.813 15.127 15.127 0 0 1 .388 3.674v1.071a7.02 7.02 0 0 1-1.953 5.291A7.616 7.616 0 0 1 171.307.42a7.653 7.653 0 0 1-5.532-1.89 7 7 0 0 1-1.963-5.291v-3.254l5.249-.525v3.485a2.724 2.724 0 0 0 .514 1.827 2.054 2.054 0 0 0 1.627.588 2.11 2.11 0 0 0 1.638-.577 2.679 2.679 0 0 0 .525-1.837V-7.6a3.832 3.832 0 0 0-.756-2.436 7.616 7.616 0 0 0-3.023-1.911 8.9 8.9 0 0 1-4.5-3.464 9.907 9.907 0 0 1-1.27-5.144v-2.373a7.153 7.153 0 0 1 1.89-5.291 7.212 7.212 0 0 1 5.328-1.889zm17.889-.294a7.536 7.536 0 0 1 5.7 2.173 8.112 8.112 0 0 1 2.089 5.868v14.446a8.112 8.112 0 0 1-2.089 5.868 7.536 7.536 0 0 1-5.7 2.173 7.536 7.536 0 0 1-5.7-2.173 8.112 8.112 0 0 1-2.089-5.868v-14.445a8.112 8.112 0 0 1 2.089-5.868 7.536 7.536 0 0 1 5.7-2.171zm0 5.081q-2.373 0-2.373 3v14.364q0 3 2.373 3t2.352-3v-14.361q-.001-3.002-2.352-3.002zm17.7.735v9.364h6.446l-.861 5.081h-5.585V0h-5.417v-29.667h13.458v5.081zm20.408.084V0h-5.417v-24.5h-5.732l.861-5.165h15.138l.861 5.165zm26.434-5.165h5.459L254.137 0h-5.417l-2.226-15.558L244.206 0h-5.417l-4.766-29.667h5.585l2.292 16.041 2.226-16.041h4.829l2.226 16.041zM271.333 0l-.609-3.779h-5.186L264.971 0H259.6l5.333-29.667h6.488L276.792 0zm-1.323-8.776l-1.848-11.947-1.953 11.947zM285-10.141V0h-5.417v-29.667h7.017a7.979 7.979 0 0 1 5.931 2.089 8.1 8.1 0 0 1 2.068 5.952v3.443a9.739 9.739 0 0 1-.8 4.1 6.232 6.232 0 0 1-2.352 2.719L295.667 0h-5.711l-3.611-10.141zm1.428-5.081a2.587 2.587 0 0 0 2.11-.777 3.919 3.919 0 0 0 .64-2.5v-2.834a3.826 3.826 0 0 0-.651-2.488 2.611 2.611 0 0 0-2.1-.766H285v9.364zm18.1-9.364v9.364h6.656l-.861 5.081h-5.795v5.06h8.251V0H299.11v-29.667h13.668v5.081z" transform="translate(6.714 213.163)"/><path id="with_computers_are_infected_with" data-name="with computers are infected with" class="cls-5" d="M-124.56 0l-2.34-8.838h2.088l1.062 4.59q.144.63.243 1.26t.225 1.278h.072q.126-.648.261-1.278t.3-1.26l1.152-4.59h1.89l1.17 4.59q.162.63.306 1.26t.288 1.278h.072q.126-.648.234-1.278t.234-1.26l1.062-4.59h1.944L-116.55 0h-2.466l-1.026-4.122q-.144-.63-.27-1.251t-.27-1.323h-.072q-.126.7-.252 1.332t-.27 1.26L-122.184 0zm12.006 0v-8.838h2.07V0zm1.044-10.386a1.32 1.32 0 0 1-.918-.324 1.085 1.085 0 0 1-.36-.846 1.112 1.112 0 0 1 .36-.855 1.3 1.3 0 0 1 .918-.333 1.3 1.3 0 0 1 .918.333 1.112 1.112 0 0 1 .36.855 1.085 1.085 0 0 1-.36.846 1.32 1.32 0 0 1-.918.324zm6.786 10.6a3.233 3.233 0 0 1-1.305-.234 2.212 2.212 0 0 1-.864-.657 2.72 2.72 0 0 1-.486-1.008 5.159 5.159 0 0 1-.153-1.3V-7.2h-1.26v-1.548l1.368-.09.252-2.412h1.728v2.412h2.25V-7.2h-2.25v4.212q0 1.548 1.242 1.548a2.195 2.195 0 0 0 .477-.054 2.237 2.237 0 0 0 .441-.144l.36 1.53a6.889 6.889 0 0 1-.819.225 4.647 4.647 0 0 1-.981.099zM-101.34 0v-12.708h2.07v3.276l-.072 1.71a7.283 7.283 0 0 1 1.233-.927 3.038 3.038 0 0 1 1.593-.405 2.367 2.367 0 0 1 2.07.909 4.441 4.441 0 0 1 .648 2.6V0h-2.07v-5.274a2.75 2.75 0 0 0-.324-1.548 1.219 1.219 0 0 0-1.062-.45 1.861 1.861 0 0 0-1.017.279 6.488 6.488 0 0 0-1 .819V0zm17.334.216a4.583 4.583 0 0 1-1.683-.306 3.793 3.793 0 0 1-1.359-.9 4.162 4.162 0 0 1-.9-1.458 5.56 5.56 0 0 1-.324-1.962 5.061 5.061 0 0 1 .36-1.962 4.314 4.314 0 0 1 .972-1.458 4.232 4.232 0 0 1 1.413-.909 4.557 4.557 0 0 1 1.683-.315 3.506 3.506 0 0 1 1.485.288 4.828 4.828 0 0 1 1.107.7l-1.008 1.35a3.428 3.428 0 0 0-.711-.477 1.723 1.723 0 0 0-.765-.171 2.161 2.161 0 0 0-1.746.8 3.259 3.259 0 0 0-.666 2.151 3.259 3.259 0 0 0 .657 2.133 2.1 2.1 0 0 0 1.7.8 2.2 2.2 0 0 0 .981-.225 4.408 4.408 0 0 0 .837-.531l.846 1.368a4.406 4.406 0 0 1-1.377.81 4.394 4.394 0 0 1-1.502.274zm7.812 0a4.182 4.182 0 0 1-1.584-.306 3.941 3.941 0 0 1-1.341-.9 4.306 4.306 0 0 1-.927-1.458 5.3 5.3 0 0 1-.342-1.962 5.3 5.3 0 0 1 .342-1.962 4.306 4.306 0 0 1 .927-1.458 4.055 4.055 0 0 1 1.341-.909 4.078 4.078 0 0 1 1.584-.315 4.144 4.144 0 0 1 1.593.315 3.936 3.936 0 0 1 1.341.909 4.5 4.5 0 0 1 .927 1.458 5.176 5.176 0 0 1 .351 1.962 5.176 5.176 0 0 1-.351 1.962A4.5 4.5 0 0 1-73.26-.99a3.829 3.829 0 0 1-1.341.9 4.251 4.251 0 0 1-1.593.306zm0-1.692a1.767 1.767 0 0 0 1.53-.8 3.665 3.665 0 0 0 .558-2.133 3.7 3.7 0 0 0-.558-2.151 1.767 1.767 0 0 0-1.53-.8 1.744 1.744 0 0 0-1.521.8 3.746 3.746 0 0 0-.549 2.151 3.71 3.71 0 0 0 .549 2.133 1.744 1.744 0 0 0 1.521.8zM-69.93 0v-8.838h1.71l.144 1.206H-68a6.2 6.2 0 0 1 1.211-1.008 2.727 2.727 0 0 1 1.489-.414 2.643 2.643 0 0 1 1.557.414 2.57 2.57 0 0 1 .891 1.17 7.11 7.11 0 0 1 1.31-1.13 2.723 2.723 0 0 1 1.53-.45 2.4 2.4 0 0 1 2.07.909 4.349 4.349 0 0 1 .666 2.6V0h-2.088v-5.274a2.69 2.69 0 0 0-.336-1.548 1.183 1.183 0 0 0-1.017-.45 2.784 2.784 0 0 0-1.854 1.1V0h-2.07v-5.274a2.69 2.69 0 0 0-.333-1.548 1.2 1.2 0 0 0-1.035-.45 2.784 2.784 0 0 0-1.854 1.1V0zm15.174 3.492v-12.33h1.71l.144.936h.072a6.325 6.325 0 0 1 1.242-.81 3.142 3.142 0 0 1 1.422-.342 3.276 3.276 0 0 1 1.467.315 3.042 3.042 0 0 1 1.089.909 4.236 4.236 0 0 1 .684 1.422 6.814 6.814 0 0 1 .234 1.854 6.054 6.054 0 0 1-.315 2.025 4.594 4.594 0 0 1-.837 1.494 3.655 3.655 0 0 1-1.206.927 3.284 3.284 0 0 1-1.422.324 2.854 2.854 0 0 1-1.152-.252 4.408 4.408 0 0 1-1.116-.72l.054 1.476v2.772zm3.856-4.986a1.8 1.8 0 0 0 1.476-.765 3.672 3.672 0 0 0 .594-2.277 3.985 3.985 0 0 0-.45-2.07 1.577 1.577 0 0 0-1.458-.738 2.871 2.871 0 0 0-1.944.99v4.122a3.093 3.093 0 0 0 .936.576 2.5 2.5 0 0 0 .846.162zm8.928 1.71a2.367 2.367 0 0 1-2.07-.909 4.441 4.441 0 0 1-.648-2.6v-5.545h2.07v5.274a2.75 2.75 0 0 0 .32 1.548 1.2 1.2 0 0 0 1.044.45 1.818 1.818 0 0 0 1.017-.288 4.158 4.158 0 0 0 .945-.936v-6.048h2.07V0h-1.692l-.162-1.3h-.054a5.193 5.193 0 0 1-1.251 1.1 2.986 2.986 0 0 1-1.593.416zm10.494 0a3.233 3.233 0 0 1-1.3-.234 2.212 2.212 0 0 1-.864-.657 2.72 2.72 0 0 1-.486-1.008 5.159 5.159 0 0 1-.153-1.3V-7.2h-1.26v-1.548l1.368-.09.252-2.412h1.721v2.412h2.25V-7.2h-2.25v4.212q0 1.548 1.242 1.548a2.195 2.195 0 0 0 .477-.054 2.236 2.236 0 0 0 .441-.144l.36 1.53a6.89 6.89 0 0 1-.82.225 4.647 4.647 0 0 1-.982.099zm6.876 0A4.585 4.585 0 0 1-26.316-.1a4.06 4.06 0 0 1-1.384-.908 4.147 4.147 0 0 1-.927-1.449 5.352 5.352 0 0 1-.333-1.953 5.244 5.244 0 0 1 .342-1.944 4.459 4.459 0 0 1 .909-1.458 4.027 4.027 0 0 1 1.305-.918 3.726 3.726 0 0 1 1.512-.324 3.846 3.846 0 0 1 1.584.306 3.09 3.09 0 0 1 1.143.864 3.8 3.8 0 0 1 .693 1.332 5.825 5.825 0 0 1 .232 1.692q0 .306-.027.576a3.837 3.837 0 0 1-.063.432h-5.616a2.854 2.854 0 0 0 .837 1.827 2.513 2.513 0 0 0 1.773.639 3.259 3.259 0 0 0 1.071-.171 4.76 4.76 0 0 0 .981-.477l.7 1.3a6.356 6.356 0 0 1-1.4.684 4.883 4.883 0 0 1-1.622.266zm-2.358-5.472h3.924a2.621 2.621 0 0 0-.441-1.611 1.592 1.592 0 0 0-1.359-.585 1.961 1.961 0 0 0-1.386.558 2.645 2.645 0 0 0-.742 1.638zM-19.26 0v-8.838h1.71l.144 1.566h.072A3.71 3.71 0 0 1-16.2-8.6a2.383 2.383 0 0 1 1.368-.459 2.369 2.369 0 0 1 1.008.18l-.36 1.8a3.779 3.779 0 0 0-.432-.108 2.774 2.774 0 0 0-.486-.036 1.929 1.929 0 0 0-1.1.4A3.129 3.129 0 0 0-17.19-5.4V0zm9.072.216A4.9 4.9 0 0 1-12-.135a5.853 5.853 0 0 1-1.539-.873l.972-1.332a5.619 5.619 0 0 0 1.179.729 3.079 3.079 0 0 0 1.269.261 1.592 1.592 0 0 0 1.062-.3.967.967 0 0 0 .342-.765.752.752 0 0 0-.162-.477 1.556 1.556 0 0 0-.432-.369 4.153 4.153 0 0 0-.612-.3q-.342-.135-.684-.279-.432-.162-.882-.378a3.546 3.546 0 0 1-.8-.522 2.633 2.633 0 0 1-.576-.711 1.953 1.953 0 0 1-.225-.963 2.393 2.393 0 0 1 .864-1.908 3.513 3.513 0 0 1 2.358-.738 4.078 4.078 0 0 1 1.656.324 6.165 6.165 0 0 1 1.278.738l-.954 1.26a4.937 4.937 0 0 0-.945-.549 2.483 2.483 0 0 0-1-.207 1.451 1.451 0 0 0-.981.279.888.888 0 0 0-.315.693.706.706 0 0 0 .153.459 1.417 1.417 0 0 0 .405.333 4.123 4.123 0 0 0 .585.27q.333.126.693.252.45.162.9.369a3.7 3.7 0 0 1 .819.513 2.339 2.339 0 0 1 .594.747A2.292 2.292 0 0 1-6.75-2.52a2.557 2.557 0 0 1-.225 1.071 2.474 2.474 0 0 1-.657.864A3.2 3.2 0 0 1-8.712 0a4.659 4.659 0 0 1-1.476.216zm11.034 0A2.573 2.573 0 0 1-1.044-.5a2.525 2.525 0 0 1-.72-1.881 2.587 2.587 0 0 1 .3-1.251 2.56 2.56 0 0 1 .936-.945 6.216 6.216 0 0 1 1.62-.666 14.813 14.813 0 0 1 2.349-.414 3.336 3.336 0 0 0-.1-.657 1.51 1.51 0 0 0-.27-.558 1.256 1.256 0 0 0-.495-.378 1.873 1.873 0 0 0-.756-.135 3.347 3.347 0 0 0-1.269.252 8.534 8.534 0 0 0-1.215.612L-1.422-7.9a8.854 8.854 0 0 1 1.656-.81 5.627 5.627 0 0 1 1.98-.342 3.041 3.041 0 0 1 2.475.981 4.317 4.317 0 0 1 .819 2.835V0H3.8l-.146-.972h-.072a6.493 6.493 0 0 1-1.269.846A3.2 3.2 0 0 1 .846.216zM1.512-1.4a1.942 1.942 0 0 0 .981-.252 5.267 5.267 0 0 0 .945-.72v-1.98a9.448 9.448 0 0 0-1.512.288 4.37 4.37 0 0 0-.99.4A1.443 1.443 0 0 0 .4-3.15a1.229 1.229 0 0 0-.162.612 1.01 1.01 0 0 0 .36.864 1.488 1.488 0 0 0 .914.274zM7.992 0v-8.838H9.7l.144 1.566h.072A3.71 3.71 0 0 1 11.052-8.6a2.383 2.383 0 0 1 1.368-.459 2.369 2.369 0 0 1 1.008.18l-.36 1.8a3.779 3.779 0 0 0-.432-.108 2.774 2.774 0 0 0-.486-.036 1.929 1.929 0 0 0-1.1.4 3.129 3.129 0 0 0-.99 1.413V0zm10.314.216A4.585 4.585 0 0 1 16.6-.1a4.06 4.06 0 0 1-1.386-.909 4.147 4.147 0 0 1-.927-1.449 5.352 5.352 0 0 1-.337-1.952 5.244 5.244 0 0 1 .342-1.944 4.459 4.459 0 0 1 .908-1.458 4.027 4.027 0 0 1 1.305-.918 3.726 3.726 0 0 1 1.512-.324 3.846 3.846 0 0 1 1.584.306 3.09 3.09 0 0 1 1.143.864 3.8 3.8 0 0 1 .693 1.332 5.825 5.825 0 0 1 .234 1.692q0 .306-.027.576a3.837 3.837 0 0 1-.063.432h-5.615a2.854 2.854 0 0 0 .834 1.827 2.513 2.513 0 0 0 1.773.639 3.259 3.259 0 0 0 1.071-.171 4.76 4.76 0 0 0 .981-.477l.7 1.3a6.356 6.356 0 0 1-1.4.684 4.883 4.883 0 0 1-1.619.266zm-2.358-5.472h3.924a2.621 2.621 0 0 0-.441-1.611 1.592 1.592 0 0 0-1.359-.585 1.961 1.961 0 0 0-1.386.558 2.645 2.645 0 0 0-.738 1.638zM27.252 0v-8.838h2.07V0zM28.3-10.386a1.32 1.32 0 0 1-.918-.324 1.085 1.085 0 0 1-.36-.846 1.112 1.112 0 0 1 .36-.855 1.3 1.3 0 0 1 .918-.333 1.3 1.3 0 0 1 .918.333 1.112 1.112 0 0 1 .36.855 1.085 1.085 0 0 1-.36.846 1.32 1.32 0 0 1-.918.324zM31.968 0v-8.838h1.71l.144 1.188h.072a7.007 7.007 0 0 1 1.287-.99 3.081 3.081 0 0 1 1.611-.414 2.367 2.367 0 0 1 2.07.909 4.441 4.441 0 0 1 .648 2.6V0h-2.07v-5.274a2.75 2.75 0 0 0-.324-1.548 1.219 1.219 0 0 0-1.062-.45 1.861 1.861 0 0 0-1.017.279 6.488 6.488 0 0 0-1 .819V0zm10.44 0v-7.2H41.22v-1.548l1.188-.09v-.918a4.741 4.741 0 0 1 .162-1.269 2.6 2.6 0 0 1 .522-1.008A2.416 2.416 0 0 1 44-12.69a3.419 3.419 0 0 1 1.341-.234 4.273 4.273 0 0 1 .891.09 4.255 4.255 0 0 1 .729.216l-.4 1.548a2.376 2.376 0 0 0-.972-.216q-1.116 0-1.116 1.494v.954h1.728V-7.2h-1.723V0zm8.946.216a4.585 4.585 0 0 1-1.71-.316 4.06 4.06 0 0 1-1.386-.909 4.147 4.147 0 0 1-.927-1.449A5.352 5.352 0 0 1 47-4.41a5.244 5.244 0 0 1 .342-1.944 4.459 4.459 0 0 1 .909-1.458 4.027 4.027 0 0 1 1.305-.918 3.726 3.726 0 0 1 1.512-.324 3.846 3.846 0 0 1 1.584.306 3.09 3.09 0 0 1 1.143.864 3.8 3.8 0 0 1 .693 1.332 5.825 5.825 0 0 1 .232 1.692q0 .306-.027.576a3.838 3.838 0 0 1-.063.432h-5.616a2.854 2.854 0 0 0 .837 1.827 2.513 2.513 0 0 0 1.773.639 3.259 3.259 0 0 0 1.071-.171 4.76 4.76 0 0 0 .981-.477l.7 1.3a6.356 6.356 0 0 1-1.4.684 4.883 4.883 0 0 1-1.622.266zM49-5.256h3.92a2.621 2.621 0 0 0-.441-1.611 1.592 1.592 0 0 0-1.359-.585 1.961 1.961 0 0 0-1.386.558A2.645 2.645 0 0 0 49-5.256zM60.39.216a4.583 4.583 0 0 1-1.683-.306 3.793 3.793 0 0 1-1.359-.9 4.162 4.162 0 0 1-.9-1.458 5.56 5.56 0 0 1-.324-1.962 5.061 5.061 0 0 1 .36-1.962 4.314 4.314 0 0 1 .972-1.458 4.232 4.232 0 0 1 1.413-.909 4.557 4.557 0 0 1 1.683-.315 3.506 3.506 0 0 1 1.485.288 4.828 4.828 0 0 1 1.107.7l-1.008 1.35a3.428 3.428 0 0 0-.711-.477 1.723 1.723 0 0 0-.765-.171 2.161 2.161 0 0 0-1.746.8 3.259 3.259 0 0 0-.666 2.151 3.259 3.259 0 0 0 .657 2.133 2.1 2.1 0 0 0 1.7.8 2.2 2.2 0 0 0 .981-.225 4.408 4.408 0 0 0 .837-.531l.847 1.372a4.406 4.406 0 0 1-1.377.81 4.394 4.394 0 0 1-1.503.27zm7.56 0a3.233 3.233 0 0 1-1.305-.234 2.212 2.212 0 0 1-.864-.657 2.72 2.72 0 0 1-.481-1.008 5.159 5.159 0 0 1-.153-1.3V-7.2h-1.26v-1.548l1.368-.09.245-2.412h1.73v2.412h2.25V-7.2h-2.25v4.212q0 1.548 1.242 1.548a2.195 2.195 0 0 0 .477-.054 2.236 2.236 0 0 0 .441-.144l.36 1.53a6.89 6.89 0 0 1-.819.225 4.647 4.647 0 0 1-.981.099zm6.876 0a4.585 4.585 0 0 1-1.71-.316 4.061 4.061 0 0 1-1.386-.909 4.147 4.147 0 0 1-.93-1.448 5.352 5.352 0 0 1-.33-1.953 5.244 5.244 0 0 1 .342-1.944 4.459 4.459 0 0 1 .909-1.458 4.027 4.027 0 0 1 1.305-.918 3.726 3.726 0 0 1 1.512-.324 3.846 3.846 0 0 1 1.584.306 3.09 3.09 0 0 1 1.143.864 3.8 3.8 0 0 1 .693 1.332 5.825 5.825 0 0 1 .234 1.692q0 .306-.027.576a3.838 3.838 0 0 1-.063.432h-5.616a2.854 2.854 0 0 0 .837 1.827 2.513 2.513 0 0 0 1.773.639 3.259 3.259 0 0 0 1.071-.171 4.76 4.76 0 0 0 .981-.477l.7 1.3a6.356 6.356 0 0 1-1.4.684 4.883 4.883 0 0 1-1.622.266zm-2.358-5.472h3.924a2.621 2.621 0 0 0-.441-1.611 1.592 1.592 0 0 0-1.359-.585 1.961 1.961 0 0 0-1.386.558 2.645 2.645 0 0 0-.738 1.638zm10.8 5.472A3.233 3.233 0 0 1 80.613-1a5.3 5.3 0 0 1-.981-3.411 5.647 5.647 0 0 1 .315-1.944 4.534 4.534 0 0 1 .837-1.458 3.739 3.739 0 0 1 1.2-.918 3.188 3.188 0 0 1 1.395-.324 2.837 2.837 0 0 1 1.278.261 5.117 5.117 0 0 1 1.044.711L85.626-9.5v-3.2H87.7V0h-1.71l-.144-.954h-.076a4.679 4.679 0 0 1-1.134.828 2.89 2.89 0 0 1-1.368.342zm.5-1.71a2.469 2.469 0 0 0 1.854-.99v-4.122a2.928 2.928 0 0 0-.909-.576 2.567 2.567 0 0 0-.891-.162 1.793 1.793 0 0 0-1.458.756 3.428 3.428 0 0 0-.594 2.16 3.862 3.862 0 0 0 .513 2.187 1.69 1.69 0 0 0 1.489.747zM95.382 0l-2.34-8.838h2.088l1.062 4.59q.144.63.243 1.26t.225 1.278h.072q.126-.648.261-1.278t.3-1.26l1.152-4.59h1.89l1.17 4.59q.162.63.306 1.26t.289 1.278h.072q.126-.648.234-1.278t.234-1.26l1.062-4.59h1.944L103.392 0h-2.466L99.9-4.122q-.144-.63-.27-1.251T99.36-6.7h-.072q-.126.7-.252 1.332t-.27 1.26L97.758 0zm12.006 0v-8.838h2.07V0zm1.044-10.386a1.32 1.32 0 0 1-.918-.324 1.085 1.085 0 0 1-.36-.846 1.112 1.112 0 0 1 .36-.855 1.3 1.3 0 0 1 .918-.333 1.3 1.3 0 0 1 .918.333 1.112 1.112 0 0 1 .36.855 1.085 1.085 0 0 1-.36.846 1.32 1.32 0 0 1-.918.324zm6.786 10.6a3.233 3.233 0 0 1-1.305-.234 2.212 2.212 0 0 1-.864-.657 2.72 2.72 0 0 1-.486-1.008 5.159 5.159 0 0 1-.153-1.3V-7.2h-1.26v-1.548l1.368-.09.252-2.412h1.73v2.412h2.25V-7.2h-2.25v4.212q0 1.548 1.242 1.548a2.195 2.195 0 0 0 .477-.054 2.236 2.236 0 0 0 .441-.144l.36 1.53a6.89 6.89 0 0 1-.819.225 4.647 4.647 0 0 1-.983.099zM118.6 0v-12.708h2.07v3.276l-.072 1.71a7.283 7.283 0 0 1 1.233-.927 3.038 3.038 0 0 1 1.593-.405 2.367 2.367 0 0 1 2.07.909 4.441 4.441 0 0 1 .648 2.6V0h-2.07v-5.274a2.75 2.75 0 0 0-.324-1.548 1.219 1.219 0 0 0-1.062-.45 1.861 1.861 0 0 0-1.017.279 6.488 6.488 0 0 0-1 .819V0z" transform="translate(160.947 171.291)"/><path id="HOMES" class="cls-7" d="M17.227 0v-14.414h-6.358V0H3.311v-41.4h7.559v19.8h6.357v-19.8h7.559V0zm24.4-42.422a10.515 10.515 0 0 1 7.954 3.032A11.319 11.319 0 0 1 52.5-31.2v20.156a11.319 11.319 0 0 1-2.915 8.188A10.515 10.515 0 0 1 41.631.176a10.515 10.515 0 0 1-7.954-3.032 11.319 11.319 0 0 1-2.915-8.188V-31.2a11.319 11.319 0 0 1 2.915-8.188 10.515 10.515 0 0 1 7.954-3.034zm0 7.09q-3.311 0-3.311 4.189V-11.1q0 4.189 3.311 4.189t3.285-4.189v-20.043q0-4.189-3.281-4.189zm36.5-6.064H87.8V0h-7.556v-28.564l-6.123 15.351h-2.344l-6.123-15.351V0h-7.177v-41.4h9.4l5.156 12.832zm24.111 7.09v13.066h9.287l-1.2 7.09h-8.086v7.06h11.521V0H94.688v-41.4h19.072v7.09zm25.166-7.705q4.8 0 7.441 2.651a9.991 9.991 0 0 1 2.637 7.368v5.83l-7.324.732v-6.416q0-3.047-2.637-3.076-2.637 0-2.637 3.076v2.93a5.2 5.2 0 0 0 1.2 3.4 9.139 9.139 0 0 0 3.9 2.49 14.351 14.351 0 0 1 5.347 3.047 8.43 8.43 0 0 1 2.344 3.926 21.108 21.108 0 0 1 .542 5.127v1.494a9.8 9.8 0 0 1-2.717 7.381Q132.773.586 127.793.586t-7.72-2.637a9.766 9.766 0 0 1-2.739-7.383v-4.541l7.324-.732v4.863a3.8 3.8 0 0 0 .718 2.549 2.866 2.866 0 0 0 2.271.82 2.944 2.944 0 0 0 2.285-.806 3.739 3.739 0 0 0 .732-2.563v-.762a5.347 5.347 0 0 0-1.055-3.4 10.627 10.627 0 0 0-4.219-2.666q-4.512-1.846-6.284-4.834a13.824 13.824 0 0 1-1.772-7.178v-3.311a9.981 9.981 0 0 1 2.637-7.383q2.636-2.634 7.441-2.634z" transform="translate(173.924 149.163)"/><circle id="in_circle" data-name="in circle" class="cls-2" cx="15.1" cy="15.1" r="15.1" transform="translate(222.1 45.4)"/><path id="_3" data-name="3" class="cls-7" d="M303.7 73.3v4.6c0 6.2-1.7 10.9-5.1 14.4-3.5 3.5-8.2 5.1-14.2 5-6.1 0-10.8-1.7-14.2-5-3.5-3.4-5-8.1-5-14.1v-7.9l13.1-.5v7a11.319 11.319 0 0 0 1.4 6 4.978 4.978 0 0 0 4.5 1.9c4.1 0 6.1-2.5 6.2-7.7v-4.7c0-3-.5-5.2-1.6-6.6-1-1.4-2.9-2-5.6-2h-5.8l1.2-12.7h4.7c2.3 0 4-.5 4.9-1.9 1-1.3 1.6-3.4 1.6-6.2V41c0-4.8-1.9-7.3-5.7-7.3a4.756 4.756 0 0 0-4.1 1.9 11.319 11.319 0 0 0-1.4 6v4.9l-13.1-.7v-5.6c0-6 1.7-10.7 5-14 3.4-3.4 8-5 13.9-4.9 5.9 0 10.6 1.8 13.9 5.2 3.4 3.5 4.9 8.3 4.9 14.4v2.2c0 6.8-2.4 11.7-7.1 14.1 5.1 2.8 7.6 8.3 7.6 16.1z" transform="translate(-9)"/><path id="IN" class="cls-4" d="M1.494 0v-11.772h2.088V0zM8.07 0v-11.772h2.142l3.672 6.624 1.206 2.5h.072q-.072-.918-.171-1.971t-.1-2.043v-5.112h2V0h-2.143l-3.672-6.624L9.87-9.126H9.8q.072.936.171 1.962t.1 2.016V0z" transform="translate(227.855 66.256)"/><path id="_1" data-name="1" class="cls-7" d="M191.6 40.4h-9.2v-10a18.006 18.006 0 0 0 6.9-1.3 7.264 7.264 0 0 0 3.4-2.6 49.826 49.826 0 0 0 2.7-5.7h9.8l-.3 74-13.5.1z" transform="translate(12)"/></g></svg>