<svg id="_600000-accounts_outlined" data-name="600000-accounts outlined" xmlns="http://www.w3.org/2000/svg" viewBox="0 0 328.7 200.965"><defs><style>.cls-1{fill:#daeaf8}.cls-2{fill:#0e2044}.cls-3{fill:#fbb890}.cls-4{fill:#fff}.cls-5{fill:#5893ce}.cls-6{fill:#24539b}</style></defs><circle id="bg_circle" data-name="bg circle" class="cls-1" cx="66.3" cy="66.3" r="66.3" transform="translate(196.1 51.8)"/><path id="circle" class="cls-2" d="M304.6 173.9a5 5 0 1 1-5-5 4.951 4.951 0 0 1 5 5zm-7.7 0a2.7 2.7 0 1 0 2.7-2.7 2.689 2.689 0 0 0-2.7 2.7z"/><path id="star" class="cls-2" d="M243.2 88.9a1.028 1.028 0 0 0-1.1-1l-2.1-.3a1.49 1.49 0 0 1-1.2-1.2l-.3-2.1c-.1-.6-.6-1.1-1-1.1a1.028 1.028 0 0 0-1 1.1l-.2 2.1a1.49 1.49 0 0 1-1.2 1.2l-2.1.3c-.6.1-1.1.6-1.1 1a1.028 1.028 0 0 0 1.1 1l2.1.3a1.49 1.49 0 0 1 1.2 1.2l.3 2.1c.1.6.6 1.1 1 1.1a1.028 1.028 0 0 0 1-1.1l.3-2.3a1.49 1.49 0 0 1 1.2-1.2l2-.1c.5-.2 1.1-.5 1.1-1z"/><path id="circle-2" data-name="circle" class="cls-2" d="M246.4 77.3a5 5 0 1 1 5-5 5.015 5.015 0 0 1-5 5zm0-7.8a2.7 2.7 0 1 0 2.7 2.7 2.689 2.689 0 0 0-2.7-2.7z"/><path id="hand_bg" data-name="hand bg" class="cls-3" d="M92.4-1411c-4.3 1-12.1 2.7-14 2.7-1.1 0-4.4-.3-8.1-.6-3.6-.3-7.7-.7-9.5-.7-2.9 0-20.3 5.7-23.9 7.1a8.4 8.4 0 0 0-4.9 4.7 7.251 7.251 0 0 0 .6 4.1 2.189 2.189 0 0 1-.3 2.2c-1.2 1.3-3.2 4.1-3.4 5.6a6.212 6.212 0 0 0 1.4 3.9 2.1 2.1 0 0 1 .1 2.5c-1.4 1.9-3.4 5.4-3.2 6.9.1 1.4 2.3 3.2 3.7 4.1a1.761 1.761 0 0 1 .9 1.3 2.223 2.223 0 0 1-.3 1.6c-.6 1-1.7 3.4-1.1 4.7s2.7 2.4 4 2.9l22.1-3.8h.3a1.974 1.974 0 0 1 1.4.6 1.832 1.832 0 0 1 .6 1.7c0 .1-1.3 8.9-.7 13.1.5 4 3.3 9.5 5 11.2a5.514 5.514 0 0 0 3.5 1c-.1-.4-.1-.8-.2-1.1a41.653 41.653 0 0 1-1-7.9 47.68 47.68 0 0 1 1.6-10.6 1.611 1.611 0 0 1 .4-.7 67.461 67.461 0 0 0 6.9-9.9 23.487 23.487 0 0 0 2.3-5.7 18.032 18.032 0 0 1 1.6-3.8c.4-.6 1.6-2.1 20-5.8z" transform="translate(182 1520)"/><path id="hand_border" data-name="hand border" class="cls-2" d="M-2921.872-801.762h-.7a10.559 10.559 0 0 1-5.7-1.7c-.2-.2-.5-.4-.7-.6-2.3-2.4-5.4-8.7-6-13.4-.4-3.1.1-8.3.4-11.4l-19.9 3.4a2.775 2.775 0 0 1-.9-.1c-.5-.1-5.4-1.8-6.9-5.3-1.1-2.3-.3-5 .5-6.7a17.423 17.423 0 0 1-2.4-2.3v-9.8c.5-1 1.1-1.8 1.5-2.5a9.737 9.737 0 0 1-1.5-4v-1.8c.4-2.5 2.4-5.3 3.6-6.8a9.61 9.61 0 0 1-.3-5.8 11.876 11.876 0 0 1 7.1-7.1c2.3-1 17.6-6.2 23.7-7.3h5.1c1.9.1 4.2.3 6.4.5 3.4.3 6.9.6 7.8.6h.1a42.338 42.338 0 0 0 6.2-1.1h11.2l4.6 24.4v12.9c-8.1 1.6-17.4 3.8-19.2 4.7a11.745 11.745 0 0 0-.9 2.4 40.6 40.6 0 0 1-2.7 6.5 99.311 99.311 0 0 1-7 10 49.631 49.631 0 0 0-1.3 9.3 41.743 41.743 0 0 0 .9 7.1c.4 2.1.7 3.3.2 4.2a.519.519 0 0 1-.2.4 3.521 3.521 0 0 1-2.719 1.313 3.749 3.749 0 0 1-.281-.013zm-10.5-31.7a1.978 1.978 0 0 1 1.4.6 1.834 1.834 0 0 1 .6 1.7c0 .1-1.3 8.9-.7 13.1.6 4 3.4 9.5 5 11.2a5.514 5.514 0 0 0 3.5 1 4.264 4.264 0 0 0-.2-1.1 41.617 41.617 0 0 1-1-7.9 54.276 54.276 0 0 1 1.6-10.6 1.61 1.61 0 0 1 .4-.7 109.718 109.718 0 0 0 6.9-9.9 23.509 23.509 0 0 0 2.3-5.7 18.063 18.063 0 0 1 1.6-3.8c.4-.6 1.6-2.1 20-5.9l-5.8-31.2c-4.4 1-12.1 2.8-14 2.7-1.1 0-4.3-.3-8.1-.6-3.7-.3-7.8-.7-9.5-.7-2.9 0-20.4 5.6-23.9 7.1-2.5 1.1-4.3 2.7-4.9 4.7a7.248 7.248 0 0 0 .6 4.1 1.986 1.986 0 0 1-.3 2.2c-1.2 1.3-3.2 4-3.4 5.6-.3 1.5 1 3.4 1.4 3.9a2.1 2.1 0 0 1 .1 2.5c-1.4 1.9-3.4 5.4-3.2 6.9.1 1.4 2.3 3.3 3.7 4.1a2.378 2.378 0 0 1 .9 1.3 2.225 2.225 0 0 1-.3 1.6c-.6.9-1.7 3.3-1.1 4.7.5 1.3 2.7 2.4 4 2.9l22.1-3.8zm-33.6-10.3c-.2-1.8.7-4 1.7-6v9.8a7.729 7.729 0 0 1-1.7-3.801zm1.7-13.9v1.5a3.758 3.758 0 0 1 .001-1.5zm34.1-27.3c.8-.1 1.4-.2 1.8-.2.8 0 2 .1 3.3.2zm25.7-.1c2.6-.5 5.8-1.2 8.7-1.9a2.227 2.227 0 0 1 1.6.3 1.965 1.965 0 0 1 .9 1.3v.3z" transform="translate(3171.272 991.562)"/><path id="sleeve_white" data-name="sleeve white" class="cls-4" d="M255.6-1375l-40 2.5-8.4-51.9 49-14.1z" transform="translate(69 1520)"/><path id="sleeve_blue" data-name="sleeve blue" class="cls-5" d="M258.8-1370.8l-40.1 2.5-8.4-51.8 49.1-14.2z" transform="translate(69 1520)"/><path id="sleeve_dark_blue" data-name="sleeve dark blue" class="cls-6" d="M251.7-1373.2l-15.4 1-12.2-56.8 15.2-3z" transform="translate(69 1520)"/><path id="sleeve_border" data-name="sleeve border" class="cls-2" d="M214.3-1368.2a2.034 2.034 0 0 1-2-1.7l-8.4-53a1.893 1.893 0 0 1 1.4-2.2l46.5-13.4a2.023 2.023 0 0 1 2.5 1.3v.1a2.023 2.023 0 0 1-1.3 2.5h-.1l-44.8 12.9 7.8 49.4 39.3-3.3a2.017 2.017 0 0 1 2.2 1.8 2.017 2.017 0 0 1-1.8 2.2l-41.2 3.5c0-.1 0-.1-.1-.1z" transform="translate(69 1520)"/><path id="every_single_day." data-name="every single day." class="cls-2" d="M5.094.216A4.585 4.585 0 0 1 3.384-.1 4.06 4.06 0 0 1 2-1.008a4.147 4.147 0 0 1-.927-1.449A5.352 5.352 0 0 1 .738-4.41a5.244 5.244 0 0 1 .342-1.944 4.459 4.459 0 0 1 .909-1.458 4.027 4.027 0 0 1 1.3-.918 3.726 3.726 0 0 1 1.512-.324 3.846 3.846 0 0 1 1.584.306 3.09 3.09 0 0 1 1.143.864 3.8 3.8 0 0 1 .693 1.332A5.825 5.825 0 0 1 8.46-4.86q0 .306-.027.576a3.837 3.837 0 0 1-.063.432H2.754a2.854 2.854 0 0 0 .837 1.827 2.513 2.513 0 0 0 1.773.639 3.259 3.259 0 0 0 1.071-.171 4.76 4.76 0 0 0 .981-.477l.7 1.3a6.356 6.356 0 0 1-1.4.684 4.883 4.883 0 0 1-1.622.266zM2.736-5.256H6.66a2.621 2.621 0 0 0-.441-1.611 1.592 1.592 0 0 0-1.359-.585 1.961 1.961 0 0 0-1.386.558 2.645 2.645 0 0 0-.738 1.638zM12.42 0L9.342-8.838h2.106l1.4 4.59q.18.648.369 1.314t.369 1.35h.072q.2-.684.378-1.35t.378-1.314l1.4-4.59h2l-3 8.838zm10.6.216A4.585 4.585 0 0 1 21.312-.1a4.061 4.061 0 0 1-1.386-.909A4.147 4.147 0 0 1 19-2.457a5.352 5.352 0 0 1-.333-1.953 5.244 5.244 0 0 1 .342-1.944 4.459 4.459 0 0 1 .909-1.458 4.027 4.027 0 0 1 1.305-.918 3.726 3.726 0 0 1 1.512-.324 3.846 3.846 0 0 1 1.584.306 3.09 3.09 0 0 1 1.143.864 3.8 3.8 0 0 1 .693 1.332 5.825 5.825 0 0 1 .234 1.692q0 .306-.027.576a3.837 3.837 0 0 1-.063.432h-5.617a2.854 2.854 0 0 0 .837 1.827 2.513 2.513 0 0 0 1.773.639 3.259 3.259 0 0 0 1.071-.171 4.76 4.76 0 0 0 .981-.477l.7 1.3a6.356 6.356 0 0 1-1.4.684 4.883 4.883 0 0 1-1.622.266zm-2.356-5.472h3.924a2.621 2.621 0 0 0-.441-1.611 1.592 1.592 0 0 0-1.359-.585 1.961 1.961 0 0 0-1.386.558 2.645 2.645 0 0 0-.738 1.638zM28.368 0v-8.838h1.71l.144 1.566h.072A3.71 3.71 0 0 1 31.428-8.6a2.383 2.383 0 0 1 1.372-.454 2.369 2.369 0 0 1 1.008.18l-.36 1.8a3.779 3.779 0 0 0-.432-.108 2.774 2.774 0 0 0-.486-.036 1.929 1.929 0 0 0-1.1.4 3.129 3.129 0 0 0-.99 1.413V0zm7.6 3.636a3.877 3.877 0 0 1-.63-.045 3.029 3.029 0 0 1-.522-.135l.378-1.62q.126.036.3.081a1.306 1.306 0 0 0 .333.045 1.521 1.521 0 0 0 1.125-.423A2.677 2.677 0 0 0 37.584.45l.162-.558-3.474-8.73h2.106l1.53 4.338q.2.576.387 1.215t.387 1.269h.072l.333-1.251q.171-.639.333-1.233l1.332-4.338h2L39.546.4a9.482 9.482 0 0 1-.594 1.35 4.417 4.417 0 0 1-.747 1.017 2.937 2.937 0 0 1-.972.648 3.327 3.327 0 0 1-1.269.221zM50.346.216a4.9 4.9 0 0 1-1.809-.351A5.853 5.853 0 0 1 47-1.008l.97-1.332a5.619 5.619 0 0 0 1.179.729 3.079 3.079 0 0 0 1.269.261 1.592 1.592 0 0 0 1.062-.3.967.967 0 0 0 .342-.765.752.752 0 0 0-.162-.477 1.556 1.556 0 0 0-.432-.369 4.153 4.153 0 0 0-.612-.3q-.342-.135-.684-.279-.432-.16-.882-.372a3.546 3.546 0 0 1-.8-.522 2.633 2.633 0 0 1-.576-.711 1.953 1.953 0 0 1-.225-.963 2.393 2.393 0 0 1 .864-1.908 3.513 3.513 0 0 1 2.358-.738 4.078 4.078 0 0 1 1.656.324 6.165 6.165 0 0 1 1.278.738l-.954 1.26a4.937 4.937 0 0 0-.945-.549 2.483 2.483 0 0 0-1-.207 1.451 1.451 0 0 0-.981.279.888.888 0 0 0-.315.693.706.706 0 0 0 .153.459 1.417 1.417 0 0 0 .4.333 4.123 4.123 0 0 0 .585.27q.333.126.693.252.45.162.9.369a3.7 3.7 0 0 1 .819.513 2.339 2.339 0 0 1 .594.747 2.292 2.292 0 0 1 .225 1.053 2.557 2.557 0 0 1-.225 1.071 2.474 2.474 0 0 1-.657.864A3.2 3.2 0 0 1 51.822 0a4.659 4.659 0 0 1-1.476.216zM55.638 0v-8.838h2.07V0zm1.044-10.386a1.32 1.32 0 0 1-.918-.324 1.085 1.085 0 0 1-.36-.846 1.112 1.112 0 0 1 .36-.855 1.3 1.3 0 0 1 .918-.333 1.3 1.3 0 0 1 .918.333 1.112 1.112 0 0 1 .36.855 1.085 1.085 0 0 1-.36.846 1.32 1.32 0 0 1-.918.324zM60.354 0v-8.838h1.71l.144 1.188h.072a7.007 7.007 0 0 1 1.287-.99 3.081 3.081 0 0 1 1.611-.414 2.367 2.367 0 0 1 2.07.909 4.441 4.441 0 0 1 .648 2.6V0h-2.07v-5.274a2.75 2.75 0 0 0-.326-1.548 1.219 1.219 0 0 0-1.062-.45 1.861 1.861 0 0 0-1.017.279 6.488 6.488 0 0 0-1 .819V0zm13.158 3.906a7.032 7.032 0 0 1-1.467-.144 3.835 3.835 0 0 1-1.161-.432 2.266 2.266 0 0 1-.765-.72 1.817 1.817 0 0 1-.279-1.01 1.806 1.806 0 0 1 .324-1.033 3.029 3.029 0 0 1 .936-.855V-.36a1.794 1.794 0 0 1-.567-.576 1.669 1.669 0 0 1-.225-.9 1.606 1.606 0 0 1 .3-.945 2.858 2.858 0 0 1 .675-.693v-.072a3.163 3.163 0 0 1-.8-.945 2.722 2.722 0 0 1-.351-1.395 3.056 3.056 0 0 1 .288-1.35 3.02 3.02 0 0 1 .765-1 3.265 3.265 0 0 1 1.107-.612 4.24 4.24 0 0 1 1.332-.207 3.721 3.721 0 0 1 .693.063 4.641 4.641 0 0 1 .6.153h3.168v1.53h-1.62a2.1 2.1 0 0 1 .36.639 2.435 2.435 0 0 1 .144.855 3.029 3.029 0 0 1-.261 1.3 2.7 2.7 0 0 1-.708.933 3.127 3.127 0 0 1-1.062.576 4.244 4.244 0 0 1-1.314.2 3.416 3.416 0 0 1-.594-.054 2.954 2.954 0 0 1-.612-.18 1.879 1.879 0 0 0-.315.36.883.883 0 0 0-.117.486.682.682 0 0 0 .314.594 2.108 2.108 0 0 0 1.125.216h1.566a4.615 4.615 0 0 1 2.421.513 1.815 1.815 0 0 1 .816 1.663 2.407 2.407 0 0 1-.328 1.224 3.023 3.023 0 0 1-.945.99 5.052 5.052 0 0 1-1.485.657 7.281 7.281 0 0 1-1.958.243zM73.62-4.1a1.459 1.459 0 0 0 1.08-.459 1.813 1.813 0 0 0 .45-1.323 1.782 1.782 0 0 0-.441-1.287 1.45 1.45 0 0 0-1.089-.459 1.494 1.494 0 0 0-1.1.45 1.754 1.754 0 0 0-.45 1.3 1.813 1.813 0 0 0 .45 1.323 1.479 1.479 0 0 0 1.1.455zm.216 6.66a3.168 3.168 0 0 0 1.737-.423 1.2 1.2 0 0 0 .657-1 .693.693 0 0 0-.4-.7 2.954 2.954 0 0 0-1.161-.18h-1.211a4.892 4.892 0 0 1-1.206-.131 1.476 1.476 0 0 0-.684 1.17 1.023 1.023 0 0 0 .6.927 3.47 3.47 0 0 0 1.668.333zM81.81.216a1.751 1.751 0 0 1-1.566-.666 3.209 3.209 0 0 1-.45-1.818v-10.44h2.07V-2.16a.771.771 0 0 0 .144.531.42.42 0 0 0 .306.153h.135a.763.763 0 0 0 .189-.036l.27 1.548a2.793 2.793 0 0 1-1.098.18zm6.642 0a4.585 4.585 0 0 1-1.71-.316 4.061 4.061 0 0 1-1.386-.909 4.147 4.147 0 0 1-.927-1.449A5.352 5.352 0 0 1 84.1-4.41a5.244 5.244 0 0 1 .342-1.944 4.459 4.459 0 0 1 .909-1.458 4.027 4.027 0 0 1 1.305-.918 3.726 3.726 0 0 1 1.512-.324 3.846 3.846 0 0 1 1.584.306 3.09 3.09 0 0 1 1.143.864 3.8 3.8 0 0 1 .693 1.332 5.825 5.825 0 0 1 .234 1.692q0 .306-.027.576a3.838 3.838 0 0 1-.063.432h-5.62a2.854 2.854 0 0 0 .837 1.827 2.513 2.513 0 0 0 1.773.639 3.259 3.259 0 0 0 1.071-.171 4.76 4.76 0 0 0 .981-.477l.7 1.3a6.356 6.356 0 0 1-1.4.684 4.883 4.883 0 0 1-1.622.266zm-2.358-5.472h3.924a2.621 2.621 0 0 0-.441-1.611 1.592 1.592 0 0 0-1.359-.585 1.961 1.961 0 0 0-1.386.558 2.645 2.645 0 0 0-.738 1.638zm14.4 5.472A3.233 3.233 0 0 1 97.839-1a5.3 5.3 0 0 1-.981-3.411 5.647 5.647 0 0 1 .315-1.944 4.534 4.534 0 0 1 .837-1.458 3.739 3.739 0 0 1 1.2-.918 3.188 3.188 0 0 1 1.395-.324 2.837 2.837 0 0 1 1.278.261 5.117 5.117 0 0 1 1.044.711l-.075-1.417v-3.2h2.07V0h-1.71l-.144-.954H103a4.679 4.679 0 0 1-1.134.828 2.89 2.89 0 0 1-1.372.342zm.5-1.71a2.469 2.469 0 0 0 1.854-.99v-4.122a2.928 2.928 0 0 0-.909-.576 2.567 2.567 0 0 0-.891-.162 1.793 1.793 0 0 0-1.458.756 3.428 3.428 0 0 0-.59 2.16 3.862 3.862 0 0 0 .513 2.187 1.69 1.69 0 0 0 1.487.747zm8.694 1.71A2.573 2.573 0 0 1 107.8-.5a2.525 2.525 0 0 1-.72-1.881 2.587 2.587 0 0 1 .3-1.251 2.56 2.56 0 0 1 .936-.945 6.216 6.216 0 0 1 1.62-.666 14.813 14.813 0 0 1 2.349-.414 3.336 3.336 0 0 0-.1-.657 1.51 1.51 0 0 0-.27-.558 1.256 1.256 0 0 0-.5-.378 1.873 1.873 0 0 0-.756-.135 3.347 3.347 0 0 0-1.269.252 8.534 8.534 0 0 0-1.215.612l-.751-1.379a8.854 8.854 0 0 1 1.656-.81 5.627 5.627 0 0 1 1.98-.342 3.041 3.041 0 0 1 2.475.981 4.317 4.317 0 0 1 .819 2.835V0h-1.71l-.144-.972h-.072a6.493 6.493 0 0 1-1.269.846 3.2 3.2 0 0 1-1.467.342zm.666-1.62a1.942 1.942 0 0 0 .981-.252 5.267 5.267 0 0 0 .945-.72v-1.98a9.448 9.448 0 0 0-1.512.288 4.371 4.371 0 0 0-.99.4 1.443 1.443 0 0 0-.54.513 1.229 1.229 0 0 0-.162.612 1.01 1.01 0 0 0 .36.864 1.488 1.488 0 0 0 .922.279zm7.074 5.04a3.876 3.876 0 0 1-.63-.045 3.03 3.03 0 0 1-.522-.135l.378-1.62q.126.036.3.081a1.306 1.306 0 0 0 .333.045 1.521 1.521 0 0 0 1.125-.423 2.677 2.677 0 0 0 .64-1.089l.162-.558-3.474-8.73h2.106l1.53 4.338q.2.576.387 1.215t.387 1.269h.072l.333-1.251q.171-.639.333-1.233l1.332-4.338h2L121.014.4a9.483 9.483 0 0 1-.594 1.35 4.417 4.417 0 0 1-.747 1.017 2.937 2.937 0 0 1-.972.648 3.327 3.327 0 0 1-1.269.221zm8.622-3.42a1.292 1.292 0 0 1-.963-.4 1.383 1.383 0 0 1-.387-1.008 1.383 1.383 0 0 1 .387-1.008 1.292 1.292 0 0 1 .963-.4 1.263 1.263 0 0 1 .954.4 1.4 1.4 0 0 1 .378 1.008 1.4 1.4 0 0 1-.378 1.008 1.263 1.263 0 0 1-.95.4z" transform="translate(.648 197.059)"/><path id="H" class="cls-2" d="M18.3 174.3v-16.6H11v16.6H2.3v-47.7H11v22.8h7.3v-22.8H27v47.7z"/><path id="A" class="cls-2" d="M51 174.3l-1-6.1h-8.3l-.9 6.1h-8.6l8.6-47.7h10.4l8.6 47.7zm-2.1-14.1l-3-19.2-3.1 19.2z"/><path id="C" class="cls-2" d="M84.9 128.6a12.5 12.5 0 0 1 3.2 9v3l-8.4.4v-2.6a6.711 6.711 0 0 0-.8-3.7 2.96 2.96 0 0 0-2.6-1.2c-2.3 0-3.5 1.4-3.5 4.2V162c0 2.8 1.2 4.2 3.5 4.2a2.96 2.96 0 0 0 2.6-1.2 6.711 6.711 0 0 0 .8-3.7v-3.4l8.4.4v3.7a12.5 12.5 0 0 1-3.2 9c-2.1 2.2-5.1 3.3-8.9 3.3-3.7 0-6.7-1.1-8.8-3.3s-3.2-5.2-3.2-9.1v-24.5c0-3.9 1.1-6.9 3.2-9 2.1-2.2 5.1-3.2 8.8-3.2 3.8.1 6.7 1.2 8.9 3.4z"/><path id="K" class="cls-2" d="M120.7 174.3h-9.3l-7.5-19.1h-1.7v19.1h-8.7v-47.7h8.7v18.8h1.7l7.5-18.8h9.2l-9.7 23.5z"/><path id="E" class="cls-2" d="M133.9 134.8v15h10.6l-1.4 8.2h-9.3v8.1h13.3v8.2h-22v-47.7h22v8.2z"/><path id="D" class="cls-2" d="M174.9 130c2.3 2.2 3.4 5.4 3.4 9.6v21.8c0 4.2-1.1 7.4-3.4 9.6s-5.6 3.3-10.1 3.3h-11.2v-47.7h11.2c4.5.1 7.9 1.2 10.1 3.4zm-10.4 36.2c3.4 0 5.1-1.7 5.1-5.2v-20.9c0-3.5-1.7-5.2-5.1-5.2h-2.2v31.3h2.2z"/><path id="A-2" data-name="A" class="cls-6" d="M51.3 110.1l-.7-4.2h-5.8l-.6 4.2h-6l6-33.1h7.2l6 33.1zm-1.5-9.8L47.7 87l-2.2 13.3z"/><path id="C-2" data-name="C" class="cls-6" d="M74.7 78.3a8.18 8.18 0 0 1 2.2 6.3v2.1L71 87v-1.9a4.023 4.023 0 0 0-.6-2.6 2.342 2.342 0 0 0-1.8-.8c-1.6 0-2.4 1-2.4 2.9v16.9c0 2 .8 2.9 2.4 2.9a2.342 2.342 0 0 0 1.8-.8 4.023 4.023 0 0 0 .6-2.6v-2.3l5.9.3v2.6a9.009 9.009 0 0 1-2.2 6.3c-1.5 1.6-3.5 2.3-6.2 2.3a8.053 8.053 0 0 1-6.1-2.3 8.18 8.18 0 0 1-2.2-6.3v-17a8.18 8.18 0 0 1 2.2-6.3 8.524 8.524 0 0 1 6.1-2.2 7.835 7.835 0 0 1 6.2 2.2z"/><path id="C-3" data-name="C" class="cls-6" d="M95.3 78.3a8.18 8.18 0 0 1 2.2 6.3v2.1l-5.9.3v-1.9a4.023 4.023 0 0 0-.6-2.6 2.342 2.342 0 0 0-1.8-.8c-1.6 0-2.4 1-2.4 2.9v16.9c0 2 .8 2.9 2.4 2.9a2.342 2.342 0 0 0 1.8-.8 4.023 4.023 0 0 0 .6-2.6v-2.3l5.9.3v2.6a9.009 9.009 0 0 1-2.2 6.3c-1.5 1.6-3.5 2.3-6.2 2.3a8.053 8.053 0 0 1-6.1-2.3 8.18 8.18 0 0 1-2.2-6.3v-17a8.18 8.18 0 0 1 2.2-6.3 8.524 8.524 0 0 1 6.1-2.2 7.835 7.835 0 0 1 6.2 2.2z"/><path id="O" class="cls-6" d="M116.4 78.6c1.6 1.6 2.3 3.8 2.3 6.6v16.1a9.37 9.37 0 0 1-2.3 6.6c-1.5 1.7-3.7 2.4-6.4 2.4a8.819 8.819 0 0 1-6.4-2.4c-1.6-1.6-2.3-3.8-2.3-6.6V85.1a9.37 9.37 0 0 1 2.3-6.6c1.5-1.7 3.7-2.4 6.4-2.4a8.51 8.51 0 0 1 6.4 2.5zm-9.1 6.6v16c0 2.2.9 3.4 2.6 3.4s2.6-1.1 2.6-3.4v-16c0-2.2-.9-3.4-2.6-3.4s-2.6 1.1-2.6 3.4z"/><path id="U" class="cls-6" d="M137.7 108.3a7.96 7.96 0 0 1-6.2 2.2 7.622 7.622 0 0 1-6.1-2.2 9.009 9.009 0 0 1-2.2-6.3V76.9h5.9v25a2.928 2.928 0 0 0 .7 2.2 2.219 2.219 0 0 0 3.1.3l.3-.3a2.928 2.928 0 0 0 .7-2.2v-25h6v25.2a8.764 8.764 0 0 1-2.2 6.2z"/><path id="N" class="cls-6" d="M157.2 77h5.8v33.1h-5.8l-6.4-18.4v18.4h-5.7V77h6.5l5.8 16.2V77z"/><path id="T" class="cls-6" d="M178.5 82.7v27.4h-6V82.7h-6.4l1-5.8H184l1 5.8z"/><path id="S" class="cls-6" d="M200.5 78.6a7.972 7.972 0 0 1 2.1 5.9v4.7l-5.9.6v-5.1c0-1.6-.7-2.4-2.1-2.5-1.4 0-2.1.8-2.1 2.5V87a3.775 3.775 0 0 0 1 2.7 7.893 7.893 0 0 0 3.1 2 12.188 12.188 0 0 1 4.3 2.4 6.25 6.25 0 0 1 1.9 3.1 18.4 18.4 0 0 1 .4 4.1v1.2a8.055 8.055 0 0 1-2.2 5.9 10.2 10.2 0 0 1-12.4 0 8.055 8.055 0 0 1-2.2-5.9v-3.6l5.9-.6v3.9a2.957 2.957 0 0 0 .6 2 2.41 2.41 0 0 0 1.8.7 2.333 2.333 0 0 0 1.8-.6 2.635 2.635 0 0 0 .6-2.1v-.6a5.029 5.029 0 0 0-.8-2.7 7.522 7.522 0 0 0-3.4-2.1 9.7 9.7 0 0 1-5-3.9 11.208 11.208 0 0 1-1.4-5.7v-2.6a7.972 7.972 0 0 1 2.1-5.9 8.2 8.2 0 0 1 6-2.1c2.6 0 4.5.6 5.9 2z"/><path id="facebook_icon" data-name="facebook icon" class="cls-6" d="M29.9 76.2H2.6a1.967 1.967 0 0 0-1.9 1.9v27.4a1.967 1.967 0 0 0 1.9 1.9H13l3.4 3.4 3.4-3.4h10a1.967 1.967 0 0 0 1.9-1.9V78.2a1.867 1.867 0 0 0-1.5-2zM22.1 86h-1.9c-1.7 0-1.9 0-1.9 3.9h3.9v3.9h-3.9v7.8h-1.6l-.1-.1-.1.1h-2v-7.8h-3.9v-3.9h3.9c0-3 0-7.8 5.8-7.8h1.9z"/><path id="_0" data-name="0" class="cls-5" d="M149.6-1515.6a16.564 16.564 0 0 1 4.2 11.7v28.8c0 4.9-1.4 8.8-4.2 11.6-2.7 2.9-6.6 4.3-11.4 4.3s-8.6-1.5-11.3-4.3c-2.7-2.9-4.1-6.8-4.1-11.6v-28.8c0-4.9 1.4-8.8 4.1-11.7s6.5-4.4 11.3-4.4c4.8.1 8.6 1.5 11.4 4.4zm-16.1 11.8v28.6c0 4 1.5 6 4.7 6s4.7-2 4.7-6v-28.6c0-4-1.5-6-4.7-6-3.1 0-4.7 2-4.7 6z" transform="translate(69 1520)"/><path id="_0-2" data-name="0" class="cls-5" d="M112.4-1515.6a16.564 16.564 0 0 1 4.2 11.7v28.8c0 4.9-1.4 8.8-4.2 11.6-2.7 2.9-6.6 4.3-11.4 4.3s-8.6-1.5-11.3-4.3c-2.7-2.9-4.1-6.8-4.1-11.6v-28.8c0-4.9 1.4-8.8 4.1-11.7s6.5-4.4 11.3-4.4c4.8.1 8.6 1.5 11.4 4.4zm-16 11.8v28.6c0 4 1.5 6 4.7 6s4.7-2 4.7-6v-28.6c0-4-1.5-6-4.7-6-3.1 0-4.7 2-4.7 6z" transform="translate(69 1520)"/><path id="_0-3" data-name="0" class="cls-5" d="M75.3-1515.6a16.564 16.564 0 0 1 4.2 11.7v28.8c0 4.9-1.4 8.8-4.2 11.6-2.7 2.9-6.6 4.3-11.4 4.3s-8.6-1.5-11.3-4.3c-2.7-2.9-4.1-6.8-4.1-11.6v-28.8c0-4.9 1.4-8.8 4.1-11.7s6.5-4.4 11.3-4.4 8.6 1.5 11.4 4.4zm-16 11.8v28.6c0 4 1.5 6 4.7 6s4.7-2 4.7-6v-28.6c0-4-1.5-6-4.7-6s-4.7 2-4.7 6z" transform="translate(69 1520)"/><path id="comma" class="cls-5" d="M42.7-1455h-3.9l1.9-5.8H39v-6.8h6.8v5.9z" transform="translate(69 1520)"/><path id="_0-4" data-name="0" class="cls-5" d="M31.3-1515.6a16.564 16.564 0 0 1 4.2 11.7v28.8c0 4.9-1.4 8.8-4.2 11.6-2.7 2.9-6.6 4.3-11.4 4.3s-8.6-1.5-11.3-4.3c-2.7-2.9-4.1-6.8-4.1-11.6v-28.8c0-4.9 1.4-8.8 4.1-11.7s6.5-4.4 11.3-4.4a15.293 15.293 0 0 1 11.4 4.4zm-16.1 11.8v28.6c0 4 1.5 6 4.7 6s4.7-2 4.7-6v-28.6c0-4-1.5-6-4.7-6-3.1 0-4.7 2-4.7 6z" transform="translate(69 1520)"/><path id="_0-5" data-name="0" class="cls-5" d="M-5.9-1515.6a16.564 16.564 0 0 1 4.2 11.7v28.8c0 4.9-1.4 8.8-4.2 11.6-2.7 2.9-6.6 4.3-11.4 4.3s-8.6-1.5-11.3-4.3c-2.7-2.9-4.1-6.8-4.1-11.6v-28.8c0-4.9 1.4-8.8 4.1-11.7s6.5-4.4 11.3-4.4 8.7 1.5 11.4 4.4zm-16 11.8v28.6c0 4 1.5 6 4.7 6s4.7-2 4.7-6v-28.6c0-4-1.5-6-4.7-6s-4.7 2-4.7 6z" transform="translate(69 1520)"/><path id="_6" data-name="6" class="cls-5" d="M-41.6-1493.7c2.3 2.8 3.5 6.6 3.5 11.3v7.3c0 4.9-1.4 8.8-4.2 11.6-2.7 2.9-6.6 4.3-11.4 4.3-4.7 0-8.5-1.5-11.2-4.3s-4.1-6.7-4.1-11.6v-29.5c0-4.7 1.4-8.5 4-11.2 2.7-2.7 6.4-4.1 11.1-4.1s8.5 1.3 11.1 3.9 4 6.3 4 11v1.8l-10.4.8v-1.6a7.691 7.691 0 0 0-1-4.5 3.958 3.958 0 0 0-3.4-1.4 4.517 4.517 0 0 0-3.5 1.3 5.8 5.8 0 0 0-1.1 4v8.9a10.906 10.906 0 0 1 7.2-2.3 11.8 11.8 0 0 1 9.4 4.3zm-15.4 7.4a7.124 7.124 0 0 0-1.2 4.5v6.6a7.294 7.294 0 0 0 1.2 4.5 4.037 4.037 0 0 0 3.4 1.5 4.037 4.037 0 0 0 3.4-1.5 7.124 7.124 0 0 0 1.2-4.5v-6.6a7.294 7.294 0 0 0-1.2-4.5 4.037 4.037 0 0 0-3.4-1.5 4.037 4.037 0 0 0-3.4 1.5z" transform="translate(69 1520)"/></svg>