<svg xmlns="http://www.w3.org/2000/svg" viewBox="0 0 297.1 188.06"><defs><style>.cls-1{fill:#24539b}.cls-2{fill:#5893ce}.cls-3,.cls-6{fill:none;stroke:#0e2044;stroke-linecap:round;stroke-linejoin:round;stroke-miterlimit:10}.cls-3{stroke-width:3px}.cls-4{fill:#119e49}.cls-5{fill:#daeaf8}.cls-6{stroke-width:4px}.cls-7{fill:#0e2044}.cls-8{fill:#fff}</style></defs><g id="lost_358-outlined" data-name="lost 358-outlined" transform="translate(0 -5)"><circle id="Ellipse_189" data-name="Ellipse 189" class="cls-1" cx="35" cy="35" r="35" transform="translate(225.6 43)"/><circle id="Ellipse_190" data-name="Ellipse 190" class="cls-2" cx="24.5" cy="24.5" r="24.5" transform="translate(236.1 53.5)"/><circle id="Ellipse_191" data-name="Ellipse 191" class="cls-3" cx="35" cy="35" r="35" transform="translate(225.6 43)"/><path id="Path_3842" data-name="Path 3842" class="cls-3" d="M264.9 63.9a5.256 5.256 0 0 0-4.7-2.8c-5.3-.1-7.5 7.4-1.3 9.6 9.6 3.3 6.2 11.1 1.4 11.1a7.051 7.051 0 0 1-6.2-3.1" transform="translate(0 5)"/><path id="Line_441" data-name="Line 441" class="cls-3" transform="translate(260.6 62.6)" d="M0 0v3.4"/><path id="Line_442" data-name="Line 442" class="cls-3" transform="translate(260.6 87.5)" d="M0 0v3.5"/><path id="Line_443" data-name="Line 443" class="cls-3" transform="translate(260.6 46.6)" d="M0 3.4V0"/><path id="Line_444" data-name="Line 444" class="cls-3" transform="translate(260.6 105.8)" d="M0 3.5V0"/><path id="Line_445" data-name="Line 445" class="cls-3" transform="translate(288.6 78)" d="M0 0h3.4"/><path id="Line_446" data-name="Line 446" class="cls-3" transform="translate(229.3 78)" d="M0 0h3.4"/><path id="Line_447" data-name="Line 447" class="cls-3" transform="translate(280.5 56)" d="M0 2.2L2.2 0"/><path id="Line_448" data-name="Line 448" class="cls-3" transform="translate(238.6 97.8)" d="M0 2.2L2.2 0"/><path id="Line_449" data-name="Line 449" class="cls-3" transform="translate(280.5 97.8)" d="M0 0l2.2 2.2"/><path id="Line_450" data-name="Line 450" class="cls-3" transform="translate(238.6 56)" d="M0 0l2.2 2.2"/><path id="Line_451" data-name="Line 451" class="cls-3" transform="translate(248.7 49.2)" d="M1.2 2.9L0 0"/><path id="Line_452" data-name="Line 452" class="cls-3" transform="translate(271.4 103.9)" d="M1.2 2.9L0 0"/><path id="Line_453" data-name="Line 453" class="cls-3" transform="translate(286.3 65.4)" d="M0 1.3L2.8 0"/><path id="Line_454" data-name="Line 454" class="cls-3" transform="translate(232.1 89.3)" d="M0 1.3L2.9 0"/><path id="Line_455" data-name="Line 455" class="cls-3" transform="translate(286.4 88.9)" d="M0 0l2.9 1.2"/><path id="Line_456" data-name="Line 456" class="cls-3" transform="translate(231.9 65.9)" d="M0 0l2.9 1.2"/><circle id="Ellipse_192" data-name="Ellipse 192" class="cls-3" cx="24.1" cy="24.1" r="24.1" transform="translate(236.5 53.9)"/><path id="Line_457" data-name="Line 457" class="cls-3" transform="translate(271.4 49.2)" d="M1.2 0L0 2.9"/><path id="Line_458" data-name="Line 458" class="cls-3" transform="translate(248.7 103.9)" d="M1.2 0L0 2.9"/><circle id="dollar_sign_circle" data-name="dollar sign circle" class="cls-4" cx="16.7" cy="16.7" r="16.7" transform="translate(201.7 14.1)"/><path id="S" class="cls-3" d="M220.1 19.4a3.793 3.793 0 0 0-3.7-.8 3.327 3.327 0 0 0 1.3 6.5c7.1 0 6.6 5.8 3.5 6.9a5 5 0 0 1-4.8-.6" transform="translate(0 5)"/><path id="Line_459" data-name="Line 459" class="cls-3" transform="translate(215.9 21.2)" d="M0 0l.8 2.2"/><path id="Line_460" data-name="Line 460" class="cls-3" transform="translate(221.6 37.5)" d="M0 0l.8 2.2"/><path id="Line_461" data-name="Line 461" class="cls-3" transform="translate(260.4 6.5)" d="M0 0v28.6"/><path id="Line_462" data-name="Line 462" class="cls-3" transform="translate(268.1 25.9)" d="M0 0v10.8"/><path id="Line_463" data-name="Line 463" class="cls-3" transform="translate(268.1 12.9)" d="M0 0v6.8"/><path id="Line_464" data-name="Line 464" class="cls-3" transform="translate(252.7 14.3)" d="M0 0v22.4"/><path id="Line_465" data-name="Line 465" class="cls-3" transform="translate(275.8 9.4)" d="M0 0v31.6"/><path id="Line_466" data-name="Line 466" class="cls-3" transform="translate(245 9.4)" d="M0 0v31.6"/><path id="clock_face" data-name="clock face" class="cls-5" d="M246.1 94.8a44 44 0 1 0 44 44 44 44 0 0 0-44-44z" transform="translate(0 5)"/><path id="clock_outline" data-name="clock outline" class="cls-6" d="M246.1 94.8a44 44 0 1 0 44 44 44 44 0 0 0-44-44z" transform="translate(0 5)"/><path id="clock_line" data-name="clock line" class="cls-7" d="M246.1 167.4a1.9 1.9 0 0 0-1.9 1.9v3.8a1.9 1.9 0 0 0 3.8 0v-3.8a1.967 1.967 0 0 0-1.9-1.9z" transform="translate(0 5)"/><path id="clock_line-2" data-name="clock line" class="cls-7" d="M276.7 140.7h3.8a1.9 1.9 0 0 0 0-3.8h-3.8a1.9 1.9 0 0 0 0 3.8z" transform="translate(0 5)"/><path id="clock_line-3" data-name="clock line" class="cls-7" d="M215.5 136.8h-3.8a1.9 1.9 0 1 0 0 3.8h3.8a1.9 1.9 0 0 0 1.9-1.9 1.967 1.967 0 0 0-1.9-1.9z" transform="translate(0 5)"/><path id="clock_line-4" data-name="clock line" class="cls-7" d="M269.1 113l-2.7 2.7a2 2 0 0 0 0 2.7 1.933 1.933 0 0 0 2.8 0l2.7-2.7a2 2 0 0 0 0-2.7 2.129 2.129 0 0 0-2.8 0z" transform="translate(0 5)"/><path id="clock_line-5" data-name="clock line" class="cls-7" d="M223.1 159l-2.7 2.7a2 2 0 0 0 0 2.7 1.933 1.933 0 0 0 2.8 0l2.7-2.7a2 2 0 0 0 0-2.7 2.128 2.128 0 0 0-2.8 0z" transform="translate(0 5)"/><path id="clock_line-6" data-name="clock line" class="cls-7" d="M269.1 159a1.909 1.909 0 0 0-2.7 2.7l2.7 2.7a1.933 1.933 0 0 0 2.8 0 2 2 0 0 0 0-2.7z" transform="translate(0 5)"/><path id="clock_line-7" data-name="clock line" class="cls-7" d="M223.1 113a1.909 1.909 0 1 0-2.7 2.7l2.7 2.7a1.933 1.933 0 0 0 2.8 0 2 2 0 0 0 0-2.7z" transform="translate(0 5)"/><path id="clock_hands" data-name="clock hands" class="cls-7" d="M248 133.4v-29a1.9 1.9 0 1 0-3.8 0v29a5.752 5.752 0 0 0-3.8 5.4 5.421 5.421 0 0 0 .6 2.5l-10.2 10.2a2 2 0 0 0 0 2.7 1.933 1.933 0 0 0 2.8 0l10.2-10.2a5.135 5.135 0 0 0 2.5.6 5.7 5.7 0 0 0 5.7-5.7 6.258 6.258 0 0 0-4-5.5zm-1.9 7.3a2.106 2.106 0 0 1-1.3-.5.1.1 0 0 0-.1-.1c-.1 0-.1 0-.1-.1a1.9 1.9 0 1 1 3.3-1.3 1.973 1.973 0 0 1-1.8 2z" transform="translate(0 5)"/><path id="per_year_block" data-name="per year block" class="cls-4" d="M176.578 170.7l-71.971 4.4-.107-18 71.971-4.4z" transform="translate(6.5 -2)"/><path id="dealing_with_online_crime." data-name="dealing with online crime." class="cls-7" d="M4.41.216A3.233 3.233 0 0 1 1.755-1a5.3 5.3 0 0 1-.981-3.41 5.647 5.647 0 0 1 .315-1.944 4.534 4.534 0 0 1 .837-1.458 3.739 3.739 0 0 1 1.2-.918 3.188 3.188 0 0 1 1.395-.324 2.837 2.837 0 0 1 1.279.261 5.117 5.117 0 0 1 1.044.711L6.768-9.5v-3.2h2.07V0h-1.71l-.144-.954h-.072a4.679 4.679 0 0 1-1.134.828A2.89 2.89 0 0 1 4.41.216zm.5-1.71a2.469 2.469 0 0 0 1.854-.99v-4.122a2.928 2.928 0 0 0-.909-.576 2.567 2.567 0 0 0-.891-.162 1.793 1.793 0 0 0-1.458.756 3.428 3.428 0 0 0-.594 2.16 3.862 3.862 0 0 0 .513 2.187 1.69 1.69 0 0 0 1.489.747zM15.246.216a4.585 4.585 0 0 1-1.71-.316 4.06 4.06 0 0 1-1.386-.909 4.147 4.147 0 0 1-.927-1.449 5.352 5.352 0 0 1-.333-1.952 5.244 5.244 0 0 1 .342-1.944 4.459 4.459 0 0 1 .909-1.458 4.027 4.027 0 0 1 1.3-.918 3.726 3.726 0 0 1 1.512-.324 3.846 3.846 0 0 1 1.584.306 3.09 3.09 0 0 1 1.143.864 3.8 3.8 0 0 1 .693 1.332 5.825 5.825 0 0 1 .234 1.692q0 .306-.027.576a3.837 3.837 0 0 1-.063.432h-5.611a2.854 2.854 0 0 0 .837 1.827 2.513 2.513 0 0 0 1.773.639 3.259 3.259 0 0 0 1.071-.171 4.76 4.76 0 0 0 .981-.477l.7 1.3a6.356 6.356 0 0 1-1.4.684 4.883 4.883 0 0 1-1.622.266zm-2.358-5.472h3.924a2.621 2.621 0 0 0-.441-1.611 1.592 1.592 0 0 0-1.359-.585 1.961 1.961 0 0 0-1.386.558 2.645 2.645 0 0 0-.738 1.638zm9.63 5.472a2.573 2.573 0 0 1-1.89-.716 2.525 2.525 0 0 1-.72-1.881 2.587 2.587 0 0 1 .3-1.251 2.56 2.56 0 0 1 .936-.945 6.216 6.216 0 0 1 1.62-.666 14.813 14.813 0 0 1 2.349-.414 3.336 3.336 0 0 0-.1-.657 1.51 1.51 0 0 0-.27-.558 1.256 1.256 0 0 0-.5-.378 1.873 1.873 0 0 0-.756-.135 3.347 3.347 0 0 0-1.269.252 8.534 8.534 0 0 0-1.215.612L20.25-7.9a8.854 8.854 0 0 1 1.656-.81 5.627 5.627 0 0 1 1.98-.342 3.041 3.041 0 0 1 2.475.981 4.317 4.317 0 0 1 .819 2.835V0h-1.71l-.144-.972h-.072a6.494 6.494 0 0 1-1.269.846 3.2 3.2 0 0 1-1.467.342zm.666-1.62a1.942 1.942 0 0 0 .981-.252 5.267 5.267 0 0 0 .945-.72v-1.98a9.448 9.448 0 0 0-1.512.288 4.37 4.37 0 0 0-.99.4 1.443 1.443 0 0 0-.54.513 1.229 1.229 0 0 0-.162.612 1.01 1.01 0 0 0 .36.864 1.488 1.488 0 0 0 .918.279zm8.5 1.62a1.751 1.751 0 0 1-1.57-.666 3.209 3.209 0 0 1-.45-1.818v-10.44h2.07V-2.16a.771.771 0 0 0 .144.531.42.42 0 0 0 .306.153h.135a.763.763 0 0 0 .189-.036l.27 1.548a2.794 2.794 0 0 1-1.098.18zM34.542 0v-8.838h2.07V0zm1.044-10.386a1.32 1.32 0 0 1-.918-.324 1.085 1.085 0 0 1-.36-.846 1.112 1.112 0 0 1 .36-.855 1.3 1.3 0 0 1 .918-.333 1.3 1.3 0 0 1 .918.333 1.112 1.112 0 0 1 .36.855 1.085 1.085 0 0 1-.36.846 1.32 1.32 0 0 1-.918.324zM39.258 0v-8.838h1.71l.144 1.188h.072a7.007 7.007 0 0 1 1.287-.99 3.081 3.081 0 0 1 1.611-.414 2.367 2.367 0 0 1 2.07.909 4.441 4.441 0 0 1 .648 2.6V0h-2.07v-5.274a2.75 2.75 0 0 0-.324-1.548 1.219 1.219 0 0 0-1.062-.45 1.861 1.861 0 0 0-1.017.279 6.488 6.488 0 0 0-1 .819V0zm13.158 3.906a7.032 7.032 0 0 1-1.467-.144 3.835 3.835 0 0 1-1.161-.432 2.266 2.266 0 0 1-.765-.72 1.817 1.817 0 0 1-.279-1.01 1.805 1.805 0 0 1 .324-1.033A3.03 3.03 0 0 1 50-.288V-.36a1.794 1.794 0 0 1-.567-.576 1.669 1.669 0 0 1-.225-.9 1.606 1.606 0 0 1 .3-.945 2.858 2.858 0 0 1 .675-.693v-.072a3.162 3.162 0 0 1-.8-.945 2.722 2.722 0 0 1-.351-1.395 3.056 3.056 0 0 1 .288-1.35 3.02 3.02 0 0 1 .765-1 3.265 3.265 0 0 1 1.107-.612 4.24 4.24 0 0 1 1.332-.207 3.721 3.721 0 0 1 .693.063 4.641 4.641 0 0 1 .6.153h3.168v1.53h-1.62a2.1 2.1 0 0 1 .36.639 2.435 2.435 0 0 1 .144.855 3.029 3.029 0 0 1-.261 1.3 2.7 2.7 0 0 1-.711.936 3.127 3.127 0 0 1-1.062.576 4.244 4.244 0 0 1-1.314.2 3.416 3.416 0 0 1-.594-.054 2.954 2.954 0 0 1-.612-.18 1.879 1.879 0 0 0-.315.36.883.883 0 0 0-.117.486.682.682 0 0 0 .317.591 2.108 2.108 0 0 0 1.125.216h1.566a4.615 4.615 0 0 1 2.421.513 1.815 1.815 0 0 1 .82 1.663 2.407 2.407 0 0 1-.332 1.224 3.023 3.023 0 0 1-.945.99 5.052 5.052 0 0 1-1.485.657 7.281 7.281 0 0 1-1.954.243zm.108-8.01a1.459 1.459 0 0 0 1.08-.459 1.812 1.812 0 0 0 .45-1.323 1.782 1.782 0 0 0-.441-1.287 1.45 1.45 0 0 0-1.089-.459 1.494 1.494 0 0 0-1.1.45 1.754 1.754 0 0 0-.45 1.3 1.812 1.812 0 0 0 .45 1.323 1.479 1.479 0 0 0 1.1.459zm.216 6.66a3.168 3.168 0 0 0 1.737-.423 1.2 1.2 0 0 0 .657-1 .693.693 0 0 0-.405-.7 2.954 2.954 0 0 0-1.161-.18h-1.206a4.892 4.892 0 0 1-1.206-.127 1.476 1.476 0 0 0-.684 1.17 1.023 1.023 0 0 0 .6.927 3.47 3.47 0 0 0 1.668.333zM63.756 0l-2.34-8.838H63.5l1.062 4.59q.144.63.243 1.26t.225 1.278h.072q.126-.648.261-1.278t.3-1.26l1.152-4.59h1.89l1.17 4.59q.162.63.306 1.26t.289 1.278h.072q.126-.648.234-1.278t.234-1.26l1.062-4.59h1.944L71.766 0H69.3l-1.026-4.122q-.144-.63-.27-1.251t-.27-1.327h-.072q-.126.7-.252 1.332T67.14-4.1L66.132 0zm12.006 0v-8.838h2.07V0zm1.044-10.386a1.32 1.32 0 0 1-.918-.324 1.085 1.085 0 0 1-.36-.846 1.112 1.112 0 0 1 .36-.855 1.3 1.3 0 0 1 .918-.333 1.3 1.3 0 0 1 .918.333 1.112 1.112 0 0 1 .36.855 1.085 1.085 0 0 1-.36.846 1.32 1.32 0 0 1-.918.324zM83.592.216a3.233 3.233 0 0 1-1.305-.234 2.212 2.212 0 0 1-.864-.657 2.72 2.72 0 0 1-.486-1.008 5.159 5.159 0 0 1-.153-1.3V-7.2h-1.26v-1.548l1.368-.09.252-2.412h1.728v2.412h2.25V-7.2h-2.25v4.212q0 1.548 1.242 1.548a2.195 2.195 0 0 0 .477-.054 2.236 2.236 0 0 0 .441-.144l.36 1.53a6.89 6.89 0 0 1-.819.225 4.647 4.647 0 0 1-.981.099zM86.976 0v-12.708h2.07v3.276l-.072 1.71a7.283 7.283 0 0 1 1.233-.927 3.038 3.038 0 0 1 1.593-.405 2.367 2.367 0 0 1 2.07.909 4.441 4.441 0 0 1 .648 2.6V0h-2.07v-5.274a2.75 2.75 0 0 0-.324-1.548 1.219 1.219 0 0 0-1.062-.45 1.861 1.861 0 0 0-1.017.279 6.488 6.488 0 0 0-1 .819V0zm17.262.216a4.182 4.182 0 0 1-1.584-.306 3.941 3.941 0 0 1-1.341-.9 4.306 4.306 0 0 1-.927-1.458 5.3 5.3 0 0 1-.342-1.962 5.3 5.3 0 0 1 .342-1.962 4.306 4.306 0 0 1 .927-1.458 4.055 4.055 0 0 1 1.341-.909 4.078 4.078 0 0 1 1.584-.315 4.144 4.144 0 0 1 1.593.315 3.936 3.936 0 0 1 1.341.909 4.5 4.5 0 0 1 .927 1.458 5.176 5.176 0 0 1 .351 1.962 5.176 5.176 0 0 1-.351 1.962 4.5 4.5 0 0 1-.927 1.458 3.829 3.829 0 0 1-1.341.9 4.251 4.251 0 0 1-1.593.306zm0-1.692a1.767 1.767 0 0 0 1.53-.8 3.665 3.665 0 0 0 .558-2.133 3.7 3.7 0 0 0-.558-2.151 1.767 1.767 0 0 0-1.53-.8 1.744 1.744 0 0 0-1.521.8 3.746 3.746 0 0 0-.549 2.151 3.71 3.71 0 0 0 .549 2.133 1.744 1.744 0 0 0 1.521.8zM110.5 0v-8.838h1.71l.144 1.188h.072a7.007 7.007 0 0 1 1.287-.99 3.081 3.081 0 0 1 1.611-.414 2.367 2.367 0 0 1 2.07.909 4.441 4.441 0 0 1 .648 2.6V0h-2.07v-5.274a2.75 2.75 0 0 0-.324-1.548 1.219 1.219 0 0 0-1.062-.45 1.861 1.861 0 0 0-1.017.279 6.488 6.488 0 0 0-1 .819V0zm12.1.216a1.751 1.751 0 0 1-1.566-.666 3.209 3.209 0 0 1-.45-1.818v-10.44h2.07V-2.16a.771.771 0 0 0 .144.531.42.42 0 0 0 .306.153h.135a.763.763 0 0 0 .189-.036L123.7.036a2.793 2.793 0 0 1-1.1.18zM125.46 0v-8.838h2.07V0zm1.04-10.386a1.32 1.32 0 0 1-.918-.324 1.085 1.085 0 0 1-.36-.846 1.112 1.112 0 0 1 .36-.855 1.3 1.3 0 0 1 .918-.333 1.3 1.3 0 0 1 .918.333 1.112 1.112 0 0 1 .36.855 1.085 1.085 0 0 1-.36.846 1.32 1.32 0 0 1-.918.324zM130.176 0v-8.838h1.71l.144 1.188h.072a7.006 7.006 0 0 1 1.287-.99A3.081 3.081 0 0 1 135-9.054a2.367 2.367 0 0 1 2.07.909 4.441 4.441 0 0 1 .648 2.6V0h-2.07v-5.274a2.75 2.75 0 0 0-.324-1.548 1.219 1.219 0 0 0-1.062-.45 1.861 1.861 0 0 0-1.017.279 6.488 6.488 0 0 0-1 .819V0zm13.86.216a4.585 4.585 0 0 1-1.71-.315 4.06 4.06 0 0 1-1.386-.909 4.147 4.147 0 0 1-.927-1.449 5.352 5.352 0 0 1-.333-1.953 5.244 5.244 0 0 1 .342-1.944 4.459 4.459 0 0 1 .909-1.458 4.027 4.027 0 0 1 1.305-.918 3.726 3.726 0 0 1 1.512-.324 3.846 3.846 0 0 1 1.584.306 3.09 3.09 0 0 1 1.143.864 3.8 3.8 0 0 1 .693 1.332 5.825 5.825 0 0 1 .232 1.692q0 .306-.027.576a3.834 3.834 0 0 1-.063.432h-5.61a2.854 2.854 0 0 0 .837 1.827 2.513 2.513 0 0 0 1.773.639 3.259 3.259 0 0 0 1.071-.171 4.76 4.76 0 0 0 .981-.477l.7 1.3a6.356 6.356 0 0 1-1.4.684 4.883 4.883 0 0 1-1.626.266zm-2.358-5.472h3.922a2.621 2.621 0 0 0-.441-1.611 1.592 1.592 0 0 0-1.359-.585 1.961 1.961 0 0 0-1.386.558 2.646 2.646 0 0 0-.736 1.638zM156.672.216a4.583 4.583 0 0 1-1.683-.306 3.792 3.792 0 0 1-1.359-.9 4.162 4.162 0 0 1-.9-1.458 5.56 5.56 0 0 1-.324-1.962 5.061 5.061 0 0 1 .36-1.962 4.313 4.313 0 0 1 .972-1.458 4.232 4.232 0 0 1 1.413-.909 4.557 4.557 0 0 1 1.683-.315 3.506 3.506 0 0 1 1.485.288 4.828 4.828 0 0 1 1.107.7l-1.008 1.35a3.428 3.428 0 0 0-.711-.477 1.723 1.723 0 0 0-.765-.171 2.161 2.161 0 0 0-1.746.8 3.259 3.259 0 0 0-.666 2.151 3.259 3.259 0 0 0 .657 2.133 2.1 2.1 0 0 0 1.7.8 2.2 2.2 0 0 0 .981-.225 4.408 4.408 0 0 0 .837-.531l.846 1.368a4.406 4.406 0 0 1-1.377.81 4.394 4.394 0 0 1-1.502.274zM161.3 0v-8.838h1.71l.144 1.566h.072a3.71 3.71 0 0 1 1.132-1.328 2.384 2.384 0 0 1 1.368-.459 2.369 2.369 0 0 1 1.008.18l-.36 1.8a3.779 3.779 0 0 0-.432-.108 2.774 2.774 0 0 0-.486-.036 1.929 1.929 0 0 0-1.1.4 3.129 3.129 0 0 0-.99 1.413V0zm6.714 0v-8.838h2.07V0zm1.044-10.386a1.32 1.32 0 0 1-.918-.324 1.085 1.085 0 0 1-.36-.846 1.112 1.112 0 0 1 .36-.855 1.3 1.3 0 0 1 .918-.333 1.3 1.3 0 0 1 .918.333 1.112 1.112 0 0 1 .36.855 1.085 1.085 0 0 1-.36.846 1.32 1.32 0 0 1-.92.324zM172.728 0v-8.838h1.71l.144 1.206h.072a6.2 6.2 0 0 1 1.215-1.008 2.727 2.727 0 0 1 1.485-.414 2.643 2.643 0 0 1 1.557.414 2.57 2.57 0 0 1 .891 1.17 7.11 7.11 0 0 1 1.314-1.13 2.723 2.723 0 0 1 1.53-.45 2.4 2.4 0 0 1 2.07.909 4.349 4.349 0 0 1 .666 2.6V0h-2.088v-5.274a2.69 2.69 0 0 0-.333-1.548 1.182 1.182 0 0 0-1.017-.45 2.784 2.784 0 0 0-1.854 1.1V0h-2.07v-5.274a2.69 2.69 0 0 0-.333-1.548 1.2 1.2 0 0 0-1.035-.45 2.784 2.784 0 0 0-1.854 1.1V0zm18.954.216a4.585 4.585 0 0 1-1.71-.315 4.06 4.06 0 0 1-1.386-.909 4.147 4.147 0 0 1-.927-1.449 5.352 5.352 0 0 1-.333-1.953 5.244 5.244 0 0 1 .342-1.944 4.459 4.459 0 0 1 .909-1.458 4.027 4.027 0 0 1 1.305-.918 3.726 3.726 0 0 1 1.512-.324 3.846 3.846 0 0 1 1.584.306 3.09 3.09 0 0 1 1.143.864 3.8 3.8 0 0 1 .693 1.332 5.825 5.825 0 0 1 .234 1.692q0 .306-.027.576a3.834 3.834 0 0 1-.063.432h-5.616a2.854 2.854 0 0 0 .837 1.827 2.513 2.513 0 0 0 1.773.639 3.259 3.259 0 0 0 1.071-.171 4.76 4.76 0 0 0 .977-.477l.7 1.3a6.356 6.356 0 0 1-1.4.684 4.883 4.883 0 0 1-1.618.266zm-2.358-5.472h3.924a2.621 2.621 0 0 0-.441-1.611 1.592 1.592 0 0 0-1.359-.585 1.961 1.961 0 0 0-1.386.558 2.646 2.646 0 0 0-.738 1.638zM198.2.216a1.292 1.292 0 0 1-.963-.4 1.383 1.383 0 0 1-.387-1.008 1.383 1.383 0 0 1 .387-1.008 1.292 1.292 0 0 1 .963-.4 1.263 1.263 0 0 1 .954.4 1.4 1.4 0 0 1 .378 1.008 1.4 1.4 0 0 1-.378 1.008 1.263 1.263 0 0 1-.954.4z" transform="translate(.278 189.154)"/><path id="per_year_" data-name="per year" class="cls-8" d="M1.314 3.492v-12.33h1.71l.144.936h.072a6.325 6.325 0 0 1 1.242-.81A3.142 3.142 0 0 1 5.9-9.054a3.276 3.276 0 0 1 1.467.315 3.042 3.042 0 0 1 1.093.909 4.236 4.236 0 0 1 .684 1.422 6.814 6.814 0 0 1 .234 1.854 6.054 6.054 0 0 1-.315 2.025 4.594 4.594 0 0 1-.837 1.494 3.655 3.655 0 0 1-1.206.927A3.284 3.284 0 0 1 5.6.216a2.854 2.854 0 0 1-1.154-.252 4.408 4.408 0 0 1-1.116-.72L3.384.72v2.772zm3.852-4.986a1.8 1.8 0 0 0 1.476-.765 3.672 3.672 0 0 0 .594-2.277 3.985 3.985 0 0 0-.45-2.07 1.577 1.577 0 0 0-1.458-.738 2.871 2.871 0 0 0-1.944.99v4.122a3.093 3.093 0 0 0 .936.576 2.5 2.5 0 0 0 .846.162zm10.08 1.71a4.585 4.585 0 0 1-1.71-.316 4.06 4.06 0 0 1-1.386-.909 4.147 4.147 0 0 1-.927-1.449 5.352 5.352 0 0 1-.333-1.952 5.244 5.244 0 0 1 .342-1.944 4.459 4.459 0 0 1 .909-1.458 4.027 4.027 0 0 1 1.3-.918 3.726 3.726 0 0 1 1.512-.324 3.846 3.846 0 0 1 1.584.306 3.09 3.09 0 0 1 1.143.864 3.8 3.8 0 0 1 .693 1.332 5.825 5.825 0 0 1 .234 1.692q0 .306-.027.576a3.837 3.837 0 0 1-.063.432h-5.611a2.854 2.854 0 0 0 .837 1.827 2.513 2.513 0 0 0 1.773.639 3.259 3.259 0 0 0 1.071-.171 4.76 4.76 0 0 0 .981-.477l.7 1.3a6.356 6.356 0 0 1-1.4.684 4.883 4.883 0 0 1-1.622.266zm-2.358-5.472h3.924a2.621 2.621 0 0 0-.441-1.611 1.592 1.592 0 0 0-1.359-.585 1.961 1.961 0 0 0-1.386.558 2.645 2.645 0 0 0-.738 1.638zM20.592 0v-8.838H22.3l.144 1.566h.072A3.71 3.71 0 0 1 23.652-8.6a2.383 2.383 0 0 1 1.368-.459 2.369 2.369 0 0 1 1.008.18l-.36 1.8a3.779 3.779 0 0 0-.432-.108 2.774 2.774 0 0 0-.486-.036 1.929 1.929 0 0 0-1.1.4 3.129 3.129 0 0 0-.99 1.413V0zM31.5 3.636a3.877 3.877 0 0 1-.63-.045 3.029 3.029 0 0 1-.522-.135l.378-1.62q.126.036.3.081a1.306 1.306 0 0 0 .333.045 1.521 1.521 0 0 0 1.125-.423A2.677 2.677 0 0 0 33.12.45l.162-.558-3.474-8.73h2.106l1.53 4.338q.2.576.387 1.215t.387 1.269h.072l.333-1.251q.171-.639.333-1.233l1.332-4.338h2L35.082.4a9.482 9.482 0 0 1-.594 1.35 4.416 4.416 0 0 1-.747 1.017 2.937 2.937 0 0 1-.972.648 3.327 3.327 0 0 1-1.269.221zM43.488.216a4.585 4.585 0 0 1-1.71-.316 4.06 4.06 0 0 1-1.386-.909 4.147 4.147 0 0 1-.927-1.449 5.352 5.352 0 0 1-.333-1.953 5.244 5.244 0 0 1 .342-1.944 4.459 4.459 0 0 1 .909-1.458 4.027 4.027 0 0 1 1.305-.918 3.726 3.726 0 0 1 1.512-.323 3.846 3.846 0 0 1 1.584.306 3.09 3.09 0 0 1 1.143.864 3.8 3.8 0 0 1 .693 1.332 5.825 5.825 0 0 1 .234 1.692q0 .306-.027.576a3.836 3.836 0 0 1-.063.432h-5.616a2.854 2.854 0 0 0 .837 1.827 2.513 2.513 0 0 0 1.773.639 3.259 3.259 0 0 0 1.071-.171 4.76 4.76 0 0 0 .981-.477l.7 1.3a6.356 6.356 0 0 1-1.4.684 4.883 4.883 0 0 1-1.622.266zM41.13-5.256h3.924a2.621 2.621 0 0 0-.441-1.611 1.592 1.592 0 0 0-1.359-.585 1.961 1.961 0 0 0-1.386.558 2.645 2.645 0 0 0-.738 1.638zM50.76.216A2.573 2.573 0 0 1 48.87-.5a2.525 2.525 0 0 1-.72-1.881 2.587 2.587 0 0 1 .3-1.251 2.56 2.56 0 0 1 .936-.945A6.216 6.216 0 0 1 51-5.238a14.813 14.813 0 0 1 2.349-.414 3.336 3.336 0 0 0-.1-.657 1.51 1.51 0 0 0-.27-.558 1.256 1.256 0 0 0-.5-.378 1.873 1.873 0 0 0-.756-.135 3.347 3.347 0 0 0-1.269.252 8.534 8.534 0 0 0-1.215.612L48.492-7.9a8.854 8.854 0 0 1 1.656-.81 5.627 5.627 0 0 1 1.98-.342 3.041 3.041 0 0 1 2.475.981 4.317 4.317 0 0 1 .819 2.835V0h-1.71l-.144-.972H53.5a6.493 6.493 0 0 1-1.269.846 3.2 3.2 0 0 1-1.471.342zm.666-1.62a1.942 1.942 0 0 0 .981-.252 5.267 5.267 0 0 0 .945-.72v-1.98a9.448 9.448 0 0 0-1.512.288 4.37 4.37 0 0 0-.99.4 1.443 1.443 0 0 0-.54.513 1.229 1.229 0 0 0-.162.612 1.01 1.01 0 0 0 .36.864 1.488 1.488 0 0 0 .918.279zM57.906 0v-8.838h1.71l.144 1.566h.072A3.71 3.71 0 0 1 60.966-8.6a2.383 2.383 0 0 1 1.368-.459 2.369 2.369 0 0 1 1.008.18l-.36 1.8a3.779 3.779 0 0 0-.432-.108 2.774 2.774 0 0 0-.486-.036 1.929 1.929 0 0 0-1.1.4 3.129 3.129 0 0 0-.99 1.413V0z" transform="translate(115.578 166.154)"/><path id="on_average_" data-name="on average" class="cls-7" d="M4.932.216A4.182 4.182 0 0 1 3.348-.09a3.941 3.941 0 0 1-1.341-.9 4.306 4.306 0 0 1-.927-1.458A5.3 5.3 0 0 1 .738-4.41a5.3 5.3 0 0 1 .342-1.962 4.306 4.306 0 0 1 .927-1.458 4.055 4.055 0 0 1 1.341-.909 4.078 4.078 0 0 1 1.584-.315 4.144 4.144 0 0 1 1.593.315 3.936 3.936 0 0 1 1.341.909 4.5 4.5 0 0 1 .927 1.458 5.176 5.176 0 0 1 .351 1.962 5.176 5.176 0 0 1-.351 1.962A4.5 4.5 0 0 1 7.866-.99a3.829 3.829 0 0 1-1.341.9 4.251 4.251 0 0 1-1.593.306zm0-1.692a1.767 1.767 0 0 0 1.53-.8A3.665 3.665 0 0 0 7.02-4.41a3.7 3.7 0 0 0-.558-2.151 1.767 1.767 0 0 0-1.53-.8 1.744 1.744 0 0 0-1.521.8 3.746 3.746 0 0 0-.549 2.151 3.71 3.71 0 0 0 .549 2.133 1.744 1.744 0 0 0 1.521.801zM11.2 0v-8.838h1.71l.14 1.188h.072a7.007 7.007 0 0 1 1.287-.99 3.081 3.081 0 0 1 1.611-.414 2.367 2.367 0 0 1 2.07.909 4.441 4.441 0 0 1 .648 2.6V0h-2.07v-5.274a2.75 2.75 0 0 0-.324-1.548 1.219 1.219 0 0 0-1.062-.45 1.861 1.861 0 0 0-1.017.279 6.488 6.488 0 0 0-1 .819V0zm15.818.216a2.573 2.573 0 0 1-1.89-.716 2.525 2.525 0 0 1-.72-1.881 2.587 2.587 0 0 1 .3-1.251 2.56 2.56 0 0 1 .936-.945 6.216 6.216 0 0 1 1.62-.666 14.813 14.813 0 0 1 2.349-.414 3.336 3.336 0 0 0-.1-.657 1.51 1.51 0 0 0-.27-.558 1.256 1.256 0 0 0-.5-.378 1.873 1.873 0 0 0-.756-.135 3.347 3.347 0 0 0-1.269.252 8.534 8.534 0 0 0-1.215.612L24.75-7.9a8.854 8.854 0 0 1 1.656-.81 5.627 5.627 0 0 1 1.98-.342 3.041 3.041 0 0 1 2.475.981 4.317 4.317 0 0 1 .819 2.835V0h-1.71l-.144-.972h-.072a6.494 6.494 0 0 1-1.269.846 3.2 3.2 0 0 1-1.467.342zm.666-1.62a1.942 1.942 0 0 0 .981-.252 5.267 5.267 0 0 0 .945-.72v-1.98a9.448 9.448 0 0 0-1.512.288 4.37 4.37 0 0 0-.99.4 1.443 1.443 0 0 0-.54.513 1.229 1.229 0 0 0-.162.612 1.01 1.01 0 0 0 .36.864 1.488 1.488 0 0 0 .918.279zM36.144 0l-3.078-8.838h2.106l1.4 4.59q.18.648.369 1.314t.369 1.35h.072q.2-.684.378-1.35t.378-1.314l1.4-4.59h2l-3 8.838zm10.6.216A4.585 4.585 0 0 1 45.036-.1a4.06 4.06 0 0 1-1.386-.909 4.147 4.147 0 0 1-.927-1.449 5.352 5.352 0 0 1-.333-1.952 5.244 5.244 0 0 1 .342-1.944 4.459 4.459 0 0 1 .909-1.458 4.027 4.027 0 0 1 1.305-.918 3.726 3.726 0 0 1 1.512-.324 3.846 3.846 0 0 1 1.584.306 3.09 3.09 0 0 1 1.143.864 3.8 3.8 0 0 1 .693 1.332 5.825 5.825 0 0 1 .234 1.692q0 .306-.027.576a3.838 3.838 0 0 1-.063.432h-5.616a2.854 2.854 0 0 0 .837 1.827 2.513 2.513 0 0 0 1.773.639 3.259 3.259 0 0 0 1.071-.171 4.76 4.76 0 0 0 .981-.477l.7 1.3a6.356 6.356 0 0 1-1.4.684 4.883 4.883 0 0 1-1.622.266zm-2.356-5.472h3.924a2.621 2.621 0 0 0-.441-1.611 1.592 1.592 0 0 0-1.359-.585 1.961 1.961 0 0 0-1.386.558 2.645 2.645 0 0 0-.738 1.638zM52.092 0v-8.838H53.8l.144 1.566h.072A3.71 3.71 0 0 1 55.152-8.6a2.383 2.383 0 0 1 1.368-.459 2.369 2.369 0 0 1 1.008.18l-.36 1.8a3.779 3.779 0 0 0-.432-.108 2.774 2.774 0 0 0-.486-.036 1.929 1.929 0 0 0-1.1.4 3.129 3.129 0 0 0-.99 1.413V0zm8.388.216A2.573 2.573 0 0 1 58.59-.5a2.525 2.525 0 0 1-.72-1.881 2.587 2.587 0 0 1 .3-1.251 2.56 2.56 0 0 1 .936-.945 6.216 6.216 0 0 1 1.62-.666 14.813 14.813 0 0 1 2.349-.414 3.336 3.336 0 0 0-.1-.657 1.51 1.51 0 0 0-.27-.558 1.256 1.256 0 0 0-.495-.378 1.873 1.873 0 0 0-.756-.135 3.347 3.347 0 0 0-1.269.252 8.534 8.534 0 0 0-1.215.612L58.212-7.9a8.854 8.854 0 0 1 1.656-.81 5.627 5.627 0 0 1 1.98-.342 3.041 3.041 0 0 1 2.475.981 4.317 4.317 0 0 1 .819 2.835V0h-1.71l-.144-.972h-.072a6.493 6.493 0 0 1-1.269.846 3.2 3.2 0 0 1-1.467.342zm.666-1.62a1.942 1.942 0 0 0 .981-.252 5.267 5.267 0 0 0 .945-.72v-1.98a9.448 9.448 0 0 0-1.512.288 4.37 4.37 0 0 0-.99.4 1.443 1.443 0 0 0-.54.513 1.229 1.229 0 0 0-.162.612 1.01 1.01 0 0 0 .36.864 1.488 1.488 0 0 0 .918.279zm9.554 5.31a7.032 7.032 0 0 1-1.467-.144 3.835 3.835 0 0 1-1.161-.432 2.266 2.266 0 0 1-.765-.72 1.817 1.817 0 0 1-.275-1.01 1.806 1.806 0 0 1 .324-1.033 3.029 3.029 0 0 1 .936-.855V-.36a1.794 1.794 0 0 1-.567-.576 1.669 1.669 0 0 1-.225-.9 1.606 1.606 0 0 1 .3-.945 2.858 2.858 0 0 1 .675-.693v-.072a3.162 3.162 0 0 1-.8-.945 2.722 2.722 0 0 1-.351-1.395 3.056 3.056 0 0 1 .288-1.35 3.02 3.02 0 0 1 .765-1 3.265 3.265 0 0 1 1.107-.612 4.24 4.24 0 0 1 1.332-.207 3.721 3.721 0 0 1 .693.063 4.641 4.641 0 0 1 .6.153h3.168v1.53h-1.62a2.1 2.1 0 0 1 .36.639 2.435 2.435 0 0 1 .144.855 3.029 3.029 0 0 1-.261 1.3 2.7 2.7 0 0 1-.711.936 3.127 3.127 0 0 1-1.062.576 4.244 4.244 0 0 1-1.314.2 3.416 3.416 0 0 1-.594-.054 2.954 2.954 0 0 1-.612-.18 1.879 1.879 0 0 0-.315.36.883.883 0 0 0-.117.486.682.682 0 0 0 .315.594 2.108 2.108 0 0 0 1.125.216h1.565a4.615 4.615 0 0 1 2.42.508 1.815 1.815 0 0 1 .82 1.665 2.407 2.407 0 0 1-.333 1.224 3.023 3.023 0 0 1-.945.99 5.052 5.052 0 0 1-1.485.657 7.281 7.281 0 0 1-1.957.243zm.108-8.01a1.459 1.459 0 0 0 1.08-.459 1.813 1.813 0 0 0 .45-1.323 1.782 1.782 0 0 0-.438-1.287 1.45 1.45 0 0 0-1.089-.459 1.494 1.494 0 0 0-1.1.45 1.754 1.754 0 0 0-.45 1.3 1.813 1.813 0 0 0 .45 1.323 1.479 1.479 0 0 0 1.101.459zm.216 6.66a3.168 3.168 0 0 0 1.737-.423 1.2 1.2 0 0 0 .657-1 .693.693 0 0 0-.4-.7 2.954 2.954 0 0 0-1.161-.18H70.65a4.892 4.892 0 0 1-1.206-.127A1.476 1.476 0 0 0 68.76 1.3a1.023 1.023 0 0 0 .6.927 3.47 3.47 0 0 0 1.668.329zm9.45-2.34A4.585 4.585 0 0 1 78.768-.1a4.061 4.061 0 0 1-1.386-.909 4.147 4.147 0 0 1-.927-1.449 5.352 5.352 0 0 1-.333-1.953 5.244 5.244 0 0 1 .342-1.944 4.459 4.459 0 0 1 .909-1.458 4.027 4.027 0 0 1 1.305-.918 3.726 3.726 0 0 1 1.512-.324 3.846 3.846 0 0 1 1.584.306 3.09 3.09 0 0 1 1.143.864 3.8 3.8 0 0 1 .693 1.332 5.825 5.825 0 0 1 .234 1.692q0 .306-.027.576a3.838 3.838 0 0 1-.063.432h-5.616a2.854 2.854 0 0 0 .837 1.827 2.513 2.513 0 0 0 1.773.639 3.259 3.259 0 0 0 1.071-.171 4.76 4.76 0 0 0 .981-.477l.7 1.3a6.356 6.356 0 0 1-1.4.684 4.883 4.883 0 0 1-1.622.267zM78.12-5.256h3.924a2.621 2.621 0 0 0-.444-1.611 1.592 1.592 0 0 0-1.359-.585 1.961 1.961 0 0 0-1.386.558 2.645 2.645 0 0 0-.735 1.638z" transform="translate(22.378 166.154)"/><path id="L" class="cls-2" d="M21.1 76.5l-1.3 7.6H1.9V40.4h8v36.2h11.2z"/><path id="O" class="cls-2" d="M43.2 42.5c2.1 2.1 3.1 5 3.1 8.7v21.3a12.047 12.047 0 0 1-3.1 8.7 11.384 11.384 0 0 1-8.4 3.2 11.227 11.227 0 0 1-8.4-3.2c-2.1-2.1-3.1-5-3.1-8.7V51.2a12.047 12.047 0 0 1 3.1-8.7 11.384 11.384 0 0 1 8.4-3.2 11.384 11.384 0 0 1 8.4 3.2zm-11.9 8.7v21.2c0 3 1.2 4.4 3.5 4.4s3.5-1.5 3.5-4.4V51.2c0-3-1.2-4.4-3.5-4.4-2.4 0-3.5 1.5-3.5 4.4z"/><path id="S-2" data-name="S" class="cls-2" d="M67.9 42.5c1.9 1.9 2.8 4.5 2.8 7.8v6.2l-7.7.8v-6.8c0-2.1-.9-3.2-2.8-3.3-1.9 0-2.8 1.1-2.8 3.3v3.1a5.154 5.154 0 0 0 1.3 3.6 9.357 9.357 0 0 0 4.1 2.6 16.76 16.76 0 0 1 5.7 3.2 8.758 8.758 0 0 1 2.5 4.2 21.18 21.18 0 0 1 .6 5.4v1.6a10.411 10.411 0 0 1-2.9 7.8c-1.9 1.9-4.6 2.8-8.2 2.8-3.5 0-6.2-.9-8.2-2.8a10.568 10.568 0 0 1-2.9-7.8v-4.8l7.7-.8v5.1a4.138 4.138 0 0 0 .8 2.7 3.65 3.65 0 0 0 4.8 0 4.138 4.138 0 0 0 .8-2.7v-.8a6.147 6.147 0 0 0-1.1-3.6c-.7-1-2.2-1.9-4.5-2.8q-4.8-1.95-6.6-5.1a14.067 14.067 0 0 1-1.9-7.6v-3.5c0-3.3.9-6 2.8-7.8 1.9-1.9 4.5-2.8 7.9-2.8s6 1 7.8 2.8z"/><path id="T" class="cls-2" d="M87.9 48v36.2h-8V48h-8.5l1.3-7.6H95l1.3 7.6z"/><path id="dollar_sign" data-name="dollar sign" class="cls-2" d="M117.4 55.8a5.416 5.416 0 0 1 1.4 2.4 14.493 14.493 0 0 1 .3 3.2v.9a5.941 5.941 0 0 1-1.3 4.1 6.379 6.379 0 0 1-3.7 2V71h-3.7v-2.7a5.374 5.374 0 0 1-3.2-2 6.667 6.667 0 0 1-1.1-3.9v-1l4.5-.5v1.2a2.537 2.537 0 0 0 .4 1.6 2.21 2.21 0 0 0 2.8 0 2.348 2.348 0 0 0 .5-1.6v-.5a3.139 3.139 0 0 0-.7-2.1 6.448 6.448 0 0 0-2.6-1.6 8.284 8.284 0 0 1-3.9-3 8.7 8.7 0 0 1-1.1-4.4v-2a6.667 6.667 0 0 1 1.1-3.9 5.093 5.093 0 0 1 3.2-2v-2.7h3.7v2.6a5.172 5.172 0 0 1 3.3 2 6.347 6.347 0 0 1 1.2 4v1l-4.5.4v-1.4c0-1.3-.5-1.9-1.6-1.9s-1.6.6-1.6 1.9v1.8a3.139 3.139 0 0 0 .7 2.1 5.507 5.507 0 0 0 2.4 1.5 9.239 9.239 0 0 1 3.5 1.9z"/><path id="three" class="cls-2" d="M143.9 70.5v2.7c0 3.6-1 6.5-3 8.5s-4.8 3-8.4 3-6.4-1-8.4-3-3-4.8-3-8.3v-4.6l7.7-.4v4.2a6.221 6.221 0 0 0 .8 3.5 3.121 3.121 0 0 0 2.7 1.1q3.6 0 3.6-4.5V70a5.886 5.886 0 0 0-1-3.9 4.026 4.026 0 0 0-3.3-1.2h-3.4l.7-7.5h2.8a3.549 3.549 0 0 0 2.9-1.1 5.9 5.9 0 0 0 .9-3.7v-1.1c0-2.9-1.1-4.3-3.4-4.3a2.775 2.775 0 0 0-2.4 1.1 6.221 6.221 0 0 0-.8 3.5v2.9l-7.7-.4V51c0-3.6 1-6.3 2.9-8.3a11.028 11.028 0 0 1 8.2-3c3.5 0 6.3 1 8.2 3.1a11.761 11.761 0 0 1 3 8.5v1.3q0 6.15-4.2 8.4c3 1.6 4.6 4.8 4.6 9.5z"/><path id="five" class="cls-2" d="M165.5 57a13.07 13.07 0 0 1 2.6 8.5v7.7a11.761 11.761 0 0 1-3 8.5 11.324 11.324 0 0 1-8.3 3.1 11.514 11.514 0 0 1-8.4-3c-2-2-3-4.8-3-8.3v-2.4l7.7.2v1.3a6.221 6.221 0 0 0 .8 3.5 3.043 3.043 0 0 0 2.6 1.1c2.4 0 3.6-1.5 3.5-4.5v-6.9c0-3-1.2-4.5-3.5-4.5a3.649 3.649 0 0 0-2.4.8 3.293 3.293 0 0 0-1 2.3l-.1 2.1-7.5-.9 1.5-25.4h19.4l-1.3 7.6h-11l-.4 7.2a8.059 8.059 0 0 1 4.6-1.2 9.391 9.391 0 0 1 7.2 3.2z"/><path id="eight" class="cls-2" d="M192.9 71.8v1.5c0 3.6-1 6.4-3.1 8.5a12.064 12.064 0 0 1-8.6 3.1c-3.6 0-6.5-1-8.6-3.1-2.1-2-3.1-4.9-3.1-8.5v-1.5c0-4.7 1.5-7.9 4.6-9.6q-4.2-2.4-4.2-8.4v-2.5a11.761 11.761 0 0 1 3-8.5c2-2.1 4.8-3.1 8.4-3.1s6.3 1 8.3 3.1a11.761 11.761 0 0 1 3 8.5v2.5q0 6-4.2 8.4 4.5 2.55 4.5 9.6zm-14.6-4.4a5.389 5.389 0 0 0-.9 3.3v2.1a5.192 5.192 0 0 0 .9 3.3 3.666 3.666 0 0 0 2.8 1.2 3.489 3.489 0 0 0 2.8-1.2 4.826 4.826 0 0 0 1-3.3v-2.1a4.66 4.66 0 0 0-1-3.3 3.832 3.832 0 0 0-2.8-1.2 3.489 3.489 0 0 0-2.8 1.2zm.3-19.1a4.589 4.589 0 0 0-.9 3.1v3.3a4.589 4.589 0 0 0 .9 3.1 3.04 3.04 0 0 0 2.5 1 3.1 3.1 0 0 0 2.5-1.1 4.589 4.589 0 0 0 .9-3.1v-3.3a4.589 4.589 0 0 0-.9-3.1 3.04 3.04 0 0 0-2.5-1 3.1 3.1 0 0 0-2.5 1.1z"/><path id="plus" class="cls-2" d="M13.1 122.3v3.5H8.3v4.8H4.8v-4.8H0v-3.5h4.8v-4.8h3.5v4.8z"/><path id="two" class="cls-1" d="M34.6 102.1a10.65 10.65 0 0 1 2.9 7.9v4.2a17.964 17.964 0 0 1-.4 4.3 15.324 15.324 0 0 1-1.6 3.9 50.7 50.7 0 0 1-3.6 5.2l-6.5 8.5h12.2v7.6h-22v-6.5l10.1-13.7a27.091 27.091 0 0 0 3.2-5 11.488 11.488 0 0 0 .7-4.5v-3.4c0-2.5-1-3.8-3.1-3.8a2.775 2.775 0 0 0-2.4 1.1 6.328 6.328 0 0 0-.7 3.5v3.2l-7.7-.7v-3.7a11.3 11.3 0 0 1 2.9-8.1c1.9-1.9 4.6-2.9 8.1-2.9a10.65 10.65 0 0 1 7.9 2.9z"/><path id="one" class="cls-1" d="M45.8 111.5h-5.5v-5.9a12.166 12.166 0 0 0 4.1-.7 3.821 3.821 0 0 0 1.9-1.6 29.229 29.229 0 0 0 1.6-3.4h5.8v43.8h-8v-32.2z"/><path id="H" class="cls-1" d="M81.8 143.1v-15.3H75v15.3h-8V99.3h8v21h6.7v-21h8v43.8z"/><path id="O-2" data-name="O" class="cls-1" d="M113.7 101.4c2.1 2.1 3.1 5 3.1 8.7v21.3a12.047 12.047 0 0 1-3.1 8.7 11.384 11.384 0 0 1-8.4 3.2 11.074 11.074 0 0 1-8.4-3.2c-2.1-2.1-3.1-5-3.1-8.7v-21.3a12.047 12.047 0 0 1 3.1-8.7c2.1-2.2 4.9-3.2 8.4-3.2a11.384 11.384 0 0 1 8.4 3.2zm-11.9 8.7v21.2c0 3 1.2 4.4 3.5 4.4s3.5-1.5 3.5-4.4v-21.2c0-3-1.2-4.4-3.5-4.4-2.4 0-3.5 1.5-3.5 4.4z"/><path id="U" class="cls-1" d="M139.6 140.8c-1.9 2-4.7 2.9-8.2 2.9s-6.2-1-8.1-2.9-2.9-4.7-2.9-8.3V99.3h7.7v33a3.8 3.8 0 0 0 1 2.9 2.75 2.75 0 0 0 4.4 0 4.374 4.374 0 0 0 .9-2.9v-33h8v33.2a11.172 11.172 0 0 1-2.8 8.3z"/><path id="R" class="cls-1" d="M155.3 128.1v15h-8V99.3h10.4c3.8 0 6.7 1 8.8 3.1 2 2.1 3.1 5 3.1 8.8v5.1a14.433 14.433 0 0 1-1.2 6.1 9.058 9.058 0 0 1-3.5 4l6.2 16.8h-8.4l-5.3-15h-2.1zm2.1-7.5a4.014 4.014 0 0 0 3.1-1.1 6.1 6.1 0 0 0 .9-3.7v-4.2a5.457 5.457 0 0 0-1-3.7 3.809 3.809 0 0 0-3.1-1.1h-2.1v13.8h2.2z"/><path id="S-3" data-name="S" class="cls-1" d="M191.2 101.4c1.9 1.9 2.8 4.5 2.8 7.8v6.2l-7.7.8v-6.8c0-2.1-.9-3.2-2.8-3.3-1.9 0-2.8 1.1-2.8 3.3v3.1a5.154 5.154 0 0 0 1.3 3.6 9.357 9.357 0 0 0 4.1 2.6 16.76 16.76 0 0 1 5.7 3.2 8.758 8.758 0 0 1 2.5 4.2 21.734 21.734 0 0 1 .6 5.4v1.6a10.411 10.411 0 0 1-2.9 7.8c-1.9 1.8-4.6 2.8-8.2 2.8-3.5 0-6.2-.9-8.2-2.8a10.568 10.568 0 0 1-2.9-7.8v-4.8l7.7-.8v5.1a4.138 4.138 0 0 0 .8 2.7 3.65 3.65 0 0 0 4.8 0 4.138 4.138 0 0 0 .8-2.7v-.8a6.147 6.147 0 0 0-1.1-3.6c-.7-1-2.2-1.9-4.5-2.8q-4.8-1.95-6.6-5.1a14.067 14.067 0 0 1-1.9-7.6v-3.5c0-3.3.9-6 2.8-7.8 1.9-1.9 4.5-2.8 7.9-2.8a10.93 10.93 0 0 1 7.8 2.8z"/><path id="Worldwide_consumers" data-name="Worldwide, consumers" class="cls-7" d="M2.664 0L.324-11.772h2.142l1.026 5.94q.144.954.288 1.89l.288 1.872h.072q.2-.936.387-1.881t.387-1.881l1.44-5.94h1.818l1.44 5.94q.2.918.4 1.863t.4 1.9h.072q.144-.954.279-1.89t.279-1.872l1.026-5.94h2L11.808 0H9.216L7.758-6.192q-.144-.684-.279-1.359T7.236-8.91h-.072q-.126.684-.261 1.359t-.279 1.359L5.2 0zm16.668.216a4.182 4.182 0 0 1-1.584-.306 3.941 3.941 0 0 1-1.341-.9 4.306 4.306 0 0 1-.927-1.458 5.3 5.3 0 0 1-.342-1.962 5.3 5.3 0 0 1 .342-1.962 4.306 4.306 0 0 1 .927-1.458 4.055 4.055 0 0 1 1.341-.909 4.078 4.078 0 0 1 1.584-.315 4.144 4.144 0 0 1 1.593.315 3.936 3.936 0 0 1 1.341.909 4.5 4.5 0 0 1 .927 1.458 5.176 5.176 0 0 1 .351 1.962 5.176 5.176 0 0 1-.351 1.962 4.5 4.5 0 0 1-.927 1.458 3.829 3.829 0 0 1-1.341.9 4.251 4.251 0 0 1-1.593.306zm0-1.692a1.767 1.767 0 0 0 1.53-.8 3.665 3.665 0 0 0 .558-2.134 3.7 3.7 0 0 0-.558-2.151 1.767 1.767 0 0 0-1.53-.8 1.744 1.744 0 0 0-1.521.8 3.746 3.746 0 0 0-.549 2.151 3.71 3.71 0 0 0 .549 2.133 1.744 1.744 0 0 0 1.521.801zM25.6 0v-8.838h1.71l.144 1.566h.072a3.71 3.71 0 0 1 1.13-1.328 2.383 2.383 0 0 1 1.368-.459 2.369 2.369 0 0 1 1.008.18l-.36 1.8a3.779 3.779 0 0 0-.432-.108 2.774 2.774 0 0 0-.486-.036 1.929 1.929 0 0 0-1.1.4 3.129 3.129 0 0 0-.99 1.413V0zm8.73.216a1.751 1.751 0 0 1-1.57-.666 3.209 3.209 0 0 1-.45-1.818v-10.44h2.07V-2.16a.771.771 0 0 0 .144.531.42.42 0 0 0 .306.153h.135a.763.763 0 0 0 .189-.036l.27 1.548a2.793 2.793 0 0 1-1.098.18zm5.958 0A3.233 3.233 0 0 1 37.629-1a5.3 5.3 0 0 1-.981-3.411 5.646 5.646 0 0 1 .315-1.944 4.534 4.534 0 0 1 .837-1.457A3.74 3.74 0 0 1 39-8.73a3.188 3.188 0 0 1 1.395-.324 2.837 2.837 0 0 1 1.278.261 5.117 5.117 0 0 1 1.044.711L42.642-9.5v-3.2h2.07V0H43l-.144-.954h-.072a4.679 4.679 0 0 1-1.134.828 2.89 2.89 0 0 1-1.366.342zm.5-1.71a2.469 2.469 0 0 0 1.854-.99v-4.122a2.928 2.928 0 0 0-.909-.576 2.567 2.567 0 0 0-.891-.162 1.793 1.793 0 0 0-1.458.756 3.428 3.428 0 0 0-.594 2.16 3.862 3.862 0 0 0 .51 2.187 1.69 1.69 0 0 0 1.488.747zM48.8 0l-2.34-8.838h2.088l1.062 4.59q.144.63.243 1.26t.225 1.278h.072q.126-.648.261-1.278t.3-1.26l1.152-4.59h1.89l1.17 4.59q.162.63.306 1.26t.288 1.278h.072q.126-.648.234-1.278t.234-1.26l1.062-4.59h1.944L56.808 0h-2.466l-1.026-4.122q-.144-.63-.27-1.251t-.27-1.327H52.7q-.126.7-.252 1.332t-.27 1.26L51.174 0zm12 0v-8.838h2.07V0zm1.044-10.386a1.32 1.32 0 0 1-.918-.324 1.085 1.085 0 0 1-.36-.846 1.112 1.112 0 0 1 .36-.855 1.3 1.3 0 0 1 .918-.333 1.3 1.3 0 0 1 .918.333 1.112 1.112 0 0 1 .36.855 1.085 1.085 0 0 1-.36.846 1.32 1.32 0 0 1-.914.324zM68.616.216A3.233 3.233 0 0 1 65.961-1a5.3 5.3 0 0 1-.981-3.41 5.647 5.647 0 0 1 .315-1.944 4.534 4.534 0 0 1 .837-1.458 3.739 3.739 0 0 1 1.2-.918 3.188 3.188 0 0 1 1.395-.324A2.837 2.837 0 0 1 70-8.793a5.117 5.117 0 0 1 1.044.711l-.07-1.418v-3.2h2.07V0h-1.71l-.144-.954h-.072a4.679 4.679 0 0 1-1.134.828 2.89 2.89 0 0 1-1.368.342zm.5-1.71a2.469 2.469 0 0 0 1.854-.99v-4.122a2.928 2.928 0 0 0-.909-.576 2.567 2.567 0 0 0-.891-.162 1.793 1.793 0 0 0-1.458.756 3.428 3.428 0 0 0-.594 2.16 3.862 3.862 0 0 0 .513 2.187 1.69 1.69 0 0 0 1.489.747zM79.452.216a4.585 4.585 0 0 1-1.71-.316 4.061 4.061 0 0 1-1.386-.909 4.147 4.147 0 0 1-.927-1.449A5.352 5.352 0 0 1 75.1-4.41a5.244 5.244 0 0 1 .342-1.944 4.459 4.459 0 0 1 .909-1.458 4.027 4.027 0 0 1 1.305-.918 3.726 3.726 0 0 1 1.512-.324 3.846 3.846 0 0 1 1.584.306 3.09 3.09 0 0 1 1.143.864 3.8 3.8 0 0 1 .693 1.332 5.825 5.825 0 0 1 .234 1.692q0 .306-.027.576a3.838 3.838 0 0 1-.063.432h-5.62a2.854 2.854 0 0 0 .837 1.827 2.513 2.513 0 0 0 1.773.639 3.259 3.259 0 0 0 1.071-.171 4.76 4.76 0 0 0 .981-.477l.7 1.3a6.356 6.356 0 0 1-1.4.684 4.883 4.883 0 0 1-1.622.266zm-2.358-5.472h3.924a2.621 2.621 0 0 0-.441-1.611 1.592 1.592 0 0 0-1.359-.585 1.961 1.961 0 0 0-1.386.558 2.645 2.645 0 0 0-.738 1.638zm7.686 8.532l-.45-1.134a3.238 3.238 0 0 0 1.359-.918 1.853 1.853 0 0 0 .459-1.26h-.162a1.419 1.419 0 0 1-.927-.333 1.154 1.154 0 0 1-.4-.945 1.167 1.167 0 0 1 .4-.927 1.447 1.447 0 0 1 .981-.351 1.33 1.33 0 0 1 1.143.558 2.628 2.628 0 0 1 .4 1.566 3.732 3.732 0 0 1-.729 2.3 4.253 4.253 0 0 1-2.074 1.444zM97.038.216a4.583 4.583 0 0 1-1.683-.306A3.793 3.793 0 0 1 94-.99a4.162 4.162 0 0 1-.9-1.458 5.56 5.56 0 0 1-.324-1.962 5.061 5.061 0 0 1 .36-1.962A4.314 4.314 0 0 1 94.1-7.83a4.232 4.232 0 0 1 1.413-.909 4.557 4.557 0 0 1 1.687-.315 3.506 3.506 0 0 1 1.485.288 4.828 4.828 0 0 1 1.107.7l-1.008 1.35a3.428 3.428 0 0 0-.711-.477 1.723 1.723 0 0 0-.765-.171 2.161 2.161 0 0 0-1.746.8A3.259 3.259 0 0 0 94.9-4.41a3.259 3.259 0 0 0 .657 2.133 2.1 2.1 0 0 0 1.7.8 2.2 2.2 0 0 0 .981-.225 4.408 4.408 0 0 0 .837-.531l.846 1.368a4.406 4.406 0 0 1-1.377.81 4.394 4.394 0 0 1-1.506.271zm7.812 0a4.182 4.182 0 0 1-1.584-.306 3.941 3.941 0 0 1-1.341-.9A4.306 4.306 0 0 1 101-2.448a5.3 5.3 0 0 1-.342-1.962A5.3 5.3 0 0 1 101-6.372a4.306 4.306 0 0 1 .927-1.458 4.055 4.055 0 0 1 1.341-.909 4.078 4.078 0 0 1 1.584-.315 4.144 4.144 0 0 1 1.593.315 3.936 3.936 0 0 1 1.341.909 4.5 4.5 0 0 1 .927 1.458 5.176 5.176 0 0 1 .351 1.962 5.176 5.176 0 0 1-.351 1.962 4.5 4.5 0 0 1-.927 1.458 3.829 3.829 0 0 1-1.341.9 4.251 4.251 0 0 1-1.595.306zm0-1.692a1.767 1.767 0 0 0 1.53-.8 3.665 3.665 0 0 0 .558-2.133 3.7 3.7 0 0 0-.558-2.151 1.767 1.767 0 0 0-1.53-.8 1.744 1.744 0 0 0-1.521.8 3.746 3.746 0 0 0-.549 2.151 3.71 3.71 0 0 0 .549 2.133 1.744 1.744 0 0 0 1.521.8zM111.114 0v-8.838h1.71l.144 1.188h.072a7.007 7.007 0 0 1 1.287-.99 3.081 3.081 0 0 1 1.611-.414 2.367 2.367 0 0 1 2.07.909 4.441 4.441 0 0 1 .648 2.6V0h-2.07v-5.274a2.75 2.75 0 0 0-.324-1.548 1.219 1.219 0 0 0-1.062-.45 1.861 1.861 0 0 0-1.017.279 6.488 6.488 0 0 0-1 .819V0zm12.546.216a4.9 4.9 0 0 1-1.809-.351 5.853 5.853 0 0 1-1.539-.873l.972-1.332a5.619 5.619 0 0 0 1.179.729 3.079 3.079 0 0 0 1.269.261 1.592 1.592 0 0 0 1.062-.3.967.967 0 0 0 .342-.765.752.752 0 0 0-.162-.477 1.556 1.556 0 0 0-.432-.369 4.153 4.153 0 0 0-.612-.3q-.342-.135-.684-.279-.432-.162-.882-.378a3.546 3.546 0 0 1-.8-.522 2.633 2.633 0 0 1-.576-.711 1.953 1.953 0 0 1-.225-.963 2.393 2.393 0 0 1 .864-1.908 3.513 3.513 0 0 1 2.358-.738 4.078 4.078 0 0 1 1.656.324 6.165 6.165 0 0 1 1.278.738l-.954 1.26a4.937 4.937 0 0 0-.945-.549 2.483 2.483 0 0 0-1-.207 1.451 1.451 0 0 0-.981.279.888.888 0 0 0-.315.693.706.706 0 0 0 .153.459 1.417 1.417 0 0 0 .4.333 4.123 4.123 0 0 0 .585.27q.333.126.693.252.45.162.9.369a3.7 3.7 0 0 1 .819.513 2.339 2.339 0 0 1 .594.747 2.292 2.292 0 0 1 .232 1.059 2.557 2.557 0 0 1-.225 1.071 2.474 2.474 0 0 1-.657.864 3.2 3.2 0 0 1-1.08.585 4.659 4.659 0 0 1-1.478.216zm7.92 0a2.367 2.367 0 0 1-2.07-.909 4.441 4.441 0 0 1-.648-2.6v-5.545h2.07v5.274a2.75 2.75 0 0 0 .324 1.548 1.2 1.2 0 0 0 1.044.45 1.818 1.818 0 0 0 1.017-.288 4.158 4.158 0 0 0 .945-.936v-6.048h2.07V0h-1.692l-.162-1.3h-.054a5.193 5.193 0 0 1-1.251 1.1 2.986 2.986 0 0 1-1.593.416zM138.96 0v-8.838h1.71l.144 1.206h.072A6.2 6.2 0 0 1 142.1-8.64a2.727 2.727 0 0 1 1.485-.414 2.643 2.643 0 0 1 1.557.414 2.57 2.57 0 0 1 .891 1.17 7.11 7.11 0 0 1 1.315-1.13 2.723 2.723 0 0 1 1.53-.45 2.4 2.4 0 0 1 2.07.909 4.349 4.349 0 0 1 .666 2.6V0h-2.088v-5.274a2.69 2.69 0 0 0-.333-1.548 1.182 1.182 0 0 0-1.017-.45 2.784 2.784 0 0 0-1.854 1.1V0h-2.07v-5.274a2.69 2.69 0 0 0-.333-1.548 1.2 1.2 0 0 0-1.035-.45 2.784 2.784 0 0 0-1.854 1.1V0zm18.954.216A4.585 4.585 0 0 1 156.2-.1a4.06 4.06 0 0 1-1.386-.909 4.147 4.147 0 0 1-.927-1.449 5.352 5.352 0 0 1-.333-1.953 5.244 5.244 0 0 1 .342-1.944 4.459 4.459 0 0 1 .909-1.458 4.027 4.027 0 0 1 1.305-.918 3.726 3.726 0 0 1 1.512-.324 3.846 3.846 0 0 1 1.584.306 3.09 3.09 0 0 1 1.143.864 3.8 3.8 0 0 1 .693 1.332 5.825 5.825 0 0 1 .234 1.692q0 .306-.027.576a3.834 3.834 0 0 1-.063.432h-5.616a2.854 2.854 0 0 0 .837 1.827 2.513 2.513 0 0 0 1.773.639 3.259 3.259 0 0 0 1.071-.171 4.76 4.76 0 0 0 .981-.477l.7 1.3a6.356 6.356 0 0 1-1.4.684 4.883 4.883 0 0 1-1.618.267zm-2.358-5.472h3.924a2.621 2.621 0 0 0-.441-1.611 1.592 1.592 0 0 0-1.359-.585 1.961 1.961 0 0 0-1.386.558 2.646 2.646 0 0 0-.738 1.638zM163.26 0v-8.838h1.71l.144 1.566h.072A3.71 3.71 0 0 1 166.32-8.6a2.384 2.384 0 0 1 1.368-.459 2.369 2.369 0 0 1 1.008.18l-.36 1.8a3.779 3.779 0 0 0-.432-.108 2.774 2.774 0 0 0-.486-.036 1.929 1.929 0 0 0-1.1.4 3.129 3.129 0 0 0-.99 1.413V0zm9.072.216a4.9 4.9 0 0 1-1.809-.351 5.853 5.853 0 0 1-1.539-.873l.972-1.332a5.619 5.619 0 0 0 1.179.729 3.079 3.079 0 0 0 1.269.261 1.592 1.592 0 0 0 1.062-.3.967.967 0 0 0 .342-.765.752.752 0 0 0-.162-.477 1.556 1.556 0 0 0-.432-.369 4.153 4.153 0 0 0-.612-.3q-.342-.135-.684-.279-.432-.162-.882-.378a3.545 3.545 0 0 1-.8-.522 2.633 2.633 0 0 1-.576-.711 1.953 1.953 0 0 1-.225-.963 2.393 2.393 0 0 1 .864-1.908 3.513 3.513 0 0 1 2.358-.738 4.078 4.078 0 0 1 1.656.324 6.165 6.165 0 0 1 1.278.738l-.954 1.26a4.937 4.937 0 0 0-.945-.549 2.483 2.483 0 0 0-1-.207 1.451 1.451 0 0 0-.981.279.888.888 0 0 0-.315.693.706.706 0 0 0 .153.459 1.417 1.417 0 0 0 .4.333 4.124 4.124 0 0 0 .585.27q.333.126.693.252.45.162.9.369a3.7 3.7 0 0 1 .819.513 2.339 2.339 0 0 1 .594.747 2.292 2.292 0 0 1 .225 1.053 2.557 2.557 0 0 1-.225 1.071 2.474 2.474 0 0 1-.657.864 3.2 3.2 0 0 1-1.08.585 4.659 4.659 0 0 1-1.471.222z" transform="translate(5.591 24.809)"/></g></svg>